SplineFontDB: 3.0
FontName: Experiment-Tamil-Italic
FullName: Experiment-Tamil
FamilyName: Experiment-Tamil
Weight: Italic
Copyright: Copyright (c) 2015, Pathum Egodawatta
UComments: "2015-9-29: Created with FontForge (http://fontforge.org)"
Version: 0.001
ItalicAngle: 0
UnderlinePosition: 100
UnderlineWidth: 49
Ascent: 1000
Descent: 0
InvalidEm: 0
LayerCount: 3
Layer: 0 0 "Back" 1
Layer: 1 0 "Fore" 0
Layer: 2 0 "new" 1
PreferredKerning: 4
XUID: [1021 779 -1439063335 14876943]
FSType: 0
OS2Version: 0
OS2_WeightWidthSlopeOnly: 0
OS2_UseTypoMetrics: 1
CreationTime: 1443542790
ModificationTime: 1458729564
PfmFamily: 17
TTFWeight: 400
TTFWidth: 5
LineGap: 122
VLineGap: 0
OS2TypoAscent: 129
OS2TypoAOffset: 1
OS2TypoDescent: 0
OS2TypoDOffset: 1
OS2TypoLinegap: 122
OS2WinAscent: 129
OS2WinAOffset: 1
OS2WinDescent: -161
OS2WinDOffset: 1
HheadAscent: 29
HheadAOffset: 1
HheadDescent: 183
HheadDOffset: 1
OS2CapHeight: 0
OS2XHeight: 0
OS2Vendor: 'PfEd'
Lookup: 260 0 0 "'abvm' Above Base Mark in Tamil lookup 0" { "'abvm' Above Base Mark in Tamil lookup 0-1"  } ['abvm' ('DFLT' <'dflt' > 'taml' <'dflt' > ) ]
MarkAttachClasses: 1
DEI: 91125
LangName: 1033
Encoding: Tamil
Compacted: 1
UnicodeInterp: none
NameList: tamil
DisplaySize: -128
AntiAlias: 1
FitToEm: 1
WinInfo: 88 8 2
BeginPrivate: 0
EndPrivate
Grid
-1000 652 m 0
 2000 652 l 1024
-1000 -118 m 0
 2000 -118 l 1024
-1000 734 m 0
 2000 734 l 1024
-1000 822.174682617 m 0
 2000 822.174682617 l 1024
-1000 801 m 0
 2000 801 l 1024
-1000 62 m 0
 2000 62 l 1024
2000 766 m 1024
-1000 1143 m 0
 2000 1143 l 1024
665 1500 m 0
 665 -500 l 1024
149 1500 m 0
 149 -500 l 1024
-1000 499 m 0
 2000 499 l 1024
-1000 612 m 0
 2000 612 l 1024
EndSplineSet
AnchorClass2: "tm_Virama" "'abvm' Above Base Mark in Tamil lookup 0-1" "thn_ubufibi" "" 
BeginChars: 433 247

StartChar: uni0061
Encoding: 256 97 1
AltUni2: 0000aa.ffffffff.0
GlifName: uni0061
Width: 626
VWidth: 153
Flags: HMW
LayerCount: 3
Back
SplineSet
55 125 m 4
 55 226 125 296 280 331 c 4
 372 352 446 356 446 356 c 5
 446 273 l 5
 446 273 382 299 305 288 c 4
 228 277 183 218 181 160 c 4
 179 96 217 65 274 61 c 4
 347 56 414 118 420 159 c 5
 448 119 l 5
 448 119 388 -13 238 -13 c 4
 137 -13 55 32 55 125 c 4
95 539 m 5
 144 566 250 611 349 611 c 4
 485 611 529 575 532 443 c 4
 534 365 517 172 534 101 c 4
 543 63 563 44 605 49 c 5
 616 10 l 5
 595 2 540 -28 482 -10 c 4
 438 4 429 43 423 102 c 5
 413 116 l 5
 425 205 428 399 414 457 c 4
 393 546 332 561 287 553 c 4
 229 542 205 507 174 474 c 5
 230 557 l 5
 209 512 192 469 186 401 c 5
 98 392 l 5
 92 459 95 539 95 539 c 5
EndSplineSet
Fore
SplineSet
55 125 m 0
 55 226 125 296 280 331 c 0
 372 352 446 356 446 356 c 1
 446 273 l 1
 446 273 382 299 305 288 c 0
 228 277 183 218 181 160 c 0
 179 96 216.876403087 62.3764722148 274 61 c 0
 357 59 414 118 420 159 c 1
 448 119 l 1
 448 119 398 -13 218 -13 c 0
 127 -13 55 32 55 125 c 0
95 539 m 1
 144 566 250 611 349 611 c 0
 485 611 529 575 532 443 c 0
 534 365 517 172 534 101 c 0
 543 63 563 44 605 49 c 1
 616 10 l 1
 595 2 540 -28 482 -10 c 0
 438 4 429 50 423 109 c 1
 413 109 l 1
 425 198 428 399 414 457 c 0
 393 546 332 561 287 553 c 0
 229 542 205 507 174 474 c 1
 230 557 l 1
 209 512 192 469 186 401 c 1
 98 392 l 1
 92 459 95 539 95 539 c 1
EndSplineSet
Layer: 2
SplineSet
55 125 m 0
 55 226 125 296 280 331 c 0
 372 352 446 356 446 356 c 1
 446 273 l 1
 446 273 382 299 305 288 c 0
 228 277 183 218 181 160 c 0
 179 96 217 65 274 61 c 0
 347 56 414 118 420 159 c 1
 448 119 l 1
 448 119 388 -13 238 -13 c 0
 137 -13 55 32 55 125 c 0
95 539 m 1
 144 566 250 611 349 611 c 0
 485 611 529 575 532 443 c 0
 534 365 507 182 534 101 c 0
 546.349089035 63.9527328943 563 44 605 49 c 1
 616 10 l 1
 595 2 550 -22 492 -10 c 4
 446.784035271 -0.644972814716 419 43 413 102 c 1
 413 116 l 1
 435 205 438 389 424 447 c 0
 403 536 332 561 287 553 c 0
 229 542 205 507 174 474 c 1
 230 557 l 1
 209 512 192 469 186 401 c 1
 98 392 l 1
 92 459 95 539 95 539 c 1
EndSplineSet
Colour: ff0000
EndChar

StartChar: uni006E
Encoding: 257 110 2
GlifName: uni006E_
Width: 807
VWidth: 79
Flags: HMW
LayerCount: 3
Back
SplineSet
49 595 m 1
 64 594 80 594 97 594 c 0
 191 594 293 608 293 608 c 1
 293 608 276 496 270 470 c 1
 270 461 272 457 275 457 c 0
 282 457 293 478 293 478 c 1
 291 437 291 395 291 351 c 0
 291 327 291 304 291 279 c 0
 291 193 290 100 280 0 c 1
 165 0 l 1
 176 144 182 286 182 378 c 0
 182 414 181 442 179 459 c 0
 174 504 138 532 56 534 c 1
 49 595 l 1
52 62 m 1
 64 61 75 60 85 60 c 0
 140 60 171 81 174 130 c 1
 289 143 l 1
 289 139 289 135 289 132 c 0
 289 56 337 48 365 48 c 0
 368 48 371 48 373 48 c 1
 383 0 l 1
 60 0 l 1
 52 62 l 1
261 454 m 1
 310 522 420 612 527 612 c 0
 603 612 661 575 675 481 c 0
 678 459 679 418 679 373 c 0
 679 254 671 82 667 0 c 1
 544 0 l 1
 562 79 571 202 571 303 c 0
 571 347 569 387 565 417 c 0
 556 480 514 513 455 513 c 0
 354 513 286 417 286 417 c 1
 261 454 l 1
448 62 m 1
 452 62 470 59 484 59 c 0
 523 59 558 69 564 140 c 1
 673 139 l 1
 670 60 728 50 755 50 c 0
 758 50 760 50 762 50 c 1
 772 0 l 1
 458 0 l 1
 448 62 l 1
EndSplineSet
Fore
SplineSet
49 595 m 1
 64 594 80 594 97 594 c 0
 191 594 293 608 293 608 c 1
 293 608 276 496 270 470 c 1
 270 461 272 457 275 457 c 0
 282 457 293 478 293 478 c 1
 291 437 291 395 291 351 c 0
 291 327 291 304 291 279 c 0
 291 193 290 100 280 0 c 1
 165 0 l 1
 176 144 182 286 182 378 c 0
 182 414 181 442 179 459 c 0
 174 504 138 532 56 534 c 1
 49 595 l 1
52 62 m 1
 64 61 75 60 85 60 c 0
 140 60 171 81 174 130 c 1
 289 143 l 1
 289 139 289 135 289 132 c 0
 289 56 337 48 365 48 c 0
 368 48 371 48 373 48 c 1
 383 0 l 1
 60 0 l 1
 52 62 l 1
261 454 m 1
 310 522 420 612 527 612 c 0
 603 612 661 575 675 481 c 0
 678 459 679 418 679 373 c 0
 679 254 671 82 667 0 c 1
 544 0 l 1
 562 79 571 202 571 303 c 0
 571 347 569 387 565 417 c 0
 556 480 514 513 455 513 c 0
 354 513 286 417 286 417 c 1
 261 454 l 1
448 62 m 1
 452 62 470 59 484 59 c 0
 523 59 558 69 564 140 c 1
 673 139 l 1
 670 60 728 50 755 50 c 0
 758 50 760 50 762 50 c 1
 772 0 l 1
 458 0 l 1
 448 62 l 1
EndSplineSet
Layer: 2
SplineSet
44 595 m 1
 59 594 75 594 92 594 c 0
 186 594 293 608 293 608 c 1
 293 608 276 496 270 470 c 1
 270 461 272 457 275 457 c 0
 282 457 293 478 293 478 c 1
 291 437 281 395 281 351 c 0
 281 327 281 304 281 279 c 0
 281 193 290 100 300 0 c 1
 160 0 l 1
 171 144 184 226 184 318 c 0
 184 443.881835938 188.056640625 530.657226562 51 534 c 1
 44 595 l 1
47 62 m 1
 59 61 70 60 80 60 c 0
 135 60 167 81 170 130 c 1
 288 143 l 1
 288 139 288 135 288 132 c 0
 288 56 337 48 365 48 c 0
 368 48 371 48 373 48 c 1
 383 0 l 1
 55 0 l 1
 47 62 l 1
261 454 m 1
 310 522 420 612 527 612 c 0
 603 612 655 582 669 488 c 0
 672 466 674 408 674 363 c 0
 674 244 673 82 669 0 c 1
 543 0 l 5
 561 79 580 202 580 303 c 4
 580 347 578 387 574 417 c 4
 565 480 514 513 455 513 c 0
 354 513 286 417 286 417 c 1
 261 454 l 1
447 62 m 5
 451 62 469 59 483 59 c 4
 522 59 561 69 567 140 c 5
 673 139 l 1
 670 60 730 50 757 50 c 0
 760 50 762 50 764 50 c 1
 774 0 l 1
 457 0 l 5
 447 62 l 5
EndSplineSet
EndChar

StartChar: uni0064
Encoding: 258 100 3
GlifName: uni0064
Width: 769
VWidth: 79
Flags: HMW
LayerCount: 3
Back
SplineSet
56 225 m 4
 55 367 135.280334302 545.570083575 334 596 c 4
 409.932090807 615.269602633 494 604 534 589 c 5
 494 501 l 5
 494 501 415.563053281 559.984122102 332 539 c 4
 250.362242407 518.49935281 192 414 190 264 c 4
 189 161 223 76 302 68 c 4
 383 60 459 127 480 181 c 5
 511 140 l 5
 479 66 393 -13 280 -13 c 4
 135 -13 57 64 56 225 c 4
355 830 m 5
 438 828 609 850 609 850 c 5
 577 682 587 219 591 162 c 4
 597 80 625 45 703 57 c 5
 716 13 l 5
 664 -13 608 -27 550 -15 c 4
 497 -4 484 67 484 99 c 4
 484 109 475 130 475 142 c 4
 489 246 483 583 477 707 c 4
 475 754 432 767 360 766 c 5
 355 830 l 5
EndSplineSet
Fore
SplineSet
56 225 m 4
 55 367 135.280334302 545.570083575 334 596 c 4
 409.932090807 615.269602633 494 604 534 589 c 5
 494 501 l 5
 494 501 415.563053281 559.984122102 332 539 c 4
 250.362242407 518.49935281 192 414 190 264 c 4
 189 161 223 76 302 68 c 4
 383 60 459 127 480 181 c 5
 511 140 l 5
 479 66 393 -13 280 -13 c 4
 135 -13 57 64 56 225 c 4
355 830 m 5
 438 828 609 850 609 850 c 5
 577 682 587 219 591 162 c 4
 597 80 625 45 703 57 c 5
 716 13 l 5
 664 -13 608 -27 550 -15 c 4
 497 -4 484 67 484 99 c 4
 484 109 475 130 475 142 c 4
 489 246 483 583 477 707 c 4
 475 754 432 767 360 766 c 5
 355 830 l 5
EndSplineSet
Layer: 2
SplineSet
56 225 m 4
 55 367 135.280273438 535.5703125 334 586 c 4
 409.931640625 605.26953125 494 604 534 589 c 5
 494 481 l 5
 494 481 425.563476562 544.984375 332 534 c 4
 248.401676805 524.185536439 181 434 179 284 c 4
 178 181 212.200332381 73.4828614212 302 73 c 4
 412.511367226 72.4057697846 459 187 480 241 c 5
 511 200 l 5
 479 126 433 -3 280 -13 c 4
 135.308721181 -22.456946328 57 64 56 225 c 4
355 830 m 1
 438 828 609 850 609 850 c 1
 567 672 573.985351562 240.2734375 581 182 c 0
 590.611328125 102.154296875 625 51 703 63 c 1
 716 19 l 1
 664 -7 608 -31 550 -9 c 0
 499.388671875 10.197265625 484 127 484 159 c 0
 484 169 473.59765625 190.08203125 475 202 c 0
 499 406 494 483 480 687 c 0
 476.779296875 733.931640625 432 767 360 766 c 1
 355 830 l 1
EndSplineSet
EndChar

StartChar: uni0068
Encoding: 259 104 4
GlifName: uni0068
Width: 806
VWidth: 79
Flags: HMW
LayerCount: 3
Back
SplineSet
45 61 m 1
 121 57 154 89 161 137 c 1
 279 146 l 1
 277 51 353 50 371 51 c 1
 381 0 l 1
 55 0 l 1
 45 61 l 1
46 829 m 1
 129 827 303 850 303 850 c 1
 278 637 275 208 279 145 c 0
 282 101 261 49 343 49 c 1
 327 1 l 1
 133 0 l 1
 133 0 152 72 160 136 c 0
 170 271 171 529 166 719 c 0
 161 763 131 766 53 766 c 1
 46 829 l 1
240 448 m 1
 288 519 410 604 504 611 c 0
 594 617 654 578 669 477 c 0
 680 399 666 113 661 0 c 1
 534 0 l 1
 551 79 561 202 561 303 c 0
 561 347 559 387 555 417 c 0
 544 493 490 526 411 509 c 0
 330 492 265 417 265 417 c 1
 240 448 l 1
440 58 m 1
 444 58 446 58 449 58 c 0
 518 58 549 94 553 140 c 1
 667 139 l 1
 664 49 737 49 756 50 c 1
 766 0 l 1
 448 0 l 1
 440 58 l 1
EndSplineSet
Fore
SplineSet
45 61 m 1
 121 57 154 89 161 137 c 1
 279 146 l 1
 277 51 353 50 371 51 c 1
 381 0 l 1
 55 0 l 1
 45 61 l 1
46 829 m 1
 129 827 303 850 303 850 c 1
 278 637 275 208 279 145 c 0
 282 101 261 49 343 49 c 1
 327 1 l 1
 133 0 l 1
 133 0 152 72 160 136 c 0
 170 271 171 529 166 719 c 0
 161 763 131 766 53 766 c 1
 46 829 l 1
240 448 m 1
 288 519 410 604 504 611 c 0
 594 617 654 578 669 477 c 0
 680 399 666 113 661 0 c 1
 534 0 l 1
 551 79 561 202 561 303 c 0
 561 347 559 387 555 417 c 0
 544 493 490 526 411 509 c 0
 330 492 265 417 265 417 c 1
 240 448 l 1
440 58 m 1
 444 58 446 58 449 58 c 0
 518 58 549 94 553 140 c 1
 667 139 l 1
 664 49 737 49 756 50 c 1
 766 0 l 1
 448 0 l 1
 440 58 l 1
EndSplineSet
Layer: 2
SplineSet
36 61 m 1
 114.303710938 56.87890625 146.954101562 90.62109375 153 142 c 0
 177 346 172 483 158 687 c 0
 154.779296875 733.931640625 110 767 38 766 c 1
 33 830 l 1
 116 828 294 850 294 850 c 1
 252 672 265.985351562 230.2734375 273 172 c 0
 283.4140625 85.484375 320.295898438 48.2939453125 369 51 c 1
 379 0 l 1
 46 0 l 1
 36 61 l 1
241 454 m 1
 290 522 400 612 507 612 c 0
 583 612 639 582 653 488 c 4
 656 466 658 408 658 363 c 4
 658 244 657 82 653 0 c 5
 524 0 l 1
 542 79 561 202 561 303 c 0
 561 347 559 387 555 417 c 0
 546 480 494 513 435 513 c 0
 334 513 266 417 266 417 c 1
 241 454 l 1
428 62 m 1
 432 62 450 59 464 59 c 0
 503 59 542 69 548 140 c 1
 657 139 l 5
 654 60 714 50 741 50 c 4
 744 50 746 50 748 50 c 5
 758 0 l 5
 438 0 l 1
 428 62 l 1
EndSplineSet
EndChar

StartChar: uni0065
Encoding: 260 101 5
GlifName: uni0065
Width: 593
VWidth: 153
Flags: HMW
LayerCount: 3
Back
SplineSet
41 240 m 4
 28 479 171 599 298 609 c 4
 466 623 571 527 553 298 c 5
 151 296 l 5
 121 344 l 5
 378 367 l 5
 438 368 l 5
 428 507 353 565 294 559 c 4
 201 550 160 462 163 329 c 4
 165 228 186 78 324 53 c 4
 427 34 517 102 519 102 c 5
 543 68 l 5
 524 51 449 -19 322 -21 c 4
 195 -23 52 36 41 240 c 4
EndSplineSet
Fore
SplineSet
41 240 m 4
 28 479 171 599 298 609 c 4
 466 623 571 527 553 298 c 5
 151 296 l 5
 121 344 l 5
 378 367 l 5
 438 368 l 5
 428 507 353 565 294 559 c 4
 201 550 160 462 163 329 c 4
 165 228 186 78 324 53 c 4
 427 34 517 102 519 102 c 5
 543 68 l 5
 524 51 449 -19 322 -21 c 4
 195 -23 52 36 41 240 c 4
EndSplineSet
Layer: 2
SplineSet
41 240 m 0
 28 479 170.970126129 599.386928464 298 609 c 4
 483 623 571 527 553 298 c 1
 151 296 l 1
 121 344 l 1
 378 367 l 1
 438 368 l 1
 428 507 343.079193256 554.162259605 284 549 c 4
 181 540 150 452 153 319 c 4
 155 218 196.325195312 79.7333984375 334 53 c 0
 437 33 527 102 529 102 c 1
 553 68 l 1
 534 51 449 -19 322 -21 c 0
 195 -23 52 36 41 240 c 0
EndSplineSet
EndChar

StartChar: uni0069
Encoding: 261 105 6
GlifName: uni0069
Width: 413
VWidth: 79
Flags: HMW
LayerCount: 3
Back
SplineSet
49 584 m 1
 132 582 289 595 289 595 c 1
 279 540 278 87 269 0 c 1
 159 0 l 1
 174 200 175 386 168 448 c 0
 163 493 127 523 55 523 c 1
 49 584 l 1
50 61 m 1
 116 57 164 79 168 137 c 1
 275 142 l 1
 273 47 335 53 363 54 c 1
 373 0 l 1
 57 0 l 1
 50 61 l 1
143 782 m 0
 143 824 177 852 218 852 c 0
 268 852 293 813 293 771 c 0
 293 729 259 701 218 701 c 0
 177 701 143 740 143 782 c 0
EndSplineSet
Fore
SplineSet
49 584 m 1
 132 582 289 595 289 595 c 1
 279 540 278 87 269 0 c 1
 159 0 l 1
 174 200 175 386 168 448 c 0
 163 493 127 523 55 523 c 1
 49 584 l 1
50 61 m 1
 116 57 164 79 168 137 c 1
 275 142 l 1
 273 47 335 53 363 54 c 1
 373 0 l 1
 57 0 l 1
 50 61 l 1
143 782 m 0
 143 824 177 852 218 852 c 0
 268 852 293 813 293 771 c 0
 293 729 259 701 218 701 c 0
 177 701 143 740 143 782 c 0
EndSplineSet
Layer: 2
SplineSet
41 585 m 1
 56 584 72 584 89 584 c 0
 183 584 285 598 285 598 c 1
 269.719726562 358.366210938 268.760747776 232.392522244 292 0 c 1
 157 0 l 1
 168 144 182 226 182 318 c 0
 182 443.881835938 185.056640625 520.657226562 48 524 c 1
 41 585 l 1
53 62 m 5
 65 61 76 60 86 60 c 4
 141 60 166 81 169 130 c 1
 279 143 l 1
 279 139 278.608636462 134.974362887 279 132 c 0
 289 56 339 48 367 48 c 0
 370 48 373 48 375 48 c 1
 385 0 l 1
 61 0 l 5
 53 62 l 5
143 782 m 0
 143 824 177 852 218 852 c 0
 268 852 293 813 293 771 c 0
 293 729 259 701 218 701 c 0
 177 701 143 740 143 782 c 0
EndSplineSet
EndChar

StartChar: uni0073
Encoding: 262 115 7
GlifName: uni0073
Width: 531
VWidth: 153
Flags: HMW
LayerCount: 3
Back
SplineSet
49 7 m 5
 45 42 47 105 56 165 c 5
 139 156 l 5
 142 109 151 65 175 30 c 5
 134 41 122 85 115 128 c 5
 147 94 167 37 253 36 c 4
 313 35 355 82 363 126 c 0
 386 260 98 249 74 412 c 0
 58 516 145 609 302 606 c 0
 396 604 458 580 458 580 c 1
 462 542 460 471 455 437 c 1
 375 445 l 1
 374 482 359 543 338 591 c 2
 393 462 l 1
 379 478 358 554 274 555 c 0
 218 555 174 512 184 466 c 0
 209 351 460 349 476 184 c 0
 487 71 389 -25 245 -25 c 4
 132 -25 49 7 49 7 c 5
EndSplineSet
Fore
SplineSet
49 7 m 5
 45 42 47 105 56 165 c 5
 139 156 l 5
 142 109 151 65 175 30 c 5
 134 41 122 85 115 128 c 5
 147 94 167 37 253 36 c 4
 313 35 355 82 363 126 c 0
 386 260 98 249 74 412 c 0
 58 516 145 609 302 606 c 0
 396 604 458 580 458 580 c 1
 462 542 460 471 455 437 c 1
 375 445 l 1
 374 482 359 543 338 591 c 2
 393 462 l 1
 379 478 358 554 274 555 c 0
 218 555 174 512 184 466 c 0
 209 351 460 349 476 184 c 0
 487 71 389 -25 245 -25 c 4
 132 -25 49 7 49 7 c 5
EndSplineSet
Layer: 2
SplineSet
49 7 m 1
 45 42 47 105 56 165 c 1
 139 156 l 1
 142 109 151 65 175 30 c 1
 134 41 122 95 115 138 c 5
 147 104 187 37 273 36 c 0
 333 35 368.681640625 81.4873046875 373 126 c 0
 386 260 98 249 74 412 c 0
 58 516 145 609 302 606 c 0
 396 604 458 580 458 580 c 1
 462 542 460 471 455 437 c 1
 375 435 l 1
 374 472 359 533 338 581 c 2
 393 473 l 1
 379 489 328 544 244 545 c 0
 188 545 164 512 164 466 c 0
 164 348.313977041 460 349 476 184 c 0
 487 71 389 -25 245 -25 c 0
 132 -25 49 7 49 7 c 1
EndSplineSet
EndChar

StartChar: uni006F
Encoding: 263 111 8
AltUni2: 0000ba.ffffffff.0
GlifName: o
Width: 662
VWidth: 153
Flags: HMW
LayerCount: 3
Back
SplineSet
44 246 m 4
 45 90 121 -15 299 -18 c 4
 522 -22 611 148 616 324 c 4
 622 531 516 614 362 615 c 4
 179 616 42 466 44 246 c 4
171 318 m 4
 176 505 267 552 313 556 c 4
 424 566 503 455 498 298 c 4
 494 168 441 55 344 44 c 4
 230 31 166 156 171 318 c 4
EndSplineSet
Fore
SplineSet
44 246 m 4
 45 90 121 -15 299 -18 c 4
 522 -22 611 148 616 324 c 4
 622 531 516 614 362 615 c 4
 179 616 42 466 44 246 c 4
171 318 m 4
 176 505 267 552 313 556 c 4
 424 566 503 455 498 298 c 4
 494 168 441 55 344 44 c 4
 230 31 166 156 171 318 c 4
EndSplineSet
Layer: 2
SplineSet
44 246 m 0
 45 90 121 -15 299 -18 c 0
 522 -22 611 148 616 324 c 0
 622 531 516 614 362 615 c 0
 179 616 42 466 44 246 c 0
161 298 m 4
 166 466 237 532 293 546 c 0
 401.122070312 573.030273438 503 476 508 308 c 0
 511.86916547 177.99604022 463 60 366 49 c 0
 252 36 156.178410471 135.994591836 161 298 c 4
EndSplineSet
EndChar

StartChar: uni0062
Encoding: 264 98 9
GlifName: b
Width: 692
VWidth: 79
Flags: HMW
LayerCount: 3
Back
SplineSet
-7 830 m 1
 76 828 247 850 247 850 c 1
 215 682 225 219 229 162 c 0
 235 80 223 35 301 47 c 1
 314 3 l 1
 113 22 l 1
 126 127 133 572 115 707 c 0
 109 754 70 767 -2 766 c 1
 -7 830 l 1
113 22 m 1
 185 152 l 1
 185 152 250 31 367 52 c 0
 449 67 518 166 519 349 c 0
 520 486 448 535 386 534 c 0
 329 533 259 488 223 404 c 1
 189 445 l 1
 237 558 342 613 427 613 c 0
 572 613 649 515 643 344 c 0
 637 172 554 -10 324 -12 c 0
 226 -13 156 5 113 22 c 1
EndSplineSet
Fore
SplineSet
-7 830 m 1
 76 828 247 850 247 850 c 1
 215 682 225 219 229 162 c 0
 235 80 223 35 301 47 c 1
 314 3 l 1
 113 22 l 1
 126 127 133 572 115 707 c 0
 109 754 70 767 -2 766 c 1
 -7 830 l 1
113 22 m 1
 185 152 l 1
 185 152 250 31 367 52 c 0
 449 67 518 166 519 349 c 0
 520 486 448 535 386 534 c 0
 329 533 259 488 223 404 c 1
 189 445 l 1
 237 558 342 613 427 613 c 0
 572 613 649 515 643 344 c 0
 637 172 554 -10 324 -12 c 0
 226 -13 156 5 113 22 c 1
EndSplineSet
Layer: 2
SplineSet
123 687 m 0
 119.779296875 733.931640625 75 767 3 766 c 1
 -2 830 l 1
 81 828 252 850 252 850 c 1
 210 672 213.985351562 290.2734375 231 82 c 0
 238.095173307 -4.85081797333 228.295898438 48.2939453125 277 51 c 1
 357 0 l 1
 111 21 l 1
 134.463485891 198.820793185 138.702189864 458.19666198 123 687 c 0
113 22 m 5
 185 152 l 5
 185 152 270.483398438 38.1171875 388 56 c 4
 480 70 538 176 539 339 c 4
 539.840820312 476.000976562 458 545 366 524 c 4
 310.42032844 511.31333584 255 458 219 374 c 5
 189 415 l 5
 237 548 352 610 437 613 c 4
 581.909772868 618.114462572 649 515 643 344 c 4
 637 172 554 -10 324 -12 c 4
 226 -13 156 5 113 22 c 5
EndSplineSet
EndChar

StartChar: uni0072
Encoding: 265 114 10
GlifName: r
Width: 594
VWidth: 79
Flags: HMW
LayerCount: 3
Back
SplineSet
49 595 m 1
 64 594 80 594 97 594 c 0
 191 594 293 608 293 608 c 1
 293 608 276 486 270 460 c 1
 293 468 l 1
 290 402 286 349 286 279 c 0
 286 193 287 100 300 0 c 1
 165 0 l 1
 176 144 182 286 182 378 c 0
 182 414 181 442 179 459 c 0
 174 504 138 532 56 534 c 1
 49 595 l 1
52 63 m 1
 64 62 75 61 85 61 c 0
 140 61 171 82 174 131 c 1
 288 150 l 1
 288 146 288 142 288 139 c 0
 288 63 357 49 405 49 c 0
 408 49 411 49 413 49 c 1
 423 1 l 1
 60 1 l 1
 52 63 l 1
215 350 m 5
 224 454 352 563 470 601 c 0
 528 620 573 609 573 609 c 1
 575 571 565 461 558 416 c 1
 498 422 l 1
 477 465 448 504 399 538 c 1
 520 475 l 1
 520 475 456 504 384 483 c 0
 318 464 261 416 259 295 c 1
 215 350 l 5
461 429 m 1049
EndSplineSet
Fore
SplineSet
49 595 m 1
 64 594 80 594 97 594 c 0
 191 594 293 608 293 608 c 1
 293 608 276 486 270 460 c 1
 293 468 l 1
 290 402 286 349 286 279 c 0
 286 193 287 100 300 0 c 1
 165 0 l 1
 176 144 182 286 182 378 c 0
 182 414 181 442 179 459 c 0
 174 504 138 532 56 534 c 1
 49 595 l 1
52 63 m 1
 64 62 75 61 85 61 c 0
 140 61 171 82 174 131 c 1
 288 150 l 1
 288 146 288 142 288 139 c 0
 288 63 357 49 405 49 c 0
 408 49 411 49 413 49 c 1
 423 1 l 1
 60 1 l 1
 52 63 l 1
215 350 m 5
 224 454 352 563 470 601 c 0
 528 620 573 609 573 609 c 1
 575 571 565 461 558 416 c 1
 498 422 l 1
 477 465 448 504 399 538 c 1
 520 475 l 1
 520 475 456 504 384 483 c 0
 318 464 261 416 259 295 c 1
 215 350 l 5
461 429 m 1049
EndSplineSet
Layer: 2
SplineSet
49 595 m 1
 64 594 80 594 97 594 c 0
 191 594 293 608 293 608 c 1
 293 608 276 486 270 460 c 1
 293 468 l 1
 290 402 280 349 280 279 c 0
 280 193 291 100 304 0 c 1
 165 0 l 1
 176 144 191 206 191 328 c 0
 191 455.258495323 194.318280091 530.626383412 56 534 c 1
 49 595 l 1
52 63 m 1
 64 62 75 61 85 61 c 0
 140 61 174 82 177 131 c 1
 288 150 l 1
 288 146 288 142 288 139 c 0
 288 63 357 49 405 49 c 0
 408 49 411 49 413 49 c 1
 423 1 l 1
 60 1 l 1
 52 63 l 1
215 350 m 1
 224 454 352 563 470 601 c 0
 528 620 573 609 573 609 c 1
 575 571 565 461 558 416 c 1
 498 422 l 1
 477 465 448 504 399 538 c 1
 520 475 l 1
 520 475 456 504 384 483 c 0
 318 464 261 416 259 295 c 1
 215 350 l 1
461 429 m 1049
EndSplineSet
Colour: ff0000
EndChar

StartChar: uni002E
Encoding: 266 46 11
GlifName: period
Width: 277
VWidth: 79
Flags: HMW
LayerCount: 3
Back
SplineSet
65.568359375 51.4892578125 m 0
 65.568359375 103.21875 106.767578125 136.37890625 157.268554688 136.37890625 c 0
 218.404296875 136.37890625 248.969726562 93.9345703125 248.969726562 42.2060546875 c 0
 248.969726562 -9.5224609375 207.772460938 -44.009765625 157.268554688 -44.009765625 c 0
 106.767578125 -44.009765625 65.568359375 -0.23828125 65.568359375 51.4892578125 c 0
EndSplineSet
Fore
SplineSet
65.568359375 51.4892578125 m 0
 65.568359375 103.21875 106.767578125 136.37890625 157.268554688 136.37890625 c 0
 218.404296875 136.37890625 248.969726562 93.9345703125 248.969726562 42.2060546875 c 0
 248.969726562 -9.5224609375 207.772460938 -44.009765625 157.268554688 -44.009765625 c 0
 106.767578125 -44.009765625 65.568359375 -0.23828125 65.568359375 51.4892578125 c 0
EndSplineSet
Layer: 2
SplineSet
65.568359375 51.4892578125 m 0
 65.568359375 103.21875 106.767578125 136.37890625 157.268554688 136.37890625 c 0
 218.404296875 136.37890625 248.969726562 93.9345703125 248.969726562 42.2060546875 c 0
 248.969726562 -9.5224609375 207.772460938 -44.009765625 157.268554688 -44.009765625 c 0
 106.767578125 -44.009765625 65.568359375 -0.23828125 65.568359375 51.4892578125 c 0
EndSplineSet
EndChar

StartChar: uni0074
Encoding: 267 116 12
GlifName: t
Width: 475
VWidth: 79
Flags: HMW
LayerCount: 3
Back
SplineSet
20 584 m 1
 54 586 118 583 140 584 c 1
 140 584 139 678 141 767 c 1
 256 792 l 1
 237 563 229 200 260 132 c 0
 289 70 357 54 425 95 c 1
 451 60 l 1
 430 36 359 -12 278 -13 c 0
 194 -14 127 42 131 140 c 0
 133 193 139 340 133 498 c 1
 133 498 103 517 35 517 c 1
 20 584 l 1
142 584 m 1
 164 585 177 583 202 584 c 1
 397 584 l 1
 409 520 l 1
 232 505 l 1
 207 506 184 465 156 485 c 1
 142 584 l 1
EndSplineSet
Fore
SplineSet
20 584 m 1
 54 586 118 583 140 584 c 1
 140 584 139 678 141 767 c 1
 256 792 l 1
 237 563 229 200 260 132 c 0
 289 70 357 54 425 95 c 1
 451 60 l 1
 430 36 359 -12 278 -13 c 0
 194 -14 127 42 131 140 c 0
 133 193 139 340 133 498 c 1
 133 498 103 517 35 517 c 1
 20 584 l 1
142 584 m 1
 164 585 176.980007994 584 202 584 c 2
 397 584 l 1
 409 520 l 1
 232 505 l 1
 207 506 184 465 156 485 c 1
 142 584 l 1
EndSplineSet
Layer: 2
SplineSet
10 584 m 5
 44 586 108 583 130 584 c 5
 130 584 135 678 137 767 c 5
 246 792 l 5
 244.51953125 533.103515625 141.453178763 -39.9326422166 425 95 c 1
 451 60 l 1
 430 36 359 -12 278 -13 c 0
 194 -14 117 42 121 140 c 4
 123 193 134 340 127 498 c 5
 127 498 93 517 25 517 c 5
 10 584 l 5
132 584 m 1
 154 585 177 583 202 584 c 1
 397 584 l 1
 409 520 l 1
 232 505 l 1
 207 506 174 465 146 485 c 1
 132 584 l 1
EndSplineSet
EndChar

StartChar: uni0070
Encoding: 268 112 13
GlifName: p
Width: 761
VWidth: 79
Flags: HMW
LayerCount: 3
Back
SplineSet
40 595 m 1
 55 594 71 594 88 594 c 0
 182 594 284 608 284 608 c 1
 284 608 267 506 261 480 c 1
 284 488 l 1
 281 422 277 349 277 279 c 0
 277 193 278 -117 291 -217 c 1
 156 -217 l 1
 167 -73 173 286 173 378 c 0
 173 414 172 442 170 459 c 0
 165 504 130 536 47 534 c 1
 40 595 l 1
43 -156 m 1
 55 -157 66 -158 76 -158 c 0
 131 -158 160 -150 163 -101 c 5
 282 -82 l 5
 282 -86 282 -90 282 -93 c 4
 282 -169 341 -170 389 -170 c 0
 392 -170 395 -170 397 -170 c 1
 407 -218 l 1
 51 -218 l 1
 43 -156 l 1
227 12 m 1
 267 100 l 1
 267 100 338 43 429 62 c 0
 517 80 576 181 578 331 c 0
 579 434 548 524 459 533 c 0
 378 541 302 474 281 420 c 1
 250 461 l 1
 282 535 378 614 491 614 c 0
 635 614 711 531 712 370 c 0
 713 228 630 50 427 5 c 0
 349 -12 267 -3 227 12 c 1
EndSplineSet
Fore
SplineSet
40 595 m 1
 55 594 71 594 88 594 c 0
 182 594 284 608 284 608 c 1
 284 608 267 506 261 480 c 1
 284 488 l 1
 281 422 277 349 277 279 c 0
 277 193 278 -117 291 -217 c 1
 156 -217 l 1
 167 -73 173 286 173 378 c 0
 173 414 172 442 170 459 c 0
 165 504 130 536 47 534 c 1
 40 595 l 1
43 -156 m 1
 55 -157 66 -158 76 -158 c 0
 131 -158 160 -150 163 -101 c 5
 282 -82 l 5
 282 -86 282 -90 282 -93 c 4
 282 -169 341 -170 389 -170 c 0
 392 -170 395 -170 397 -170 c 1
 407 -218 l 1
 51 -218 l 1
 43 -156 l 1
227 12 m 1
 267 100 l 1
 267 100 338 43 429 62 c 0
 517 80 576 181 578 331 c 0
 579 434 548 524 459 533 c 0
 378 541 302 474 281 420 c 1
 250 461 l 1
 282 535 378 614 491 614 c 0
 635 614 711 531 712 370 c 0
 713 228 630 50 427 5 c 0
 349 -12 267 -3 227 12 c 1
EndSplineSet
Layer: 2
SplineSet
30 595 m 1
 45 594 61 594 78 594 c 0
 172 594 284 608 284 608 c 1
 284 608 267 506 261 480 c 1
 284 488 l 1
 281 422 273 309 273 239 c 0
 273 153 278 -117 291 -217 c 1
 146 -217 l 1
 157 -73 173 166 173 258 c 0
 173 448.081054688 174.337890625 537.791015625 37 534 c 1
 30 595 l 1
33 -156 m 1
 45 -157 56 -158 66 -158 c 0
 121 -158 150 -150 153 -101 c 1
 282 -82 l 1
 282 -86 282 -90 282 -93 c 0
 282 -169 341 -170 389 -170 c 0
 392 -170 395 -170 397 -170 c 1
 407 -218 l 1
 41 -218 l 1
 33 -156 l 1
173 32 m 5
 245 162 l 5
 245 162 320.483398438 38.1171875 438 56 c 0
 530 70 588 176 589 339 c 0
 589.840820312 476.000976562 508 545 416 524 c 0
 360.419921875 511.313476562 305 458 269 374 c 1
 239 415 l 1
 287 548 402 610 487 613 c 0
 631.91015625 618.114257812 699 515 693 344 c 0
 687 172 604 -10 374 -12 c 0
 276 -13 216 15 173 32 c 5
EndSplineSet
EndChar

StartChar: uni0076
Encoding: 269 118 14
GlifName: v
Width: 641
VWidth: 79
Flags: HMW
LayerCount: 3
Back
SplineSet
660 538 m 1
 590.022460938 535.735351562 582.594321118 496.991141736 564.810546875 455.861328125 c 4
 487.965836871 278.137041014 404.959960938 87.9033203125 367.661132812 7.6162109375 c 9
 243.399414062 -25.650390625 l 1
 204.270507812 85.927734375 171.459960938 225.581054688 91.4970703125 462.43359375 c 1
 72.3037109375 526.984375 56.650390625 532.875976562 0 532 c 1
 -14 596 l 1
 100 590.78125 184 592.904296875 298 596 c 5
 312 542 l 5
 236 536 193 525 208 460 c 1
 207.7265625 459.962890625 l 1
 235.463867188 361.939453125 276.78125 242.842773438 301.678710938 148 c 1
 304.244140625 125.912109375 323 57 320.991210938 63 c 1
 350.858398438 134.987304688 426.057617188 302.979492188 489.733398438 468.791992188 c 1
 507.560546875 526.806640625 455.559570312 535.975585938 388 533 c 1
 379 596 l 1
 475.666992188 590.463867188 552.333007812 592.002929688 649 596 c 1
 660 538 l 1
EndSplineSet
Fore
SplineSet
-14 596 m 1
 100 590.78125 184 592.904296875 298 596 c 5
 312 542 l 5
 236 536 193 525 208 460 c 1
 207.7265625 459.962890625 l 1
 235.463867188 361.939453125 279.292398663 243.315762497 301.678710938 148 c 0
 306.755289288 126.385098434 320.991210938 63 320.991210938 63 c 1
 350.858398438 134.987304688 428.987280837 301.968169616 489.733398438 468.791992188 c 0
 510.490210524 525.795318053 455.559570312 535.975585938 388 533 c 1
 379 596 l 1
 475.666992188 590.463867188 552.333007812 592.002929688 649 596 c 1
 660 538 l 1
 590.022460938 535.735351562 582.594321118 496.991141736 564.810546875 455.861328125 c 4
 487.965836871 278.137041014 404.959960938 87.9033203125 367.661132812 7.6162109375 c 9
 243.399414062 -25.650390625 l 1
 204.270507812 85.927734375 169.610382335 224.994081826 91.4970703125 462.43359375 c 0
 70.454132335 526.397402138 56.650390625 532.875976562 0 532 c 1
 -14 596 l 1
EndSplineSet
Layer: 2
SplineSet
660 538 m 1
 590.022460938 535.735351562 582.594321118 496.991141736 564.810546875 455.861328125 c 0
 487.965836871 278.137041014 404.959960938 87.9033203125 367.661132812 7.6162109375 c 9
 253.399414062 -25.650390625 l 1
 214.270507812 85.927734375 181.459960938 205.581054688 101.497070312 442.43359375 c 5
 82.3037109375 506.984375 56.650390625 532.875976562 0 532 c 1
 -14 596 l 1
 100 590.78125 184 592.904296875 298 596 c 1
 312 542 l 1
 236 536 197 525 212 460 c 1
 211.7265625 459.962890625 l 1
 229.463867188 361.939453125 262.78125 251.842773438 291.678710938 147 c 1
 294.244140625 124.912109375 313 56 310.991210938 62 c 1
 340.858398438 133.987304688 426.057617188 302.979492188 489.733398438 468.791992188 c 1
 507.560546875 526.806640625 455.559570312 535.975585938 388 533 c 1
 379 596 l 1
 475.666992188 590.463867188 552.333007812 592.002929688 649 596 c 1
 660 538 l 1
EndSplineSet
EndChar

StartChar: uni006D
Encoding: 270 109 15
GlifName: m
Width: 1160
VWidth: 79
Flags: HMW
LayerCount: 3
Back
SplineSet
49 596 m 1
 153 592 283 608 283 608 c 1
 283 608 266 496 260 470 c 1
 260 437 283 478 283 478 c 1
 277 338 288 181 270 0 c 1
 155 0 l 1
 170 200 176 397 169 459 c 0
 164 504 138 526 56 528 c 1
 49 596 l 1
52 62 m 1
 128 63 160 72 164 130 c 1
 279 143 l 1
 274 48 337 47 363 48 c 1
 373 0 l 1
 60 0 l 1
 52 62 l 1
221 454 m 1
 259 515 385 605 489 611 c 0
 588 617 637 578 652 477 c 0
 663 399 651 113 646 0 c 1
 519 0 l 1
 543 114 550 319 540 417 c 0
 532 493 478 530 396 513 c 0
 315 497 246 417 246 417 c 1
 221 454 l 1
443 58 m 1
 519 54 534 92 538 140 c 1
 651 139 l 1
 648 49 712 49 731 50 c 1
 741 0 l 1
 453 0 l 1
 443 58 l 1
611 454 m 1
 649 515 771 605 875 611 c 0
 974 617 1023 578 1038 477 c 0
 1049 399 1037 113 1032 0 c 1
 905 0 l 1
 929 114 936 319 926 417 c 0
 918 493 864 530 782 513 c 0
 701 497 636 417 636 417 c 1
 611 454 l 1
819 58 m 1
 895 54 920 92 924 140 c 1
 1037 139 l 1
 1034 49 1108 49 1127 50 c 1
 1137 0 l 1
 829 0 l 1
 819 58 l 1
EndSplineSet
Fore
SplineSet
49 596 m 1
 153 592 283 608 283 608 c 1
 283 608 266 496 260 470 c 1
 260 437 283 478 283 478 c 1
 277 338 288 181 270 0 c 1
 155 0 l 1
 170 200 176 397 169 459 c 0
 164 504 138 526 56 528 c 1
 49 596 l 1
52 62 m 1
 128 63 160 72 164 130 c 1
 279 143 l 1
 274 48 337 47 363 48 c 1
 373 0 l 1
 60 0 l 1
 52 62 l 1
221 454 m 1
 259 515 385 605 489 611 c 0
 588 617 637 578 652 477 c 0
 663 399 651 113 646 0 c 1
 519 0 l 1
 543 114 550 319 540 417 c 0
 532 493 478 530 396 513 c 0
 315 497 246 417 246 417 c 1
 221 454 l 1
443 58 m 1
 519 54 534 92 538 140 c 1
 651 139 l 1
 648 49 712 49 731 50 c 1
 741 0 l 1
 453 0 l 1
 443 58 l 1
611 454 m 1
 649 515 771 605 875 611 c 0
 974 617 1023 578 1038 477 c 0
 1049 399 1037 113 1032 0 c 1
 905 0 l 1
 929 114 936 319 926 417 c 0
 918 493 864 530 782 513 c 0
 701 497 636 417 636 417 c 1
 611 454 l 1
819 58 m 1
 895 54 920 92 924 140 c 1
 1037 139 l 1
 1034 49 1108 49 1127 50 c 1
 1137 0 l 1
 829 0 l 1
 819 58 l 1
EndSplineSet
Layer: 2
SplineSet
49 595 m 1
 64 594 80 594 97 594 c 0
 191 594 293 608 293 608 c 1
 293 608 276 496 270 470 c 1
 270 461 272 457 275 457 c 0
 282 457 293 478 293 478 c 1
 291 437 281 395 281 351 c 0
 281 327 281 304 281 279 c 0
 281 193 290 100 300 0 c 1
 165 0 l 1
 176 144 189 226 189 318 c 0
 189 443.881835938 193.056691327 530.65715387 56 534 c 1
 49 595 l 1
52 62 m 1
 64 61 75 60 85 60 c 0
 140 60 172 81 175 130 c 1
 288 143 l 1
 288 139 288 135 288 132 c 0
 288 56 337 48 365 48 c 0
 368 48 371 48 373 48 c 1
 383 0 l 1
 60 0 l 1
 52 62 l 1
237 454 m 1
 286 522 396 612 503 612 c 0
 579 612 631 582 645 488 c 0
 648 466 650 408 650 363 c 0
 650 244 649 82 645 0 c 1
 520 0 l 1
 538 79 557 202 557 303 c 0
 557 347 555 387 551 417 c 0
 542 480 490 513 431 513 c 0
 330 513 262 417 262 417 c 1
 237 454 l 1
423 62 m 1
 427 62 445 59 459 59 c 0
 498 59 537 69 543 140 c 1
 648 139 l 1
 645 60 705 50 732 50 c 0
 735 50 737 50 739 50 c 1
 749 0 l 1
 433 0 l 1
 423 62 l 1
616 454 m 1
 665 522 775 612 882 612 c 0
 958 612 1010 582 1024 488 c 0
 1027 466 1029 408 1029 363 c 0
 1029 244 1028 82 1024 0 c 1
 899 0 l 1
 917 79 936 202 936 303 c 0
 936 347 934 387 930 417 c 0
 921 480 869 513 810 513 c 0
 709 513 641 417 641 417 c 1
 616 454 l 1
802 62 m 1
 806 62 824 59 838 59 c 0
 877 59 916 69 922 140 c 1
 1027 139 l 1
 1024 60 1084 50 1111 50 c 0
 1114 50 1116 50 1118 50 c 1
 1128 0 l 1
 812 0 l 1
 802 62 l 1
EndSplineSet
EndChar

StartChar: uni0067
Encoding: 271 103 16
GlifName: g
Width: 743
VWidth: 153
Flags: HMW
LayerCount: 3
Back
SplineSet
35 -192 m 0
 1.7109375 -89.7373046875 102 27 235 62 c 1
 299 56 l 21
 216 26 166.8046875 -22.2861328125 153 -75 c 0
 133.104492188 -150.971679688 211 -215 287 -215 c 0
 438 -215 526 -138 526 -66 c 0
 526 83 132 60 56 57 c 1
 58 74 51 96 45 119 c 1
 75 154 140 201 197 240 c 1
 247 226 l 1
 216 203 146 123 206 130 c 1
 463 150 642 124 641 -38 c 0
 640 -181 427.999023438 -292.821289062 236 -294 c 0
 106.999023438 -294.791992188 53.5771484375 -249.069335938 35 -192 c 0
61 370 m 0
 60 511 196 611 338 611 c 0
 453 611 565 571 565 453 c 0
 565 301 431 217 295 217 c 0
 150 217 62 258 61 370 c 0
182 404 m 0
 182 312 244 273 309 274 c 0
 392.99609375 275.291992188 447 347 447 426 c 0
 447 499 408 558 320 558 c 0
 252 558 182 499 182 404 c 0
511 520 m 17
 541 522 621 551 723 611 c 1
 729 574 730 506 726 476 c 1
 670 478 604 478 553 478 c 9
 511 520 l 17
EndSplineSet
Fore
SplineSet
33.5732421875 -150 m 0
 34.404296875 -59.6884765625 114.967773438 21.728515625 240 62 c 1
 324 56 l 17
 235.77734375 37.1123046875 154.1015625 -17.640625 154.3671875 -104 c 0
 154.555664062 -165.359375 213.731026331 -215.168763543 316 -210 c 0
 451.552308495 -203.149067551 531 -138 531 -66 c 0
 531 83 137 60 61 57 c 1
 58 74 56 96 50 119 c 1
 80 154 145 211 202 250 c 1
 252 236 l 1
 221 213 150.925046816 130 211 130 c 0
 468.77703544 130 647.1328125 123.999023438 646 -38 c 0
 645 -181 432.998046875 -287.731445312 241 -289 c 0
 109.434570312 -289.869140625 32.7119140625 -243.565429688 33.5732421875 -150 c 0
66 380 m 0
 64.6176787242 520.996770133 201 611 343 611 c 0
 458 611 570 571 570 453 c 0
 570 301 436 227 300 227 c 0
 155 227 67 278 66 380 c 0
187 414 m 0
 187 322 249 283 314 284 c 0
 397.99609375 285.291992188 446 357 446 436 c 0
 446 499 413 558 325 558 c 0
 257 558 187 509 187 414 c 0
516 510 m 17
 546 512 626 541 728 601 c 1
 734 564 735 496 731 466 c 1
 675 468 609 468 558 468 c 9
 516 510 l 17
EndSplineSet
Layer: 2
SplineSet
35 -192 m 0
 1.7109375 -89.7373046875 102 27 235 62 c 1
 299 56 l 21
 216 26 166.8046875 -22.2861328125 153 -75 c 0
 133.104492188 -150.971679688 211 -215 287 -215 c 0
 438 -215 526 -138 526 -66 c 0
 526 83 132 60 56 57 c 1
 58 74 51 96 45 119 c 1
 75 154 140 201 197 240 c 1
 247 226 l 1
 216 203 146 123 206 130 c 1
 463 150 642 124 641 -38 c 0
 640 -181 427.999023438 -292.821289062 236 -294 c 0
 106.999023438 -294.791992188 53.5771484375 -249.069335938 35 -192 c 0
61 370 m 0
 60 511 196 611 338 611 c 0
 453 611 565 571 565 453 c 0
 565 301 431 217 295 217 c 0
 150 217 62 258 61 370 c 0
182 404 m 0
 182 312 244 273 309 274 c 0
 392.99609375 275.291992188 447 347 447 426 c 0
 447 499 408 558 320 558 c 0
 252 558 182 499 182 404 c 0
511 520 m 17
 541 522 621 551 723 611 c 1
 729 574 730 506 726 476 c 1
 670 478 604 478 553 478 c 9
 511 520 l 17
EndSplineSet
EndChar

StartChar: uni0048
Encoding: 272 72 17
GlifName: H_
Width: 902
VWidth: 79
Flags: HMW
LayerCount: 3
Back
SplineSet
42 61 m 1
 118 57 148 89 155 137 c 1
 274 146 l 1
 272 51 348 50 366 51 c 1
 376 0 l 1
 52 0 l 1
 42 61 l 1
61 800 m 5
 174 792 253 795 361 800 c 5
 371 749 l 5
 353 750 284 749 286 654 c 5
 160 663 l 5
 153 711 143 743 67 739 c 5
 61 800 l 5
127 0 m 1
 127 0 146 72 154 136 c 1
 166 298 166 583 156 768 c 1
 299 793 l 1
 274 593 270 208 274 145 c 0
 277 101 256 49 338 49 c 1
 322 1 l 1
 127 0 l 1
194 367 m 1
 194 433 l 1
 603 434 l 1
 747 441 l 1
 747 370 l 1
 194 367 l 1
537 58 m 1
 613 54 648 92 652 140 c 1
 770 139 l 1
 767 49 833 49 852 50 c 1
 862 0 l 1
 547 0 l 1
 537 58 l 1
552 800 m 1
 668 790 750 794 856 800 c 1
 861 749 l 1
 843 750 783 749 779 654 c 1
 655 663 l 1
 648 711 636 743 560 739 c 1
 552 800 l 1
624 0 m 1
 624 0 643 72 651 136 c 1
 663 298 660 583 650 768 c 1
 792 793 l 1
 767 593 767 208 770 145 c 0
 772 101 752 49 834 49 c 1
 818 1 l 1
 624 0 l 1
EndSplineSet
Fore
SplineSet
42 61 m 1
 118 57 148 89 155 137 c 1
 274 146 l 1
 272 51 348 50 366 51 c 1
 376 0 l 1
 52 0 l 1
 42 61 l 1
61 800 m 5
 174 792 253 795 361 800 c 5
 371 749 l 5
 353 750 284 749 286 654 c 5
 160 663 l 5
 153 711 143 743 67 739 c 5
 61 800 l 5
127 0 m 1
 127 0 148.315896498 71.7696304231 154 136 c 0
 168.315896498 297.769630423 166 583 156 768 c 1
 299 793 l 1
 274 593 270 208 274 145 c 0
 277 101 256 49 338 49 c 1
 322 1 l 1
 127 0 l 1
194 367 m 1
 194 433 l 1
 603 434 l 1
 747 441 l 1
 747 370 l 1
 194 367 l 1
537 58 m 1
 613 54 648 92 652 140 c 1
 770 139 l 1
 767 49 833 49 852 50 c 1
 862 0 l 1
 547 0 l 1
 537 58 l 1
552 800 m 1
 668 790 750 794 856 800 c 1
 861 749 l 1
 843 750 783 749 779 654 c 1
 655 663 l 1
 648 711 636 743 560 739 c 1
 552 800 l 1
624 0 m 1
 624 0 645.315896498 71.7696304231 651 136 c 0
 665.315896498 297.769630423 660 583 650 768 c 1
 792 793 l 1
 767 593 767 208 770 145 c 0
 772 101 752 49 834 49 c 1
 818 1 l 1
 624 0 l 1
EndSplineSet
Layer: 2
SplineSet
42 61 m 1
 118 57 148 89 155 137 c 1
 274 146 l 1
 272 51 348 50 366 51 c 1
 376 0 l 1
 52 0 l 1
 42 61 l 1
61 800 m 5
 174 792 253 795 361 800 c 5
 371 749 l 5
 353 750 284 749 286 654 c 5
 160 663 l 5
 153 711 143 743 67 739 c 5
 61 800 l 5
127 0 m 1
 127 0 146 72 154 136 c 1
 166 298 166 583 156 768 c 1
 299 793 l 1
 274 593 270 208 274 145 c 0
 277 101 256 49 338 49 c 1
 322 1 l 1
 127 0 l 1
194 367 m 1
 194 433 l 1
 603 434 l 1
 747 441 l 1
 747 370 l 1
 194 367 l 1
537 58 m 1
 613 54 648 92 652 140 c 1
 770 139 l 1
 767 49 833 49 852 50 c 1
 862 0 l 1
 547 0 l 1
 537 58 l 1
552 800 m 1
 668 790 750 794 856 800 c 1
 861 749 l 1
 843 750 783 749 779 654 c 1
 655 663 l 1
 648 711 636 743 560 739 c 1
 552 800 l 1
624 0 m 1
 624 0 643 72 651 136 c 1
 663 298 660 583 650 768 c 1
 792 793 l 1
 767 593 767 208 770 145 c 0
 772 101 752 49 834 49 c 1
 818 1 l 1
 624 0 l 1
EndSplineSet
EndChar

StartChar: uni0041
Encoding: 273 65 18
GlifName: A_
Width: 863
VWidth: 79
Flags: HMW
LayerCount: 3
Back
SplineSet
42 61 m 1
 123 52 145 86 164 136 c 0
 257 377 326 583 381 768 c 5
 420 774 468 786 507 799 c 5
 568 589 637 418 737 150 c 0
 754 104 775 43 843 55 c 1
 853 0 l 1
 741 0 629 0 517 0 c 1
 507 64 l 1
 578 53 629 65 613 124 c 0
 579 249 505 396 462 541 c 4
 454 580 439 635 431 676 c 5
 371 468 279 210 264 145 c 0
 243 49 318 50 366 51 c 1
 376 0 l 1
 268 0 160 0 52 0 c 1
 42 61 l 1
285 308 m 1
 285 366 l 1
 608 374 l 1
 608 311 l 1
 285 308 l 1
EndSplineSet
Fore
SplineSet
42 61 m 1
 123 52 145 86 164 136 c 0
 257 377 326 583 381 768 c 5
 420 774 468 786 507 799 c 5
 568 589 637 418 737 150 c 0
 754 104 775 43 843 55 c 1
 853 0 l 1
 741 0 629 0 517 0 c 1
 507 64 l 1
 578 53 629 65 613 124 c 0
 579 249 505 396 462 541 c 4
 454 580 439 635 431 676 c 5
 371 468 279 210 264 145 c 0
 243 49 318 50 366 51 c 1
 376 0 l 1
 268 0 160 0 52 0 c 1
 42 61 l 1
285 308 m 1
 285 366 l 1
 608 374 l 1
 608 311 l 1
 285 308 l 1
EndSplineSet
Layer: 2
SplineSet
42 61 m 1
 123 52 145 86 164 136 c 0
 257 377 326 583 381 768 c 5
 420 774 468 786 507 799 c 5
 568 589 637 418 737 150 c 0
 754 104 775 43 843 55 c 1
 853 0 l 1
 741 0 629 0 517 0 c 1
 507 64 l 1
 578 53 629 65 613 124 c 0
 579 249 505 396 462 541 c 4
 454 580 439 635 431 676 c 5
 371 468 279 210 264 145 c 0
 243 49 318 50 366 51 c 1
 376 0 l 1
 268 0 160 0 52 0 c 1
 42 61 l 1
285 308 m 1
 285 366 l 1
 608 374 l 1
 608 311 l 1
 285 308 l 1
EndSplineSet
EndChar

StartChar: uni0042
Encoding: 274 66 19
GlifName: B_
Width: 719
VWidth: 79
Flags: HMW
LayerCount: 3
Back
SplineSet
17 798 m 1
 205 786 246 803 396 803 c 0
 531 803 612 738 613 618 c 0
 614 524 548 417 441 412 c 1
 473 437 l 1
 613 401 669.072909024 322.999266338 668 220 c 4
 666 28 521 0 320 0 c 1
 252 -1 107 0 33 0 c 1
 23 61 l 1
 102 51 133 77 135 127 c 0
 144 342 147 468 139 628 c 0
 136 686 119 742 27 735 c 1
 17 798 l 1
244 375 m 1
 243 275 243 197 253 123 c 0
 260 65 305 61 358 61 c 0
 471 62 546 119 546 219 c 0
 546 306 475 383 370 386 c 0
 327 387 279 382 244 375 c 1
246 450 m 1
 442 426 488 530 490 587 c 0
 493 677 433 745 355 747 c 0
 309 748 275 739 252 730 c 1
 244 653 247 548 246 450 c 1
EndSplineSet
Fore
SplineSet
17 798 m 1
 205 786 246 803 396 803 c 0
 531 803 612 738 613 618 c 0
 614 524 548 417 441 412 c 1
 473 437 l 5
 593 421 669.1976499 322.997891409 668 220 c 4
 666 48 521 0 320 0 c 0
 251.992647456 0 107 0 33 0 c 1
 23 61 l 1
 102 51 133 77 135 127 c 0
 144 342 147 468 139 628 c 0
 136 686 119 742 27 735 c 1
 17 798 l 1
244 375 m 1
 243 275 243 197 253 123 c 0
 260 65 305 61 358 61 c 0
 471 62 546 119 546 219 c 0
 546 306 475 383 370 386 c 0
 327 387 279 382 244 375 c 1
246 450 m 1
 442 426 488 530 490 587 c 0
 493 677 433 745 355 747 c 0
 309 748 275 739 252 730 c 1
 244 653 247 548 246 450 c 1
EndSplineSet
Layer: 2
SplineSet
17 798 m 1
 205 786 246 803 396 803 c 0
 531 803 612 738 613 618 c 0
 614 524 548 417 441 412 c 1
 473 437 l 1
 613 401 669.072909024 322.999266338 668 220 c 4
 666 28 521 0 320 0 c 1
 252 -1 107 0 33 0 c 1
 23 61 l 1
 102 51 133 77 135 127 c 0
 144 342 147 468 139 628 c 0
 136 686 119 742 27 735 c 1
 17 798 l 1
244 375 m 1
 243 275 243 197 253 123 c 0
 260 65 305 61 358 61 c 0
 471 62 546 119 546 219 c 0
 546 306 475 383 370 386 c 0
 327 387 279 382 244 375 c 1
246 450 m 1
 442 426 488 530 490 587 c 0
 493 677 433 745 355 747 c 0
 309 748 275 739 252 730 c 1
 244 653 247 548 246 450 c 1
EndSplineSet
EndChar

StartChar: uni0057
Encoding: 275 87 20
GlifName: W_
Width: 1231
VWidth: 79
Flags: HMW
LayerCount: 3
Back
SplineSet
-15 800 m 1
 101 796 233 793 321 800 c 1
 331 736 l 1
 260 747 209 735 225 676 c 0
 259 551 333 370 376 225 c 0
 384 192 399 135 407 100 c 1
 467 301 559 592 574 655 c 1
 674 664 l 1
 581 430 512 188 457 8 c 1
 418 2 370 -10 331 -23 c 1
 270 181 201 390 101 650 c 0
 84 696 63 748 -5 736 c 1
 -15 800 l 1
459 800 m 1
 571 800 683 800 795 800 c 1
 805 736 l 1
 734 747 683 735 699 676 c 0
 733 551 799 370 842 225 c 0
 850 192 865 135 873 100 c 1
 933 301 1024 592 1039 655 c 0
 1060 751 985 750 937 749 c 1
 927 800 l 1
 1035 800 1143 800 1251 800 c 1
 1261 739 l 1
 1180 748 1158 714 1139 664 c 0
 1046 430 978 188 923 8 c 1
 884 2 836 -10 797 -23 c 1
 736 181 675 390 575 650 c 0
 558 696 537 757 469 745 c 1
 459 800 l 1
EndSplineSet
Fore
SplineSet
-15 800 m 1
 101 796 233 793 321 800 c 1
 331 736 l 1
 260 747 209 735 225 676 c 0
 259 551 333 370 376 225 c 0
 384 192 399 135 407 100 c 1
 467 301 559 592 574 655 c 1
 674 664 l 1
 581 430 512 188 457 8 c 1
 418 2 370 -10 331 -23 c 1
 270 181 201 390 101 650 c 0
 84 696 63 748 -5 736 c 1
 -15 800 l 1
459 800 m 1
 571 800 683 800 795 800 c 1
 805 736 l 1
 734 747 683 735 699 676 c 0
 733 551 799 370 842 225 c 0
 850 192 865 135 873 100 c 1
 933 301 1024 592 1039 655 c 0
 1060 751 985 750 937 749 c 1
 927 800 l 1
 1035 800 1143 800 1251 800 c 1
 1261 739 l 1
 1180 748 1158 714 1139 664 c 0
 1046 430 978 188 923 8 c 1
 884 2 836 -10 797 -23 c 1
 736 181 675 390 575 650 c 0
 558 696 537 757 469 745 c 1
 459 800 l 1
EndSplineSet
Layer: 2
SplineSet
-15 800 m 1
 101 796 233 793 321 800 c 1
 331 736 l 1
 260 747 209 735 225 676 c 0
 259 551 333 370 376 225 c 0
 384 192 399 135 407 100 c 1
 467 301 559 592 574 655 c 1
 674 664 l 1
 581 430 512 188 457 8 c 1
 418 2 370 -10 331 -23 c 1
 270 181 201 390 101 650 c 0
 84 696 63 748 -5 736 c 1
 -15 800 l 1
459 800 m 1
 571 800 683 800 795 800 c 1
 805 736 l 1
 734 747 683 735 699 676 c 0
 733 551 799 370 842 225 c 0
 850 192 865 135 873 100 c 1
 933 301 1024 592 1039 655 c 0
 1060 751 985 750 937 749 c 1
 927 800 l 1
 1035 800 1143 800 1251 800 c 1
 1261 739 l 1
 1180 748 1158 714 1139 664 c 0
 1046 430 978 188 923 8 c 1
 884 2 836 -10 797 -23 c 1
 736 181 675 390 575 650 c 0
 558 696 537 757 469 745 c 1
 459 800 l 1
EndSplineSet
EndChar

StartChar: uni0063
Encoding: 276 99 21
GlifName: c
Width: 583
VWidth: 79
Flags: HMW
LayerCount: 3
Back
SplineSet
45 230 m 0
 44 404 149 598 392 598 c 0
 490 598 543 569 543 569 c 1
 545 531 545 461 538 416 c 1
 478 422 l 1
 457 465 438 504 389 538 c 5
 460 535 l 1
 438 470 416 534 324 533 c 0
 245 532 171 476 169 325 c 0
 167 202 210 64 344 62 c 0
 409 61 468 86 505 121 c 1
 536 87 l 1
 484 23 410 -15 306 -15 c 0
 157 -15 46 69 45 230 c 0
EndSplineSet
Fore
SplineSet
45 230 m 0
 44 404 149 598 392 598 c 0
 490 598 543 569 543 569 c 1
 545 531 545 461 538 416 c 1
 478 422 l 1
 457 465 438 504 389 538 c 5
 460 535 l 1
 438 470 416 534 324 533 c 0
 245 532 171 476 169 325 c 0
 167 202 210 64 344 62 c 0
 409 61 468 86 505 121 c 1
 536 87 l 1
 484 23 410 -15 306 -15 c 0
 157 -15 46 69 45 230 c 0
EndSplineSet
Layer: 2
SplineSet
45 230 m 0
 44 404 149 598 392 598 c 0
 490 598 543 569 543 569 c 1
 545 531 545 461 538 416 c 1
 478 412 l 1
 457 455 438 494 389 528 c 1
 470 465 l 1
 448 470 406 524 314 523 c 0
 235 522 161 466 159 315 c 4
 157 192 210 64 344 62 c 0
 409 61 468 86 505 121 c 1
 536 87 l 1
 484 23 410 -15 306 -15 c 0
 157 -15 46 69 45 230 c 0
EndSplineSet
EndChar

StartChar: uni0077
Encoding: 277 119 22
GlifName: w
Width: 1006
VWidth: 79
Flags: HMW
LayerCount: 3
Back
SplineSet
-7 596 m 1
 113 587 189 589 295 596 c 1
 309 542 l 1
 253 546 196 538 220 460 c 1
 248 362 275 292 300 197 c 1
 311 162 325 74 325 74 c 1
 357 146 428 293 492 459 c 1
 573 456 l 1
 504 279 399 71 362 -9 c 9
 258 -26 l 1
 219 86 178 225 98 462 c 1
 79 527 48 533 1 532 c 1
 -7 596 l 1
378 596 m 1
 489 592 566 594 660 596 c 1
 670 542 l 1
 609 546 589 525 604 460 c 1
 632 362 653 292 678 197 c 5
 689 162 702 77 702 77 c 1
 734 149 784 293 838 459 c 1
 861 517 817 536 749 533 c 1
 740 596 l 1
 837 590 906 590 1000 596 c 1
 1011 538 l 1
 951 536 943 508 923 456 c 0
 854 279 783 71 746 -9 c 9
 642 -26 l 1
 608 86 553 245 483 482 c 1
 474 517 443 538 396 532 c 1
 378 596 l 1
EndSplineSet
Fore
SplineSet
-7 596 m 1
 113 587 189 589 295 596 c 1
 309 542 l 1
 253 546 196.87761979 538.260363788 220 460 c 0
 248.87761979 362.260363788 273.789067863 291.650588273 300 197 c 0
 309.789067863 161.650588273 325 74 325 74 c 1
 357 146 428 293 492 459 c 1
 573 456 l 1
 504 279 399 71 362 -9 c 9
 258 -26 l 1
 219 86 175.907934602 224.341452022 98 462 c 0
 76.907934602 526.341452022 48 533 1 532 c 1
 -7 596 l 1
378 596 m 1
 489 592 566 594 660 596 c 1
 670 542 l 1
 609 546 586.989621205 524.481203338 604 460 c 0
 629.989621205 361.481203338 651.789067863 291.650588273 678 197 c 4
 687.789067863 161.650588273 702 77 702 77 c 1
 734 149 781.27518447 293.982354823 838 459 c 0
 858.27518447 517.982354823 817 536 749 533 c 1
 740 596 l 1
 837 590 906 590 1000 596 c 1
 1011 538 l 1
 951 536 943 508 923 456 c 0
 854 279 783 71 746 -9 c 9
 642 -26 l 1
 608 86 551.921094974 244.702052747 483 482 c 0
 472.921094974 516.702052747 443 538 396 532 c 1
 378 596 l 1
EndSplineSet
Layer: 2
SplineSet
-7 596 m 1
 113 587 189 589 295 596 c 1
 309 542 l 1
 253 546 196 538 220 460 c 1
 248 362 275 292 300 197 c 1
 311 162 325 74 325 74 c 1
 357 146 428 293 492 459 c 1
 573 456 l 1
 504 279 399 71 362 -9 c 9
 258 -26 l 1
 219 86 178 225 98 462 c 1
 79 527 48 533 1 532 c 1
 -7 596 l 1
378 596 m 1
 489 592 566 594 660 596 c 1
 670 542 l 1
 609 546 589 525 604 460 c 1
 632 362 653 292 678 197 c 5
 689 162 702 77 702 77 c 1
 734 149 784 293 838 459 c 1
 861 517 817 536 749 533 c 1
 740 596 l 1
 837 590 906 590 1000 596 c 1
 1011 538 l 1
 951 536 943 508 923 456 c 0
 854 279 783 71 746 -9 c 9
 642 -26 l 1
 608 86 553 245 483 482 c 1
 474 517 443 538 396 532 c 1
 378 596 l 1
EndSplineSet
EndChar

StartChar: uni0056
Encoding: 278 86 23
GlifName: V_
Width: 826
VWidth: 79
Flags: HMW
LayerCount: 3
Back
SplineSet
-5 799 m 1
 107 794 249 793 331 799 c 1
 341 735 l 1
 270 746 219 734 235 675 c 0
 269 556 340 384 383 245 c 0
 391 206 409 127 417 86 c 5
 487 277 606 591 621 654 c 0
 642 750 560 749 512 748 c 1
 502 799 l 1
 613 795 723 790 826 799 c 1
 836 738 l 1
 755 747 733 713 714 663 c 0
 621 429 529 188 474 8 c 1
 435 2 387 -10 348 -23 c 1
 287 187 211 401 111 669 c 0
 94 705 73 754 5 744 c 1
 -5 799 l 1
EndSplineSet
Fore
SplineSet
-5 799 m 1
 107 794 249 793 331 799 c 1
 341 735 l 1
 270 746 219 734 235 675 c 0
 269 556 340 384 383 245 c 0
 391 206 409 127 417 86 c 5
 487 277 606 591 621 654 c 0
 642 750 560 749 512 748 c 1
 502 799 l 1
 613 795 723 790 826 799 c 1
 836 738 l 1
 755 747 733 713 714 663 c 0
 621 429 529 188 474 8 c 1
 435 2 387 -10 348 -23 c 1
 287 187 211 401 111 669 c 0
 94 705 73 754 5 744 c 1
 -5 799 l 1
EndSplineSet
Layer: 2
SplineSet
-5 799 m 1
 107 794 249 793 331 799 c 1
 341 735 l 1
 270 746 219 734 235 675 c 0
 269 556 340 384 383 245 c 0
 391 206 409 127 417 86 c 5
 487 277 606 591 621 654 c 0
 642 750 560 749 512 748 c 1
 502 799 l 1
 613 795 723 790 826 799 c 1
 836 738 l 1
 755 747 733 713 714 663 c 0
 621 429 529 188 474 8 c 1
 435 2 387 -10 348 -23 c 1
 287 187 211 401 111 669 c 0
 94 705 73 754 5 744 c 1
 -5 799 l 1
EndSplineSet
EndChar

StartChar: uni0043
Encoding: 279 67 24
GlifName: C_
Width: 748
VWidth: 79
Flags: HMW
LayerCount: 3
Back
SplineSet
57 289 m 4
 45 527 201 809 533 809 c 0
 694 809 753 773 753 773 c 1
 756 722 752 592 742 550 c 1
 683 553 l 1
 651 641 568 755 522 762 c 1
 536 783 718 739 665 644 c 1
 648 648 581 737 458 737 c 0
 300 737 193 589 190 393 c 0
 187 226 277 69 461 71 c 0
 550.000360373 71.9673952214 632 118 683 166 c 1
 723 123 l 1
 652 35 541 -17 399 -17 c 0
 195 -17 67.423828125 82.259765625 57 289 c 4
EndSplineSet
Fore
SplineSet
57 289 m 4
 45 527 201 809 533 809 c 0
 694 809 753 773 753 773 c 1
 756 722 752 592 742 550 c 1
 683 553 l 1
 651 641 568 755 522 762 c 1
 536 783 718 739 665 644 c 1
 648 648 581 737 458 737 c 0
 300 737 193 589 190 393 c 0
 187 226 277 69 461 71 c 0
 550.000360373 71.9673952214 632 118 683 166 c 1
 723 123 l 1
 652 35 541 -17 399 -17 c 0
 195 -17 67.423828125 82.259765625 57 289 c 4
EndSplineSet
Layer: 2
SplineSet
57 289 m 4
 45 527 201 809 533 809 c 0
 694 809 753 773 753 773 c 1
 756 722 752 592 742 550 c 1
 683 553 l 1
 651 641 568 755 522 762 c 1
 536 783 718 739 665 644 c 1
 648 648 581 737 458 737 c 0
 300 737 193 589 190 393 c 0
 187 226 277 69 461 71 c 0
 550.000360373 71.9673952214 632 118 683 166 c 1
 723 123 l 1
 652 35 541 -17 399 -17 c 0
 195 -17 67.423828125 82.259765625 57 289 c 4
EndSplineSet
EndChar

StartChar: uni0071
Encoding: 280 113 25
GlifName: q
Width: 682
VWidth: 79
Flags: HMW
LayerCount: 3
Back
SplineSet
45 261 m 0
 51 433 134 615 364 617 c 0
 462 618 532 600 575 583 c 1
 503 453 l 1
 503 453 438 574 321 553 c 0
 239 538 170 439 169 256 c 0
 168 119 240 70 302 71 c 0
 359 72 429 117 465 201 c 1
 499 160 l 1
 451 47 346 -8 261 -8 c 0
 116 -8 39 90 45 261 c 0
333 -156 m 1
 345 -157 356 -158 366 -158 c 0
 421 -158 450 -137 453 -88 c 1
 572 -69 l 1
 572 -80 l 2
 572 -156 611 -170 659 -170 c 6
 667 -170 l 5
 677 -218 l 5
 341 -218 l 1
 333 -156 l 1
374 602 m 1
 575 583 l 1
 561 479 567 22 573 -102 c 0
 575 -149 518 -162 590 -161 c 1
 655 -185 l 5
 572 -183 439 -205 439 -205 c 1
 469 -37 463 386 459 443 c 0
 453 525 465 570 387 558 c 1
 374 602 l 1
EndSplineSet
Fore
SplineSet
45 261 m 0
 51 433 134 615 364 617 c 0
 462 618 532 600 575 583 c 1
 503 453 l 1
 503 453 438 574 321 553 c 0
 239 538 170 439 169 256 c 0
 168 119 240 70 302 71 c 0
 359 72 429 117 465 201 c 1
 499 160 l 1
 451 47 346 -8 261 -8 c 0
 116 -8 39 90 45 261 c 0
333 -156 m 1
 345 -157 356 -158 366 -158 c 0
 421 -158 450 -137 453 -88 c 1
 572 -69 l 1
 572 -80 l 2
 572 -156 611 -170 659 -170 c 6
 667 -170 l 5
 677 -218 l 5
 341 -218 l 1
 333 -156 l 1
374 602 m 1
 575 583 l 1
 561 479 567 22 573 -102 c 0
 575 -149 518 -162 590 -161 c 1
 655 -185 l 5
 572 -183 439 -205 439 -205 c 1
 469 -37 463 386 459 443 c 0
 453 525 465 570 387 558 c 1
 374 602 l 1
EndSplineSet
Layer: 2
SplineSet
56 225 m 0
 55 367 135.280273438 551.5703125 334 602 c 0
 409.931640625 621.26953125 534 604 574 589 c 1
 494 497 l 1
 494 497 425.563476562 560.984375 332 550 c 0
 248.401367188 540.185546875 181 434 179 284 c 0
 178 181 212.200332381 73.4828614212 302 73 c 0
 412.511367226 72.4057697846 459 187 480 241 c 1
 511 200 l 1
 479 126 433 -3 280 -13 c 0
 135.308721181 -22.456946328 57 64 56 225 c 0
394 598 m 1
 575 589 l 1
 553.027835253 255.755501334 562.680511928 186.049140101 572 -69 c 0
 574.803681259 -145.729160289 602.051825966 -170.000000016 659 -170 c 2
 667 -170 l 1
 677 -218 l 1
 341 -218 l 1
 333 -156 l 1
 345 -157 356 -158 366 -158 c 0
 421 -158 450 -137 453 -88 c 1
 454.499581691 -87.7605709905 l 1
 478.179410056 157.042252006 467.583570356 488.059226466 457 554 c 1
 394 598 l 1
EndSplineSet
EndChar

StartChar: uni0066
Encoding: 281 102 26
GlifName: f
Width: 478
VWidth: 79
Flags: HMW
LayerCount: 3
Back
SplineSet
39 520 m 1
 29 588 l 1
 170.5078125 583.043945312 252.553710938 582.5 384 588 c 1
 397 522 l 1
 205 503.526367188 l 1
 122 439.640625 l 1
 122.805664062 506.45703125 117.041015625 529.84765625 39 520 c 1
11 61 m 1
 87 57 119 78 123 136 c 1
 241 152 l 1
 239 57 331 53 359 54 c 1
 369 0 l 1
 18 0 l 1
 11 61 l 1
174 126 m 1
 122 117 l 1
 125 279 125.915039062 418.891601562 115 623 c 0
 103.348632812 840.875976562 279.700195312 908.90234375 398 908 c 0
 463.017578125 907.50390625 526 886 526 886 c 1
 526.15234375 830.548828125 504.224075266 758.377514403 483 718 c 1
 442.314453125 780.97265625 381.509765625 857.119140625 308 849 c 0
 263.293945312 844.0625 232.89453125 800.879882812 231 671 c 0
 228.411132812 493.54296875 230.344726562 251.282226562 246 112 c 1
 174 126 l 1
EndSplineSet
Fore
SplineSet
11 61 m 1
 87 57 119 78 123 136 c 1
 241 152 l 1
 239 57 331 53 359 54 c 1
 369 0 l 1
 18 0 l 1
 11 61 l 1
29 588 m 1
 170.5078125 583.043945312 252.553710938 582.5 384 588 c 1
 397 522 l 1
 205 503.526367188 l 1
 122 439.640625 l 1
 122.805664062 506.45703125 117.041015625 529.84765625 39 520 c 1
 29 588 l 1
115 623 m 0
 103.348632812 840.875976562 279.700195312 908.90234375 398 908 c 0
 463.017578125 907.50390625 526 886 526 886 c 1
 526.15234375 830.548828125 504.224075266 758.377514403 483 718 c 1
 442.314453125 780.97265625 381.509765625 857.119140625 308 849 c 0
 263.293945312 844.0625 232.89453125 800.879882812 231 671 c 0
 228.411132812 493.54296875 230.344726562 251.282226562 246 112 c 1
 174 126 l 1
 122 117 l 1
 125 279 125.915039062 418.891601562 115 623 c 0
EndSplineSet
Layer: 2
SplineSet
5 61 m 1
 81 57 113 78 117 136 c 1
 117.247453782 136.033553055 l 1
 119.762647226 193.512495435 129.750036454 335.642034314 123 488 c 1
 126 574 l 1
 230.353515625 559 l 1
 221.446835393 418.577401743 218.176098552 309.595520519 234.062754983 151.87291593 c 4
 241 83 261.166015625 52.86328125 343 54 c 5
 353 0 l 5
 12 0 l 1
 5 61 l 1
39 520 m 1
 29 588 l 1
 170.5078125 583.043945312 252.553710938 582.5 384 588 c 1
 397 522 l 1
 205 503.526367188 l 1
 126 439.640625 l 1
 126.805664062 506.45703125 117.041015625 529.84765625 39 520 c 1
115 573 m 1
 103.348632812 890.875976562 279.700195312 908.90234375 398 908 c 0
 463.017578125 907.50390625 526 886 526 886 c 1
 526.15234375 830.548828125 504.223632812 758.377929688 483 718 c 1
 442.314453125 780.97265625 381.509765625 857.119140625 308 849 c 0
 244.068006606 841.939117093 231.261625258 726.715595535 229.463867188 561 c 1
 115 573 l 1
EndSplineSet
Colour: ff0000
EndChar

StartChar: uni0079
Encoding: 285 121 30
GlifName: y
Width: 665
VWidth: 79
Flags: HMW
LayerCount: 3
Back
SplineSet
-2 596 m 1
 112 591 206 593 320 596 c 1
 334 542 l 1
 258 536 210 525 225 460 c 1
 253 362 278 297 309 202 c 0
 320 167 338 66 338 66 c 1
 375 138 458 353 492 459 c 0
 510 518 472 536 404 533 c 1
 395 596 l 1
 492 590 568 592 665 596 c 1
 676 538 l 1
 606 536 600 507 578 456 c 0
 502 279 427 96 390 16 c 1
 361 13 297 -4 263 -8 c 1
 224 104 183 225 103 462 c 1
 84 527 53 539 6 538 c 1
 -2 596 l 1
53 -143 m 5
 246 -167 290 -43 334 52 c 13
 405 50 l 21
 379 -9 343 -106 309 -158 c 4
 256 -240 158 -267 73 -263 c 5
 35 -231 42 -163 53 -143 c 5
EndSplineSet
Fore
SplineSet
-2 596 m 1
 112 591 206 593 320 596 c 1
 334 542 l 1
 258 536 207.989621205 524.481203338 225 460 c 0
 250.989621205 361.481203338 278 297 309 202 c 0
 320 167 338 66 338 66 c 1
 375 138 458 353 492 459 c 0
 510 518 472 536 404 533 c 1
 395 596 l 1
 492 590 568 592 665 596 c 1
 676 538 l 1
 606 536 600 507 578 456 c 0
 502 279 427 96 390 16 c 1
 361 13 297 -4 263 -8 c 1
 224 104 180.907934602 224.341452022 103 462 c 0
 81.907934602 526.341452022 53 539 6 538 c 1
 -2 596 l 1
53 -143 m 5
 246 -167 290 -43 334 52 c 13
 405 50 l 21
 379 -9 343 -106 309 -158 c 4
 256 -240 158 -267 73 -263 c 5
 35 -231 42 -163 53 -143 c 5
EndSplineSet
Layer: 2
SplineSet
-2 596 m 1
 112 591 206 593 320 596 c 1
 334 542 l 1
 258 536 210 525 225 460 c 1
 253 362 272 299 303 204 c 4
 314 169 338 68 338 68 c 1
 375 140 458 353 492 459 c 0
 510 518 472 536 404 533 c 1
 395 596 l 1
 492 590 568 592 665 596 c 1
 676 538 l 1
 606 536 600 507 578 456 c 0
 502 279 427 96 390 16 c 1
 361 13 307 -4 273 -8 c 1
 234 104 183 225 103 462 c 1
 84 527 53 539 6 538 c 1
 -2 596 l 1
53 -143 m 1
 246 -167 290 -43 334 52 c 9
 405 50 l 17
 379 -9 343 -106 309 -158 c 0
 256 -240 158 -267 73 -263 c 1
 35 -231 42 -163 53 -143 c 1
EndSplineSet
EndChar

StartChar: uni006C
Encoding: 286 108 31
Width: 412
VWidth: 79
Flags: HMW
LayerCount: 3
Back
SplineSet
38 61 m 1
 114 57 147 89 154 137 c 1
 272 146 l 1
 270 51 346 50 364 51 c 1
 374 0 l 1
 48 0 l 1
 38 61 l 1
39 829 m 1
 122 827 296 850 296 850 c 1
 271 637 268 208 272 145 c 0
 275 101 254 49 336 49 c 1
 320 1 l 1
 125 0 l 1
 125 0 145 72 153 136 c 0
 163 271 164 529 159 719 c 0
 154 763 124 766 46 766 c 1
 39 829 l 1
EndSplineSet
Fore
SplineSet
38 61 m 1
 114 57 147 89 154 137 c 1
 272 146 l 1
 270 51 346 50 364 51 c 1
 374 0 l 1
 48 0 l 1
 38 61 l 1
39 829 m 1
 122 827 296 850 296 850 c 1
 271 637 268 208 272 145 c 0
 275 101 254 49 336 49 c 1
 320 1 l 1
 125 0 l 1
 125 0 145 72 153 136 c 0
 163 271 164 529 159 719 c 0
 154 763 124 766 46 766 c 1
 39 829 l 1
EndSplineSet
Layer: 2
SplineSet
28 61 m 5
 106.303710938 56.87890625 138.954101562 90.62109375 145 142 c 4
 169 346 164 483 150 687 c 4
 146.779296875 733.931640625 102 767 30 766 c 5
 25 830 l 5
 108 828 289 850 289 850 c 1
 247 672 260.985351562 230.2734375 268 172 c 0
 278.414226102 85.4842557894 315.296263572 48.2942368651 364 51 c 1
 374 0 l 1
 38 0 l 5
 28 61 l 5
EndSplineSet
EndChar

StartChar: uni0075
Encoding: 289 117 34
Width: 728
VWidth: 79
Flags: HMW
LayerCount: 3
Back
SplineSet
-4 596 m 1
 88 591 169 599 239 608 c 1
 222 521 215 401 215 295 c 0
 215 251 217 211 221 181 c 0
 230 118 275 85 334 85 c 0
 435 85 503 181 503 181 c 1
 528 144 l 1
 479 76 369 -14 262 -14 c 0
 186 -14 128 23 114 117 c 0
 111 139 109 180 109 225 c 0
 109 296 113 383 116 459 c 0
 119 530 32 534 2 532 c 1
 -4 596 l 1
376 598 m 1
 449 593 568 600 625 610 c 1
 615 468 l 1
 500 455 l 1
 505 542 422 540 384 538 c 1
 376 598 l 1
496 120 m 1
 498 161 498 203 498 247 c 0
 498 271 498 294 498 319 c 0
 498 405 499 488 509 588 c 1
 624 600 l 1
 613 456 607 312 607 220 c 0
 607 115 599 59 711 56 c 1
 720 0 l 1
 502 0 l 1
 502 0 509 102 515 128 c 1
 515 137 517 141 514 141 c 0
 507 141 496 120 496 120 c 1
EndSplineSet
Fore
SplineSet
-4 596 m 1
 88 591 169 599 239 608 c 1
 222 521 215 401 215 295 c 0
 215 251 217 211 221 181 c 0
 230 118 275 85 334 85 c 0
 435 85 503 181 503 181 c 1
 528 144 l 1
 479 76 369 -14 262 -14 c 0
 186 -14 128 23 114 117 c 0
 111 139 109 180 109 225 c 0
 109 296 113 383 116 459 c 0
 119 530 32 534 2 532 c 1
 -4 596 l 1
376 598 m 1
 449 593 568 600 625 610 c 1
 615 468 l 1
 500 455 l 1
 505 542 422 540 384 538 c 1
 376 598 l 1
496 120 m 1
 498 161 498 203 498 247 c 0
 498 271 498 294 498 319 c 0
 498 405 499 488 509 588 c 1
 624 600 l 1
 613 456 607 312 607 220 c 0
 607 115 599 59 711 56 c 1
 720 0 l 1
 502 0 l 1
 502 0 509 102 515 128 c 1
 515 137 517 141 514 141 c 0
 507 141 496 120 496 120 c 1
EndSplineSet
Layer: 2
SplineSet
-4 596 m 1
 88 591 169 599 239 608 c 1
 222 521 215 401 215 295 c 0
 215 251 217 211 221 181 c 0
 230 118 275 85 334 85 c 0
 435 85 503 181 503 181 c 1
 528 144 l 1
 479 76 369 -14 262 -14 c 0
 186 -14 128 23 114 117 c 0
 111 139 109 180 109 225 c 0
 109 296 113 383 116 459 c 0
 119 530 32 534 2 532 c 1
 -4 596 l 1
376 598 m 1
 449 593 568 600 625 610 c 1
 615 468 l 1
 500 455 l 1
 505 542 422 540 384 538 c 1
 376 598 l 1
496 120 m 1
 498 161 498 203 498 247 c 0
 498 271 498 294 498 319 c 0
 498 405 499 488 509 588 c 1
 624 600 l 1
 613 456 607 312 607 220 c 0
 607 115 599 59 711 56 c 1
 720 0 l 1
 502 0 l 1
 502 0 509 102 515 128 c 1
 515 137 517 141 514 141 c 0
 507 141 496 120 496 120 c 1
EndSplineSet
EndChar

StartChar: uni006B
Encoding: 290 107 35
Width: 752
VWidth: 79
Flags: HMW
LayerCount: 3
Back
SplineSet
313 341 m 1
 342 334 359 347 393 357 c 1
 393 357 536 50 696 61 c 5
 708 10 l 1
 644 -11 606 -13 552 -10 c 1
 460.83984375 -3.140625 349.147460938 266.52734375 313 341 c 1
42 61 m 1
 118 57 153 89 160 137 c 1
 268 146 l 1
 266 51 330 50 348 51 c 1
 358 0 l 1
 52 0 l 1
 42 61 l 1
43 829 m 1
 126 827 292 850 292 850 c 1
 267 637 264 208 268 145 c 0
 271 101 238 49 320 49 c 1
 304 1 l 1
 129 0 l 1
 129 0 151 72 159 136 c 0
 169 271 168 529 163 719 c 0
 158 763 128 766 50 766 c 1
 43 829 l 1
249 307 m 1
 264 369 l 1
 295 367 311 359 338 359 c 1
 358 369 421 434 464 497 c 0
 478 518 484 544 406 541 c 1
 387 594 l 1
 464 588 538 590 635 594 c 1
 648 546 l 1
 618 544 589 520 558 490 c 0
 487 421 420 333 389 306 c 1
 358 299 301 307 249 307 c 1
EndSplineSet
Fore
SplineSet
42 61 m 1
 118 57 153 89 160 137 c 1
 268 146 l 1
 266 51 330 50 348 51 c 1
 358 0 l 1
 52 0 l 1
 42 61 l 1
43 829 m 1
 126 827 292 850 292 850 c 1
 267 637 264 208 268 145 c 0
 271 101 238 49 320 49 c 1
 304 1 l 1
 129 0 l 1
 129 0 151 72 159 136 c 0
 169 271 168 529 163 719 c 0
 158 763 128 766 50 766 c 1
 43 829 l 1
249 307 m 1
 264 369 l 1
 295 367 311 359 338 359 c 1
 358 369 421 434 464 497 c 0
 478 518 484 544 406 541 c 1
 387 594 l 1
 464 588 538 590 635 594 c 1
 648 546 l 1
 618 544 589 520 558 490 c 0
 487 421 420 333 389 306 c 1
 358 299 301 307 249 307 c 1
313 341 m 1
 342 334 359 347 393 357 c 1
 393 357 536 50 696 61 c 5
 708 10 l 1
 644 -11 605.95652837 -13.6647635318 552 -10 c 0
 460.79637212 -3.80538853181 349.147460938 266.52734375 313 341 c 1
EndSplineSet
Layer: 2
SplineSet
42 61 m 1
 118 57 153 89 160 137 c 1
 268 146 l 1
 266 51 330 50 348 51 c 1
 358 0 l 1
 52 0 l 1
 42 61 l 1
43 829 m 1
 126 827 292 850 292 850 c 1
 267 637 264 208 268 145 c 0
 271 101 238 49 320 49 c 1
 304 1 l 1
 129 0 l 1
 129 0 151 72 159 136 c 0
 169 271 168 529 163 719 c 0
 158 763 128 766 50 766 c 1
 43 829 l 1
249 307 m 1
 264 369 l 1
 295 367 311 359 338 359 c 1
 358 369 421 434 464 497 c 0
 478 518 484 544 406 541 c 1
 387 594 l 1
 464 588 538 590 635 594 c 1
 648 546 l 1
 618 544 589 520 558 490 c 0
 487 421 420 333 389 306 c 1
 358 299 301 307 249 307 c 1
313 341 m 1
 342 334 359 347 393 357 c 1
 393 357 536 50 696 61 c 5
 708 10 l 1
 644 -11 606 -13 552 -10 c 1
 460.83984375 -3.140625 349.147460938 266.52734375 313 341 c 1
EndSplineSet
EndChar

StartChar: uni006A
Encoding: 291 106 36
Width: 366
VWidth: 79
Flags: HMW
LayerCount: 3
Back
SplineSet
-51 -240 m 1
 -28 -189 l 1
 68 -213 140 -151 154 -3 c 1
 261 -8 l 1
 263 -184 196 -263 69 -264 c 0
 14 -265 -37 -248 -51 -240 c 1
31 584 m 1
 114 582 271 595 271 595 c 1
 261 540 260 67 261 -20 c 1
 154 -10 l 1
 169 190 157 386 150 448 c 0
 145 493 109 523 37 523 c 1
 31 584 l 1
100 782 m 0
 100 824 134 852 175 852 c 0
 225 852 250 813 250 771 c 0
 250 729 216 701 175 701 c 0
 134 701 100 740 100 782 c 0
100 782 m 0
 100 824 134 852 175 852 c 0
 225 852 250 813 250 771 c 0
 250 729 216 701 175 701 c 0
 134 701 100 740 100 782 c 0
EndSplineSet
Fore
SplineSet
-51 -240 m 1
 -28 -189 l 1
 68 -213 140 -151 154 -3 c 1
 261 -8 l 1
 263 -184 196 -263 69 -264 c 0
 14 -265 -37 -248 -51 -240 c 1
31 584 m 1
 114 582 271 595 271 595 c 1
 261 540 260 67 261 -20 c 1
 154 -10 l 1
 169 190 157 386 150 448 c 0
 145 493 109 523 37 523 c 1
 31 584 l 1
100 782 m 0
 100 824 134 852 175 852 c 0
 225 852 250 813 250 771 c 0
 250 729 216 701 175 701 c 0
 134 701 100 740 100 782 c 0
100 782 m 0
 100 824 134 852 175 852 c 0
 225 852 250 813 250 771 c 0
 250 729 216 701 175 701 c 0
 134 701 100 740 100 782 c 0
EndSplineSet
Layer: 2
SplineSet
-51 -240 m 1
 -28 -189 l 5
 118 -213 150 -81 164 67 c 5
 261 -8 l 1
 263 -184 196 -263 69 -264 c 0
 14 -265 -37 -248 -51 -240 c 1
31 584 m 1
 114 582 271 595 271 595 c 1
 261 540 260 67 261 -20 c 1
 164 60 l 5
 179 260 157 386 150 448 c 0
 145 493 109 523 37 523 c 1
 31 584 l 1
100 782 m 0
 100 824 134 852 175 852 c 0
 225 852 250 813 250 771 c 0
 250 729 216 701 175 701 c 0
 134 701 100 740 100 782 c 0
100 782 m 0
 100 824 134 852 175 852 c 0
 225 852 250 813 250 771 c 0
 250 729 216 701 175 701 c 0
 134 701 100 740 100 782 c 0
EndSplineSet
EndChar

StartChar: uni002C
Encoding: 292 44 37
Width: 208
VWidth: 79
Flags: HMW
LayerCount: 3
Back
SplineSet
27.7900390625 44.1494140625 m 0
 33.4384765625 99.388671875 88.248046875 129.25 133.591796875 122.614257812 c 4
 188.484375 114.58203125 203.58203125 79.365234375 196.771484375 32.826171875 c 0
 189.9609375 -13.7099609375 157.451171875 -44.2998046875 111.727539062 -48.578125 c 1
 90.6279296875 -34.5205078125 21.7958984375 -13.4775390625 27.7900390625 44.1494140625 c 0
11.5849609375 -145.053710938 m 1
 20.6640625 -132.9765625 87.2392578125 -78.91796875 61.90625 14.1474609375 c 9
 139.66796875 42.4033203125 l 25
 146.012695312 2.4716796875 203.37890625 69.6455078125 196.771484375 32.826171875 c 0
 185.129882812 -30.0673828125 87.3388671875 -148.610351562 54.0146484375 -168.109375 c 1
 11.5849609375 -145.053710938 l 1
EndSplineSet
Fore
SplineSet
11.5849609375 -145.053710938 m 1
 20.6640625 -132.9765625 87.2392578125 -78.91796875 61.90625 14.1474609375 c 9
 139.66796875 42.4033203125 l 25
 146.012695312 2.4716796875 203.37890625 69.6455078125 196.771484375 32.826171875 c 0
 185.129882812 -30.0673828125 87.3388671875 -148.610351562 54.0146484375 -168.109375 c 1
 11.5849609375 -145.053710938 l 1
27.7900390625 44.1494140625 m 0
 33.4384765625 99.388671875 88.248046875 129.25 133.591796875 122.614257812 c 4
 188.484375 114.58203125 203.58203125 79.365234375 196.771484375 32.826171875 c 0
 189.9609375 -13.7099609375 157.451171875 -44.2998046875 111.727539062 -48.578125 c 1
 90.6279296875 -34.5205078125 21.7958984375 -13.4775390625 27.7900390625 44.1494140625 c 0
EndSplineSet
Layer: 2
SplineSet
11.5849609375 -145.053710938 m 1
 20.6640625 -132.9765625 87.2392578125 -78.91796875 61.90625 14.1474609375 c 9
 139.66796875 42.4033203125 l 25
 146.012695312 2.4716796875 203.37890625 69.6455078125 196.771484375 32.826171875 c 0
 185.129882812 -30.0673828125 87.3388671875 -148.610351562 54.0146484375 -168.109375 c 1
 11.5849609375 -145.053710938 l 1
27.7900390625 44.1494140625 m 0
 33.4384765625 99.388671875 88.248046875 129.25 133.591796875 122.614257812 c 4
 188.484375 114.58203125 203.58203125 79.365234375 196.771484375 32.826171875 c 0
 189.9609375 -13.7099609375 157.451171875 -44.2998046875 111.727539062 -48.578125 c 1
 90.6279296875 -34.5205078125 21.7958984375 -13.4775390625 27.7900390625 44.1494140625 c 0
EndSplineSet
EndChar

StartChar: uni00B4
Encoding: 298 180 43
Width: 496
VWidth: 0
Flags: HMW
LayerCount: 3
Back
SplineSet
73 1120 m 9
 83 1066 l 17
 191 1081 368 1158 431 1204 c 9
 371 1298 l 21
 308 1232 165 1142 73 1120 c 9
EndSplineSet
Fore
SplineSet
73 1120 m 9
 83 1066 l 17
 191 1081 368 1158 431 1204 c 9
 371 1298 l 21
 308 1232 165 1142 73 1120 c 9
EndSplineSet
Layer: 2
SplineSet
73 1120 m 9
 83 1066 l 17
 191 1081 368 1158 431 1204 c 9
 371 1298 l 21
 308 1232 165 1142 73 1120 c 9
EndSplineSet
EndChar

StartChar: uni0078
Encoding: 305 120 50
Width: 643
VWidth: 79
Flags: HMW
LayerCount: 3
Back
SplineSet
19 54 m 5
 66.4433962264 52.9642857143 100.50735032 77.9168725623 126 112 c 4
 154.435987788 150.018307541 229.569476156 257.208333105 269 317 c 5
 328 330 l 5
 364.212195667 378.666666667 407.908652402 437.884398012 431 476 c 4
 457.524588823 519.782662151 435.183673469 537 390 538 c 5
 379 598 l 5
 450.746781116 592 544.115879828 592 608 598 c 5
 616 544 l 5
 565.851515152 544 550.643643959 520.843034809 509 465 c 4
 465.783652836 407.048011423 412.555555556 328.368421053 385 288 c 5
 332 280 l 5
 295.25203252 237.086419753 248.398373984 173.691358025 219 122 c 5
 195.128205128 87 195.076923077 47 268 50 c 5
 280 -2 l 5
 31 -2 l 5
 19 54 l 5
14 598 m 5
 108 590 212 591 286 597 c 5
 300 542 l 5
 243.28358209 540.896551724 222.571353758 518.243407708 250 478 c 5
 272.411214953 443 324.364485981 375 359 330 c 5
 382 322 l 5
 414.097483906 275.860216458 477.11547814 184.598095305 533.462574035 117.000001679 c 4
 570.860121762 72.135170714 601.490977848 59.0687345515 634 58 c 5
 646 -2 l 5
 346 -2 l 5
 337 53 l 5
 392 51.9638554217 431.070449367 65.1694594515 397 116 c 4
 365.072800239 163.6329738 312.626168224 236.553333333 275 285 c 5
 254 284 l 5
 210.246031746 343.774193548 157.796438548 426.738128167 105 502 c 4
 84.2576792446 535.130850884 52.6354166667 540.558823529 22 540 c 5
 14 598 l 5
EndSplineSet
Fore
SplineSet
7 54 m 5
 59.7641509434 52.9642857143 98.2039343117 77.2661922267 126 112 c 4
 156.424518402 150.018307541 236.812096866 257.208333105 279 317 c 5
 303 324 l 5
 343.782666964 378.333333333 390.711101971 438.750236332 419 487 c 4
 433.452451916 511.65021397 424 538.161290323 370 539 c 5
 359 599 l 5
 437.012875536 593 538.536480687 593 608 598 c 5
 616 544 l 5
 561.164740867 541 538.795632542 510.240452468 499 465 c 4
 449.842171936 409.116420775 394.777777778 328.368421053 365 288 c 5
 352 280 l 5
 312 237.086419753 261.725813085 173.224426839 229 122 c 4
 206.3411977 86.5330688145 205.565149137 47 277 50 c 5
 289 -2 l 5
 19 -2 l 5
 7 54 l 5
12 598 m 5
 110.147058824 592 218.735294118 592 296 597 c 5
 310 542 l 5
 253.28358209 540.896551724 233.908019595 519.086101924 260 478 c 4
 281.691806024 443.842694216 327.542056075 375 359 330 c 5
 372 322 l 5
 406.21672031 275.86021608 475.561775584 186.462625309 533.462890625 117 c 4
 570.860320588 72.1351703118 601.491080218 59.0687345211 634 58 c 5
 646 -2 l 5
 346 -2 l 5
 337 53 l 5
 392 51.9638554217 432.925101582 66.4628780724 397 116 c 4
 362.455816652 163.6329738 305.710280374 236.553333333 265 285 c 5
 264 284 l 5
 223.182539683 335.548387097 174.289791509 403.082359439 125 472 c 4
 84.2716014273 528.946987348 58.7556475904 541 20 540 c 5
 12 598 l 5
EndSplineSet
Layer: 2
SplineSet
9 54 m 1
 66 53 92 78 115 110 c 0
 145 152 232 263 269 326 c 1
 328 326 l 1
 364 376 425 437 449 476 c 0
 477 523 454 537 400 538 c 1
 389 598 l 1
 462 592 557 592 622 598 c 1
 630 544 l 1
 556 544 558 520 520 465 c 0
 481 408 415 333 385 294 c 1
 332 284 l 1
 292 240 241 175 209 122 c 1
 190 87 182 47 248 50 c 1
 260 -2 l 1
 21 -2 l 1
 9 54 l 1
14 598 m 1
 108 590 212 591 286 597 c 1
 300 542 l 1
 224 541 208 529 233 484 c 1
 255 449 306 381 340 336 c 1
 379 318 l 1
 430 248 544 61 624 58 c 1
 636 -2 l 1
 346 -2 l 1
 337 53 l 1
 373 49 426 69 385 136 c 0
 358 179 311 243 278 286 c 1
 244 286 l 1
 207 337 154 411 118 472 c 1
 87 527 69 541 22 540 c 1
 14 598 l 1
EndSplineSet
Colour: ff0000
EndChar

StartChar: uni00A8
Encoding: 306 168 51
Width: 496
VWidth: 0
Flags: HMW
LayerCount: 3
Back
SplineSet
73 1140 m 13
 83 1066 l 21
 191 1081 368 1158 431 1204 c 13
 371 1298 l 21
 328 1242 165 1162 73 1140 c 13
EndSplineSet
Fore
SplineSet
73 1140 m 13
 83 1066 l 21
 191 1081 368 1158 431 1204 c 13
 371 1298 l 21
 328 1242 165 1162 73 1140 c 13
EndSplineSet
Layer: 2
SplineSet
73 1140 m 13
 83 1066 l 21
 191 1081 368 1158 431 1204 c 13
 371 1298 l 21
 328 1242 165 1162 73 1140 c 13
EndSplineSet
EndChar

StartChar: uni007A
Encoding: 307 122 52
Width: 568
VWidth: 79
Flags: HMW
LayerCount: 3
Back
SplineSet
30 0 m 5
 194 0 259 0 514 0 c 1
 527 55 528 118 526 181 c 1
 524 181 477 175 467 175 c 1
 467 125 459 78 444 78 c 1
 375 68 307 67 299 67 c 0
 189 68 201 89 241 150 c 1
 260 182 491 491 536 546 c 5
 540 598 l 5
 466 593 225 588 70 598 c 1
 65 542 63 471 68 418 c 1
 129 424 l 1
 127 444 137 503 148 521 c 1
 196 529 327 534 383 525 c 1
 342 454 142 170 36 62 c 1
 30 0 l 5
EndSplineSet
Fore
SplineSet
40 0 m 1
 204 0 269 0 524 0 c 1
 537 55 538 118 536 181 c 1
 534 181 487 175 477 175 c 1
 477 125 468.808785363 80.3874413207 454 78 c 4
 379.56657924 66 307.551724138 67 299 67 c 0
 189 68 201.808390483 88.4919737378 241 150 c 0
 261.066017602 181.491973738 484.58655182 491 540 546 c 1
 534 598 l 1
 460.944680851 593 223.021276596 588 70 598 c 1
 65 542 63 471 68 418 c 1
 129 424 l 1
 127 444 137 503 148 521 c 1
 196 529 327 534 383 525 c 1
 341.763688761 453.386609071 140.610951009 166.933045356 34 58 c 1
 40 0 l 1
EndSplineSet
Layer: 2
SplineSet
30 0 m 5
 194 0 259 0 514 0 c 1
 527 55 528 118 526 181 c 1
 524 181 477 175 467 175 c 1
 467 125 459 78 444 78 c 1
 375 68 307 67 299 67 c 0
 189 68 201 89 241 150 c 1
 260 182 491 491 536 546 c 5
 540 598 l 5
 466 593 225 588 70 598 c 1
 65 542 63 471 68 418 c 1
 129 424 l 1
 127 444 137 503 148 521 c 1
 196 529 327 534 383 525 c 1
 342 454 142 170 36 62 c 1
 30 0 l 5
EndSplineSet
Colour: ff0000
EndChar

StartChar: uni0045
Encoding: 309 69 54
Width: 679
VWidth: 79
Flags: HMW
LayerCount: 3
Back
SplineSet
40 61 m 5
 111 49 133 89 140 137 c 5
 264 135 l 1
 265 117 270 77 306 73 c 0
 396 64 500 79 537 86 c 1
 482 29 l 1
 515 68 550 145 557 204 c 1
 629 212 l 1
 629 212 638 139 638 80 c 24
 638 56 631 0 631 0 c 1
 440 0 239 0 48 0 c 5
 40 61 l 5
51 800 m 5
 127 794 273 795 356 795 c 0
 442 795 551 796 648 801 c 1
 648 801 651 744 651 720 c 24
 651 661 642 588 642 588 c 1
 570 596 l 1
 563 655 538 732 495 771 c 1
 590 722 l 1
 509 730 438 733 339 733 c 0
 289 733 277 703 274 673 c 0
 255 471 262 198 264 145 c 0
 266 99 274 44 333 44 c 1
 317 26 l 1
 112 30 l 5
 112 30 132 72 140 136 c 4
 150 265 155 489 150 663 c 5
 143 711 133 743 57 739 c 5
 51 800 l 5
194 367 m 1
 194 443 l 1
 394 444 l 1
 538 461 l 1
 538 370 l 1
 413 377 319 369 194 367 c 1
EndSplineSet
Fore
SplineSet
40 61 m 5
 111 49 133 89 140 137 c 5
 264 135 l 1
 265 117 270 77 306 73 c 0
 396 64 500 79 537 86 c 1
 482 29 l 1
 515 68 550 145 557 204 c 1
 629 212 l 1
 629 212 638 139 638 80 c 24
 638 56 631 0 631 0 c 1
 440 0 239 0 48 0 c 5
 40 61 l 5
51 800 m 5
 127 794 273 795 356 795 c 0
 442 795 551 796 648 801 c 1
 648 801 651 744 651 720 c 24
 651 661 642 588 642 588 c 1
 570 596 l 1
 563 655 538 732 495 771 c 1
 590 722 l 1
 509 730 438 733 339 733 c 0
 289 733 277 703 274 673 c 0
 255 471 262 198 264 145 c 0
 266 99 274 44 333 44 c 1
 317 26 l 1
 112 30 l 5
 112 30 132 72 140 136 c 4
 150 265 159.384787769 489.381426268 150 663 c 4
 147.384787769 711.381426268 133 743 57 739 c 5
 51 800 l 5
194 367 m 1
 194 443 l 1
 394 444 l 1
 538 461 l 1
 538 370 l 1
 413 377 319 369 194 367 c 1
EndSplineSet
Layer: 2
SplineSet
40 61 m 5
 111 49 133 89 140 137 c 5
 264 135 l 1
 265 117 270 77 306 73 c 0
 396 64 500 79 537 86 c 1
 482 29 l 1
 515 68 550 145 557 204 c 1
 629 212 l 1
 629 212 638 139 638 80 c 24
 638 56 631 0 631 0 c 1
 440 0 239 0 48 0 c 5
 40 61 l 5
51 800 m 5
 127 794 273 795 356 795 c 0
 442 795 551 796 648 801 c 1
 648 801 651 744 651 720 c 24
 651 661 642 588 642 588 c 1
 570 596 l 1
 563 655 538 732 495 771 c 1
 590 722 l 1
 509 730 438 733 339 733 c 0
 289 733 277 703 274 673 c 0
 255 471 262 198 264 145 c 0
 266 99 274 44 333 44 c 1
 317 26 l 1
 112 30 l 5
 112 30 132 72 140 136 c 4
 150 265 155 489 150 663 c 5
 143 711 133 743 57 739 c 5
 51 800 l 5
194 367 m 1
 194 443 l 1
 394 444 l 1
 538 461 l 1
 538 370 l 1
 413 377 319 369 194 367 c 1
EndSplineSet
Colour: ff0000
EndChar

StartChar: uni0046
Encoding: 310 70 55
Width: 691
VWidth: 79
Flags: HMW
LayerCount: 3
Back
SplineSet
32 61 m 5
 115 57 137 89 145 137 c 5
 267 146 l 1
 265 51 377 50 394 51 c 1
 404 0 l 1
 42 0 l 5
 32 61 l 5
51 800 m 5
 127 794 253 794 336 794 c 0
 422 794 551 796 678 801 c 1
 678 801 681 744 681 720 c 24
 681 661 672 588 672 588 c 1
 600 596 l 1
 593 655 568 732 525 771 c 1
 610 721 l 1
 353 728 l 2
 295 729 279 705 276 663 c 0
 260 443 263 202 267 145 c 0
 270 101 287 49 366 49 c 1
 350 1 l 1
 117 0 l 5
 117 0 136 72 144 136 c 4
 154 270 155 482 150 663 c 5
 143 711 133 743 57 739 c 5
 51 800 l 5
184 377 m 5
 184 443 l 5
 424 444 l 1
 568 461 l 1
 568 370 l 1
 443 377 309 379 184 377 c 5
EndSplineSet
Fore
SplineSet
32 61 m 5
 115 57 137 89 145 137 c 5
 267 146 l 1
 265 51 377 50 394 51 c 1
 404 0 l 1
 42 0 l 5
 32 61 l 5
51 800 m 5
 127 794 253 794 336 794 c 0
 422 794 551 796 678 801 c 1
 678 801 681 744 681 720 c 24
 681 661 672 588 672 588 c 1
 600 596 l 1
 593 655 568 732 525 771 c 1
 610 721 l 1
 353 728 l 2
 295 729 279 705 276 663 c 0
 260 443 263 202 267 145 c 0
 270 101 287 49 366 49 c 1
 350 1 l 1
 117 0 l 5
 117 0 136 72 144 136 c 4
 154 270 159.464496284 482.385862579 150 663 c 4
 147.464496284 711.385862579 133 743 57 739 c 5
 51 800 l 5
184 377 m 5
 184 443 l 5
 424 444 l 1
 568 461 l 1
 568 370 l 1
 443 377 309 379 184 377 c 5
EndSplineSet
Layer: 2
SplineSet
32 61 m 5
 115 57 137 89 145 137 c 5
 267 146 l 1
 265 51 377 50 394 51 c 1
 404 0 l 1
 42 0 l 5
 32 61 l 5
51 800 m 5
 127 794 253 794 336 794 c 0
 422 794 551 796 678 801 c 1
 678 801 681 744 681 720 c 24
 681 661 672 588 672 588 c 1
 600 596 l 1
 593 655 568 732 525 771 c 1
 610 721 l 1
 353 728 l 2
 295 729 279 705 276 663 c 0
 260 443 263 202 267 145 c 0
 270 101 287 49 366 49 c 1
 350 1 l 1
 117 0 l 5
 117 0 136 72 144 136 c 4
 154 270 155 482 150 663 c 5
 143 711 133 743 57 739 c 5
 51 800 l 5
184 377 m 5
 184 443 l 5
 424 444 l 1
 568 461 l 1
 568 370 l 1
 443 377 309 379 184 377 c 5
EndSplineSet
Colour: ff0000
EndChar

StartChar: uni0050
Encoding: 311 80 56
Width: 650
VWidth: 79
Flags: HMW
LayerCount: 3
Back
SplineSet
17 797 m 1
 205 785 276 802 426 802 c 0
 581 802 639 717 640 607 c 0
 642 438 521 303 363 301 c 4
 312 300 244 314 244 314 c 5
 243 214 243 197 253 123 c 0
 260 65 305 61 358 61 c 1
 380 0 l 1
 312 -1 107 0 33 0 c 1
 23 61 l 1
 102 51 133 77 135 127 c 0
 144 342 147 467 139 627 c 0
 136 685 119 741 27 734 c 1
 17 797 l 1
246 409 m 5
 280 383 324 366 376 367 c 4
 489 368 526 464 527 571 c 0
 528 684 455 744 375 746 c 0
 329 747 275 738 252 729 c 1
 244 652 247 507 246 409 c 5
EndSplineSet
Fore
SplineSet
17 797 m 1
 205 785 276 802 426 802 c 0
 581 802 639 717 640 607 c 0
 642 438 521 303 363 301 c 4
 312 300 244 314 244 314 c 5
 243 214 243 197 253 123 c 0
 260 65 305 61 358 61 c 1
 380 0 l 1
 312 -1 107 0 33 0 c 1
 23 61 l 1
 102 51 133 77 135 127 c 0
 144 342 147 467 139 627 c 0
 136 685 119 741 27 734 c 1
 17 797 l 1
246 409 m 5
 280 383 324 366 376 367 c 4
 489 368 526 464 527 571 c 0
 528 684 455 744 375 746 c 0
 329 747 275 738 252 729 c 1
 244 652 247 507 246 409 c 5
EndSplineSet
Layer: 2
SplineSet
17 797 m 1
 205 785 276 802 426 802 c 0
 581 802 639 717 640 607 c 0
 642 438 521 303 363 301 c 4
 312 300 244 314 244 314 c 5
 243 214 243 197 253 123 c 0
 260 65 305 61 358 61 c 1
 380 0 l 1
 312 -1 107 0 33 0 c 1
 23 61 l 1
 102 51 133 77 135 127 c 0
 144 342 147 467 139 627 c 0
 136 685 119 741 27 734 c 1
 17 797 l 1
246 409 m 5
 280 383 324 366 376 367 c 4
 489 368 526 464 527 571 c 0
 528 684 455 744 375 746 c 0
 329 747 275 738 252 729 c 1
 244 652 247 507 246 409 c 5
EndSplineSet
EndChar

StartChar: uni0053
Encoding: 312 83 57
Width: 636
VWidth: 153
Flags: HMW
LayerCount: 3
Back
SplineSet
64 24 m 5
 59 69 61 149 73 226 c 5
 169 215 l 5
 173 155 187 98 225 54 c 5
 166 68 139 124 128 179 c 5
 165 136 197.40625 63.0537109375 297 54 c 4
 418 43 467.051757812 95.4609375 476 155 c 4
 502 328 140 345 105 554 c 4
 85 680 175 814 376 810 c 4
 496 808 572 781 572 781 c 5
 578 733 575 642 568 598 c 5
 476 609 l 5
 474 657 456 733 429 795 c 6
 499 630 l 5
 480 653 455 754 341 755 c 4
 260 756 222 692 231 623 c 4
 253 452 572 459 592 233 c 4
 605 83 514 -16 294 -17 c 4
 161.000976562 -17.6044921875 64 24 64 24 c 5
EndSplineSet
Fore
SplineSet
64 24 m 5
 59 69 61 149 73 226 c 5
 169 215 l 5
 173 155 187 98 225 54 c 5
 166 68 139 124 128 179 c 5
 165 136 197.40625 63.0537109375 297 54 c 4
 418 43 467.051757812 95.4609375 476 155 c 4
 502 328 140 345 105 554 c 4
 85 680 175 814 376 810 c 4
 496 808 572 781 572 781 c 5
 578 733 575 642 568 598 c 5
 476 609 l 5
 474 657 456 733 429 795 c 6
 499 630 l 5
 480 653 455 754 341 755 c 4
 260 756 222 692 231 623 c 4
 253 452 572 459 592 233 c 4
 605 83 514 -16 294 -17 c 4
 161.000976562 -17.6044921875 64 24 64 24 c 5
EndSplineSet
Layer: 2
SplineSet
64 24 m 5
 59 69 61 149 73 226 c 5
 169 215 l 5
 173 155 187 98 225 54 c 5
 166 68 139 124 128 179 c 5
 165 136 197.40625 63.0537109375 297 54 c 4
 418 43 467.051757812 95.4609375 476 155 c 4
 502 328 140 345 105 554 c 4
 85 680 175 814 376 810 c 4
 496 808 572 781 572 781 c 5
 578 733 575 642 568 598 c 5
 476 609 l 5
 474 657 456 733 429 795 c 6
 499 630 l 5
 480 653 455 754 341 755 c 4
 260 756 222 692 231 623 c 4
 253 452 572 459 592 233 c 4
 605 83 514 -16 294 -17 c 4
 161.000976562 -17.6044921875 64 24 64 24 c 5
EndSplineSet
EndChar

StartChar: uni0055
Encoding: 313 85 58
Width: 767
VWidth: 79
Flags: HMW
LayerCount: 3
Back
SplineSet
-9 800 m 1
 57 794 75 791 147 792 c 0
 188 792 278 793 339 801 c 1
 339 801 344 755 347 736 c 1
 246 750 220 679 215 612 c 0
 206 484 204 298 208 255 c 0
 218 138 282.870117188 53.642578125 417 65 c 0
 511.917881182 73.0371532239 578.082839218 146.32902485 587 267 c 4
 596 388.791992188 587.44440464 515.368963952 591 641 c 1
 591 642 l 1
 590 733 534 738 464 728 c 1
 461 744 457 790 455 799 c 1
 521 793 569 790 641 791 c 0
 682 791 707 792 768 800 c 1
 768 800 773 754 776 735 c 1
 726 742 682 716 676 663 c 1
 670 499 674.932065851 346.626536095 666 240 c 4
 650 49 500 -14 371 -14 c 0
 256 -14 92 30 92 235 c 0
 92 359 103 556 99 640 c 0
 95 711 83 740 0 729 c 1
 -3 745 -7 791 -9 800 c 1
EndSplineSet
Fore
SplineSet
-9 800 m 1
 57 794 75 791 147 792 c 0
 188 792 278 793 339 801 c 1
 339 801 344 755 347 736 c 1
 246 750 220 679 215 612 c 0
 206 484 204 298 208 255 c 0
 218 138 282.870117188 53.642578125 417 65 c 0
 511.917881182 73.0371532239 578.082839218 146.32902485 587 267 c 4
 596 388.791992188 587.44440464 515.368963952 591 641 c 1
 591 642 l 1
 590 733 534 738 464 728 c 1
 461 744 457 790 455 799 c 1
 521 793 569 790 641 791 c 0
 682 791 707 792 768 800 c 1
 768 800 773 754 776 735 c 1
 726 742 678.943516286 716.228586163 676 663 c 0
 666.943516286 499.228586163 674.932065851 346.626536095 666 240 c 4
 650 49 500 -14 371 -14 c 0
 256 -14 92 30 92 235 c 0
 92 359 103 556 99 640 c 0
 95 711 83 740 0 729 c 1
 -3 745 -7 791 -9 800 c 1
EndSplineSet
Layer: 2
SplineSet
-9 800 m 1
 57 794 75 791 147 792 c 0
 188 792 278 793 339 801 c 1
 339 801 344 755 347 736 c 1
 246 750 220 679 215 612 c 0
 206 484 204 298 208 255 c 0
 218 138 282.870117188 53.642578125 417 65 c 0
 511.917881182 73.0371532239 578.082839218 146.32902485 587 267 c 4
 596 388.791992188 587.44440464 515.368963952 591 641 c 1
 591 642 l 1
 590 733 534 738 464 728 c 1
 461 744 457 790 455 799 c 1
 521 793 569 790 641 791 c 0
 682 791 707 792 768 800 c 1
 768 800 773 754 776 735 c 1
 726 742 682 716 676 663 c 1
 670 499 674.932065851 346.626536095 666 240 c 4
 650 49 500 -14 371 -14 c 0
 256 -14 92 30 92 235 c 0
 92 359 103 556 99 640 c 0
 95 711 83 740 0 729 c 1
 -3 745 -7 791 -9 800 c 1
EndSplineSet
Colour: ff0000
EndChar

StartChar: uni0049
Encoding: 314 73 59
Width: 422
VWidth: 79
Flags: HMW
LayerCount: 3
Back
SplineSet
20 69 m 1
 93 54 145 63 150 146 c 0
 158 257 160 460 155 643 c 0
 153.37658823 702.416870788 116 739 28 729 c 1
 25 745 21 791 19 800 c 1
 85 794 133 791 205 792 c 0
 246 792 336 793 397 801 c 1
 397 801 402 755 405 736 c 1
 354 743 286.9921875 723.918945312 282 669 c 4
 270 537 265 354 273 139 c 0
 275.634791164 68.1899874628 337 62 389 69 c 1
 400 0 l 1
 28 -1 l 1
 20 69 l 1
EndSplineSet
Fore
SplineSet
19 800 m 1
 85 794 133 791 205 792 c 0
 246 792 336 793 397 801 c 1
 397 801 402 755 405 736 c 1
 354 743 286.9921875 723.918945312 282 669 c 4
 270 537 265 354 273 139 c 0
 275.634791164 68.1899874628 337 62 389 69 c 1
 400 0 l 1
 28 -1 l 1
 20 69 l 1
 93 54 145 63 150 146 c 0
 158 257 160 460 155 643 c 0
 153.37658823 702.416870788 116 739 28 729 c 1
 25 745 21 791 19 800 c 1
EndSplineSet
Layer: 2
SplineSet
20 69 m 1
 93 54 145 63 150 146 c 0
 158 257 160 460 155 643 c 0
 153.37658823 702.416870788 116 739 28 729 c 1
 25 745 21 791 19 800 c 1
 85 794 133 791 205 792 c 0
 246 792 336 793 397 801 c 1
 397 801 402 755 405 736 c 1
 354 743 286.9921875 723.918945312 282 669 c 4
 270 537 265 354 273 139 c 0
 275.634791164 68.1899874628 337 62 389 69 c 1
 400 0 l 1
 28 -1 l 1
 20 69 l 1
EndSplineSet
EndChar

StartChar: uni004F
Encoding: 315 79 60
Width: 806
VWidth: 153
Flags: HMW
LayerCount: 3
Back
SplineSet
18.0029296875 302.139648438 m 0
 5.8486328125 592.892578125 184.879882812 795.4765625 420.72265625 804.151367188 c 0
 607.637695312 811.026367188 748.21875 709.872070312 749.262695312 450.750976562 c 0
 750.397460938 217.6484375 643.276367188 -9.7607421875 356.286132812 -15.2470703125 c 0
 147.286132812 -19.2421875 26.7724609375 108.328125 18.0029296875 302.139648438 c 0
143.572265625 392.72265625 m 4
 144.981445312 190.638671875 244.008789062 36.220703125 414.352539062 57.8310546875 c 4
 552.061523438 75.3017578125 625.526367188 200.548828125 624.521484375 412.618164062 c 0
 623.596679688 607.708007812 502.778320312 754.041015625 349.448242188 731.96484375 c 4
 259.952148438 719.079101562 141.912109375 630.81640625 143.572265625 392.72265625 c 4
EndSplineSet
Fore
SplineSet
31.0029296875 302.139648438 m 4
 18.8486328125 592.892578125 197.879537172 795.476723072 433.72265625 804.151367188 c 4
 620.637695312 811.026367188 761.21875 709.872070312 762.262695312 450.750976562 c 4
 763.397460938 217.6484375 656.276602785 -9.76113462238 369.286132812 -15.2470703125 c 4
 160.286132812 -19.2421875 39.7724609375 108.328125 31.0029296875 302.139648438 c 4
156.572265625 392.72265625 m 4
 157.981335073 190.638889192 257.008789062 36.220703125 427.352539062 57.8310546875 c 4
 565.061523438 75.3017578125 638.526367188 200.548828125 637.521484375 412.618164062 c 4
 636.597056058 607.708473936 515.778258235 754.041193827 362.448242188 731.96484375 c 4
 272.952142366 719.079256954 154.912109375 630.81640625 156.572265625 392.72265625 c 4
EndSplineSet
Layer: 2
SplineSet
18.0029296875 302.139648438 m 0
 5.8486328125 592.892578125 184.879882812 795.4765625 420.72265625 804.151367188 c 0
 607.637695312 811.026367188 748.21875 709.872070312 749.262695312 450.750976562 c 0
 750.397460938 217.6484375 643.276367188 -9.7607421875 356.286132812 -15.2470703125 c 0
 147.286132812 -19.2421875 26.7724609375 108.328125 18.0029296875 302.139648438 c 0
143.572265625 392.72265625 m 4
 144.981445312 190.638671875 244.008789062 36.220703125 414.352539062 57.8310546875 c 4
 552.061523438 75.3017578125 625.526367188 200.548828125 624.521484375 412.618164062 c 0
 623.596679688 607.708007812 502.778320312 754.041015625 349.448242188 731.96484375 c 4
 259.952148438 719.079101562 141.912109375 630.81640625 143.572265625 392.72265625 c 4
EndSplineSet
EndChar

StartChar: uni0054
Encoding: 336 84 81
Width: 660
VWidth: 79
Flags: HMW
LayerCount: 3
Back
SplineSet
-6 594 m 1
 -1 641 6 743 7 800 c 1
 115 794 202 791 320 792 c 0
 389 792 565 793 667 801 c 1
 665.043945312 773.125 655 592.036132812 655 588 c 1
 583 596 l 1
 576 655 551 732 508 771 c 1
 593 702 l 1
 504 733 405 721 320 728 c 1
 229 727 120 723 83 724 c 5
 137 761 l 5
 99 725 81 641 77 605 c 5
 -6 594 l 1
145 61 m 1
 221 57 244 89 251 137 c 1
 376 146 l 1
 374 51 460 50 478 51 c 1
 488 0 l 1
 155 0 l 1
 145 61 l 1
196 759 m 1
 259 757 400 780 400 780 c 1
 375 588 372 202 376 145 c 0
 379 101 368 49 450 49 c 1
 434 1 l 1
 222 0 l 1
 222 0 245 72 250 136 c 0
 260 266 264 516 256 699 c 0
 254 743 233 746 203 746 c 1
 196 759 l 1
EndSplineSet
Fore
SplineSet
-6 594 m 1
 -1 641 6 743 7 800 c 1
 115 794 202 791 320 792 c 0
 389 792 565 793 667 801 c 1
 665.043945312 773.125 655 592.036132812 655 588 c 1
 583 596 l 1
 576 655 551 732 508 771 c 1
 593 702 l 1
 504 733 405.287748241 728 320 728 c 0
 228.99450566 728 120 723 83 724 c 5
 137 761 l 5
 99 725 81 641 77 605 c 5
 -6 594 l 1
145 61 m 1
 221 57 244 89 251 137 c 1
 376 146 l 1
 374 51 460 50 478 51 c 1
 488 0 l 1
 155 0 l 1
 145 61 l 1
196 759 m 1
 259 757 400 780 400 780 c 1
 375 588 372 202 376 145 c 0
 379 101 368 49 450 49 c 1
 434 1 l 1
 222 0 l 1
 222 0 245 72 250 136 c 0
 260 266 264 516 256 699 c 0
 254 743 233 746 203 746 c 1
 196 759 l 1
EndSplineSet
Layer: 2
SplineSet
-6 594 m 1
 -1 641 6 743 7 800 c 1
 115 794 202 791 320 792 c 0
 389 792 565 793 667 801 c 1
 665.043945312 773.125 655 592.036132812 655 588 c 1
 583 596 l 1
 576 655 551 732 508 771 c 1
 593 702 l 1
 504 733 405 721 320 728 c 1
 229 727 120 723 83 724 c 5
 137 761 l 5
 99 725 81 641 77 605 c 5
 -6 594 l 1
145 61 m 1
 221 57 244 89 251 137 c 1
 376 146 l 1
 374 51 460 50 478 51 c 1
 488 0 l 1
 155 0 l 1
 145 61 l 1
196 759 m 1
 259 757 400 780 400 780 c 1
 375 588 372 202 376 145 c 0
 379 101 368 49 450 49 c 1
 434 1 l 1
 222 0 l 1
 222 0 245 72 250 136 c 0
 260 266 264 516 256 699 c 0
 254 743 233 746 203 746 c 1
 196 759 l 1
EndSplineSet
EndChar

StartChar: uni0052
Encoding: 337 82 82
Width: 788
VWidth: 79
Flags: HMW
LayerCount: 3
Back
SplineSet
17 797 m 1
 205 785 276 802 426 802 c 0
 581 802 639 717 640 607 c 0
 642 438 521 343 363 341 c 0
 312 340 244 334 244 334 c 1
 243 234 243 197 253 123 c 0
 260 65 305 61 358 61 c 1
 380 0 l 1
 312 -1 107 0 33 0 c 1
 23 61 l 1
 102 51 133 77 135 127 c 0
 144 342 147 467 139 627 c 0
 136 685 119 741 27 734 c 1
 17 797 l 1
246 429 m 1
 273 413 324.350585938 400.890625 376 407 c 0
 469 418 516 464 517 571 c 0
 518 684 455 744 375 746 c 0
 329 747 275 738 252 729 c 1
 244 652 247 527 246 429 c 1
383 351 m 1
 412 344 429 387 463 397 c 1
 463 397 596 72 766 63 c 5
 778 0 l 1
 602 0 l 1
 510.83984375 6.859375 419.147460938 276.52734375 383 351 c 1
EndSplineSet
Fore
SplineSet
17 797 m 1
 205 785 276 802 426 802 c 0
 581 802 639 717 640 607 c 0
 642 438 521 343 363 341 c 0
 312 340 244 334 244 334 c 1
 243 234 243 197 253 123 c 0
 260 65 305 61 358 61 c 1
 380 0 l 1
 312 -1 107 0 33 0 c 1
 23 61 l 1
 102 51 133 77 135 127 c 0
 144 342 147 467 139 627 c 0
 136 685 119 741 27 734 c 1
 17 797 l 1
246 429 m 1
 273 413 324.350585938 400.890625 376 407 c 0
 469 418 516 464 517 571 c 0
 518 684 455 744 375 746 c 0
 329 747 275 738 252 729 c 1
 244 652 247 527 246 429 c 1
383 351 m 1
 412 344 429 387 463 397 c 1
 463 397 596 72 766 63 c 5
 778 0 l 1
 602 0 l 1
 510.83984375 6.859375 419.147460938 276.52734375 383 351 c 1
EndSplineSet
Layer: 2
SplineSet
17 797 m 1
 205 785 276 802 426 802 c 0
 581 802 639 717 640 607 c 0
 642 438 521 343 363 341 c 0
 312 340 244 334 244 334 c 1
 243 234 243 197 253 123 c 0
 260 65 305 61 358 61 c 1
 380 0 l 1
 312 -1 107 0 33 0 c 1
 23 61 l 1
 102 51 133 77 135 127 c 0
 144 342 147 467 139 627 c 0
 136 685 119 741 27 734 c 1
 17 797 l 1
246 429 m 1
 273 413 324.350585938 400.890625 376 407 c 0
 469 418 516 464 517 571 c 0
 518 684 455 744 375 746 c 0
 329 747 275 738 252 729 c 1
 244 652 247 527 246 429 c 1
383 351 m 1
 412 344 429 387 463 397 c 1
 463 397 596 72 766 63 c 5
 778 0 l 1
 602 0 l 1
 510.83984375 6.859375 419.147460938 276.52734375 383 351 c 1
EndSplineSet
EndChar

StartChar: uni0051
Encoding: 338 81 83
Width: 842
VWidth: 153
Flags: HMW
LayerCount: 3
Back
SplineSet
234 12 m 1
 305 21 l 1
 361 -80 567 -126 680 -128 c 0
 803 -130 892 -96 892 -96 c 1
 907.965820312 -130 l 1
 898 -214 l 1
 835 -234 768 -240 655 -239 c 0
 411 -235 263 -58 234 12 c 1
EndSplineSet
Refer: 60 79 N 1 0 0 1 0 0 2
Fore
SplineSet
234 12 m 1
 305 21 l 1
 361 -80 567 -126 680 -128 c 0
 803 -130 892 -96 892 -96 c 1
 907.965820312 -130 l 1
 898 -214 l 1
 835 -234 768 -240 655 -239 c 0
 411 -235 263 -58 234 12 c 1
EndSplineSet
Refer: 60 79 N 1 0 0 1 0 0 2
Layer: 2
SplineSet
234 12 m 1
 305 21 l 1
 361 -80 567 -126 680 -128 c 0
 803 -130 892 -96 892 -96 c 1
 907.965820312 -130 l 1
 898 -214 l 1
 835 -234 768 -240 655 -239 c 0
 411 -235 263 -58 234 12 c 1
EndSplineSet
Refer: 60 79 N 1 0 0 1 0 0 2
EndChar

StartChar: uni004C
Encoding: 339 76 84
Width: 679
VWidth: 79
Flags: HMW
LayerCount: 3
Back
SplineSet
60 0 m 5
 52 69 l 5
 145 46 148 89 155 137 c 1
 269 135 l 1
 270 117 275 77 311 73 c 0
 401 64 505 79 542 86 c 1
 487 29 l 1
 520 68 555 145 562 204 c 1
 634 212 l 1
 634 212 643 139 643 80 c 24
 643 56 636 0 636 0 c 1
 440 0 256 0 60 0 c 5
61 800 m 1
 137 794 193 792 276 792 c 0
 314 792 351 794 396 796 c 1
 392 732 l 1
 375 732 357 733 339 733 c 0
 289 733 287 693 285 673 c 0
 263 471 267 198 269 145 c 0
 271 99 279 44 338 44 c 1
 322 26 l 1
 127 30 l 1
 127 30 147 72 155 136 c 0
 165 265 165 489 160 663 c 1
 153 711 143 743 67 739 c 1
 61 800 l 1
EndSplineSet
Fore
SplineSet
52 69 m 5
 145 46 148 89 155 137 c 1
 269 135 l 1
 270 117 275 77 311 73 c 0
 401 64 505 79 542 86 c 1
 487 29 l 1
 520 68 555 145 562 204 c 1
 634 212 l 1
 634 212 643 139 643 80 c 24
 643 56 636 0 636 0 c 1
 440 0 256 0 60 0 c 5
 52 69 l 5
61 800 m 1
 137 794 193 792 276 792 c 0
 314 792 351 794 396 796 c 1
 392 732 l 1
 375 732 357 733 339 733 c 0
 289 733 287 693 285 673 c 0
 263 471 267 198 269 145 c 0
 271 99 279 44 338 44 c 1
 322 26 l 1
 127 30 l 1
 127 30 147 72 155 136 c 0
 165 265 169.384787769 489.381426268 160 663 c 0
 157.384787769 711.381426268 143 743 67 739 c 1
 61 800 l 1
EndSplineSet
Layer: 2
SplineSet
60 0 m 5
 52 69 l 5
 145 46 148 89 155 137 c 1
 269 135 l 1
 270 117 275 77 311 73 c 0
 401 64 505 79 542 86 c 1
 487 29 l 1
 520 68 555 145 562 204 c 1
 634 212 l 1
 634 212 643 139 643 80 c 24
 643 56 636 0 636 0 c 1
 440 0 256 0 60 0 c 5
61 800 m 1
 137 794 193 792 276 792 c 0
 314 792 351 794 396 796 c 1
 392 732 l 1
 375 732 357 733 339 733 c 0
 289 733 287 693 285 673 c 0
 263 471 267 198 269 145 c 0
 271 99 279 44 338 44 c 1
 322 26 l 1
 127 30 l 1
 127 30 147 72 155 136 c 0
 165 265 165 489 160 663 c 1
 153 711 143 743 67 739 c 1
 61 800 l 1
EndSplineSet
EndChar

StartChar: uni0047
Encoding: 340 71 85
Width: 827
VWidth: 79
Flags: HMW
LayerCount: 3
Back
SplineSet
37 299 m 0
 35 537 172 802 503 802 c 0
 624 802 703 767 703 767 c 1
 706 716 712 616 709 574 c 1
 643 577 l 1
 611 665 548 748 502 755 c 1
 516 776 698 747 645 652 c 1
 628 656 551 734 428 734 c 0
 278 734 174 602 171 406 c 0
 168 232 239 50 426 47 c 0
 535 45 581 97 626 149 c 1
 695 116 l 1
 622 1 499 -27 392 -27 c 0
 178 -27 38 92 37 299 c 0
555 46 m 5
 579.953125 108.3828125 582.502339993 195.282167658 581.641625227 266.156616799 c 0
 578.362127455 306.724019986 553.82131021 332.622174208 485 329 c 1
 479 390 l 1
 592 382 666 385 774 390 c 1
 784 330 l 1
 767.152585212 330.935967488 705.627378333 338.00418095 699.45710901 261.011195447 c 1
 700.775446194 208.198485326 699.40071391 151.205709564 695 116 c 1
 555 46 l 5
EndSplineSet
Fore
SplineSet
37 299 m 0
 35 537 172 802 503 802 c 0
 624 802 703 767 703 767 c 1
 706 716 712 616 709 574 c 1
 643 577 l 1
 611 665 548 748 502 755 c 1
 516 776 698 747 645 652 c 1
 628 656 551 734 428 734 c 0
 278 734 174 602 171 406 c 0
 168 232 239 50 426 47 c 0
 535 45 581 97 626 149 c 1
 695 116 l 1
 622 1 499 -27 392 -27 c 0
 178 -27 38 92 37 299 c 0
479 390 m 1
 592 382 666 385 774 390 c 1
 784 330 l 1
 767.152585212 330.935967488 699.45710901 338.25102999 699.45710901 261.011195447 c 0
 699.45710901 208.182033394 699.40071391 151.205709564 695 116 c 1
 555 46 l 5
 579.953125 108.3828125 582.502339993 195.282167658 581.641625227 266.156616799 c 0
 578.362127455 306.724019986 553.82131021 332.622174208 485 329 c 1
 479 390 l 1
EndSplineSet
Layer: 2
SplineSet
37 299 m 0
 35 537 172 802 503 802 c 0
 624 802 703 767 703 767 c 1
 706 716 712 616 709 574 c 1
 643 577 l 1
 611 665 548 748 502 755 c 1
 516 776 698 747 645 652 c 1
 628 656 551 734 428 734 c 0
 278 734 174 602 171 406 c 0
 168 232 239 50 426 47 c 0
 535 45 581 97 626 149 c 1
 695 116 l 1
 622 1 499 -27 392 -27 c 0
 178 -27 38 92 37 299 c 0
555 46 m 5
 579.953125 108.3828125 582.502339993 195.282167658 581.641625227 266.156616799 c 0
 578.362127455 306.724019986 553.82131021 332.622174208 485 329 c 1
 479 390 l 1
 592 382 666 385 774 390 c 1
 784 330 l 1
 767.152585212 330.935967488 705.627378333 338.00418095 699.45710901 261.011195447 c 1
 700.775446194 208.198485326 699.40071391 151.205709564 695 116 c 1
 555 46 l 5
EndSplineSet
Colour: ff0000
EndChar

StartChar: uni0044
Encoding: 341 68 86
Width: 799
VWidth: 79
Flags: HMW
LayerCount: 3
Back
SplineSet
17 798 m 1
 209 786 356 803 446 803 c 0
 614 803 768 711 766 463 c 0
 762 142 597 4 320 0 c 0
 252 -1 107 0 33 0 c 1
 23 61 l 1
 102 51 133 77 135 127 c 0
 144 342 147 468 139 628 c 0
 136 686 119 742 27 735 c 1
 17 798 l 1
252 719 m 1
 236 483 240 338 253 142 c 1
 260 80 305 74 358 75 c 0
 549 77 646 196 652 372 c 0
 660 596 541 734 373 738 c 0
 319 739 279 729 252 719 c 1
EndSplineSet
Fore
SplineSet
17 798 m 1
 209 786 356 803 446 803 c 0
 614 803 768 711 766 463 c 0
 762 142 597 4 320 0 c 0
 252 -1 107 0 33 0 c 1
 23 61 l 1
 102 51 133 77 135 127 c 0
 144 342 147 468 139 628 c 0
 136 686 119 742 27 735 c 1
 17 798 l 1
252 719 m 1
 236 483 237.821328403 337.804863599 253 142 c 0
 257.821328403 79.8048635992 305 74 358 75 c 0
 549 77 646 196 652 372 c 0
 660 596 541 734 373 738 c 0
 319 739 279 729 252 719 c 1
EndSplineSet
Layer: 2
SplineSet
17 798 m 1
 209 786 356 803 446 803 c 0
 614 803 768 711 766 463 c 0
 762 142 597 4 320 0 c 0
 252 -1 107 0 33 0 c 1
 23 61 l 1
 102 51 133 77 135 127 c 0
 144 342 147 468 139 628 c 0
 136 686 119 742 27 735 c 1
 17 798 l 1
252 719 m 1
 236 483 240 338 253 142 c 1
 260 80 305 74 358 75 c 0
 549 77 646 196 652 372 c 0
 660 596 541 734 373 738 c 0
 319 739 279 729 252 719 c 1
EndSplineSet
Colour: ff0000
EndChar

StartChar: uni004A
Encoding: 342 74 87
Width: 422
VWidth: 79
Flags: HMW
LayerCount: 3
Back
SplineSet
-34 -193 m 1
 -7 -142 l 1
 173 -187 162 -18 166 84 c 0
 171 205 158 460 155 643 c 0
 154 734 68 739 38 729 c 1
 35 745 31 791 29 800 c 1
 95 794 133 791 205 792 c 0
 246 792 326 793 387 801 c 1
 387 801 392 755 395 736 c 1
 344 743 285 720 282 665 c 0
 271 415 272 261 278 39 c 0
 282 -94 243 -226 76 -227 c 0
 21 -227 -20 -201 -34 -193 c 1
EndSplineSet
Fore
SplineSet
-34 -193 m 1
 -7 -142 l 1
 173 -187 162 -18 166 84 c 0
 171 205 158 460 155 643 c 0
 154 734 68 739 38 729 c 1
 35 745 31 791 29 800 c 1
 95 794 133 791 205 792 c 0
 246 792 326 793 387 801 c 1
 387 801 392 755 395 736 c 1
 344 743 285 720 282 665 c 0
 271 415 272 261 278 39 c 0
 282 -94 243 -226 76 -227 c 0
 21 -227 -20 -201 -34 -193 c 1
EndSplineSet
Layer: 2
SplineSet
-34 -193 m 1
 -7 -142 l 1
 173 -187 162 -18 166 84 c 0
 171 205 158 460 155 643 c 0
 154 734 68 739 38 729 c 1
 35 745 31 791 29 800 c 1
 95 794 133 791 205 792 c 0
 246 792 326 793 387 801 c 1
 387 801 392 755 395 736 c 1
 344 743 285 720 282 665 c 0
 271 415 272 261 278 39 c 0
 282 -94 243 -226 76 -227 c 0
 21 -227 -20 -201 -34 -193 c 1
EndSplineSet
EndChar

StartChar: uni004B
Encoding: 343 75 88
Width: 752
VWidth: 79
Flags: HMW
LayerCount: 3
Back
SplineSet
22 64 m 1
 98 60 133 89 140 137 c 1
 248 146 l 1
 246 51 310 53 328 54 c 1
 338 0 l 1
 32 0 l 1
 22 64 l 1
23 798 m 1
 106 796 272 810 272 810 c 1
 247 597 244 208 248 145 c 0
 251 101 218 52 300 52 c 1
 284 1 l 1
 109 0 l 1
 109 0 131 72 139 136 c 0
 149 271 148 489 143 679 c 0
 138 723 108 735 30 735 c 1
 23 798 l 1
194 489 m 5
 225 477 258 458 345 458 c 1
 365 468 475 629 518 692 c 0
 532 713 528 739 450 736 c 1
 441 799 l 1
 558 797 709 802 709 802 c 1
 718 737 l 1
 678 738 650 731 621 699 c 0
 560 630 420 416 389 389 c 1
 358 387 281 390 229 380 c 1
 194 489 l 5
253 469 m 1
 282 462 342 456 376 466 c 1
 376 466 616 60 766 61 c 1
 778 0 l 1
 664 5 586 3 472 0 c 1
 458 57 l 1
 494 53 552 61 507 126 c 1
 485 156 306 390 253 469 c 1
EndSplineSet
Fore
SplineSet
22 64 m 1
 98 60 133 89 140 137 c 1
 248 146 l 1
 246 51 310 53 328 54 c 1
 338 0 l 1
 32 0 l 1
 22 64 l 1
23 798 m 1
 106 796 272 810 272 810 c 1
 247 597 244 208 248 145 c 0
 251 101 218 52 300 52 c 1
 284 1 l 1
 109 0 l 1
 109 0 131 72 139 136 c 0
 149 271 148 489 143 679 c 0
 138 723 108 735 30 735 c 1
 23 798 l 1
194 489 m 5
 225 477 258 458 345 458 c 1
 365 468 475 629 518 692 c 0
 532 713 528 739 450 736 c 1
 441 799 l 1
 558 797 709 802 709 802 c 1
 718 737 l 1
 678 738 650 731 621 699 c 0
 560 630 420 416 389 389 c 1
 358 387 281 390 229 380 c 1
 194 489 l 5
253 469 m 1
 282 462 342 456 376 466 c 1
 376 466 616 60 766 61 c 1
 778 0 l 1
 664 5 586 3 472 0 c 1
 458 57 l 1
 494 53 552.560437387 61.3993798247 507 126 c 0
 485.560437387 156.399379825 306 390 253 469 c 1
EndSplineSet
Layer: 2
SplineSet
22 64 m 1
 98 60 133 89 140 137 c 1
 248 146 l 1
 246 51 310 53 328 54 c 1
 338 0 l 1
 32 0 l 1
 22 64 l 1
23 798 m 1
 106 796 272 810 272 810 c 1
 247 597 244 208 248 145 c 0
 251 101 218 52 300 52 c 1
 284 1 l 1
 109 0 l 1
 109 0 131 72 139 136 c 0
 149 271 148 489 143 679 c 0
 138 723 108 735 30 735 c 1
 23 798 l 1
194 489 m 5
 225 477 258 458 345 458 c 1
 365 468 475 629 518 692 c 0
 532 713 528 739 450 736 c 1
 441 799 l 1
 558 797 709 802 709 802 c 1
 718 737 l 1
 678 738 650 731 621 699 c 0
 560 630 420 416 389 389 c 1
 358 387 281 390 229 380 c 1
 194 489 l 5
253 469 m 1
 282 462 342 456 376 466 c 1
 376 466 616 60 766 61 c 1
 778 0 l 1
 664 5 586 3 472 0 c 1
 458 57 l 1
 494 53 552 61 507 126 c 1
 485 156 306 390 253 469 c 1
EndSplineSet
Colour: ff0000
EndChar

StartChar: uni005A
Encoding: 344 90 89
Width: 679
VWidth: 79
Flags: HMW
LayerCount: 3
Back
SplineSet
12 0 m 1
 13 14 17 46 19 71 c 1
 93 128 347 542 447 702 c 0
 458 720 463 733 413 733 c 0
 340 733 221 731 163 727 c 1
 140 687 137 637 132 596 c 1
 60 588 l 1
 60 588 51 661 51 720 c 0
 51 744 54 801 54 801 c 1
 101 803 210 796 296 796 c 0
 379 796 581 794 657 800 c 1
 645 739 l 1
 556 672 196 74 177 56 c 1
 136 115 l 1
 167 85 251 76 307 73 c 0
 384 68 500 75 547 82 c 1
 567 120 574 166 578 204 c 1
 650 212 l 1
 650 212 659 139 659 80 c 0
 659 56 652 0 652 0 c 1
 439 0 225 0 12 0 c 1
EndSplineSet
Fore
SplineSet
12 0 m 1
 13 14 17 46 19 71 c 1
 93 128 347 542 447 702 c 0
 458 720 463 733 413 733 c 0
 340 733 221 731 163 727 c 1
 140 687 137 637 132 596 c 1
 60 588 l 1
 60 588 51 661 51 720 c 0
 51 744 54 801 54 801 c 1
 101 803 210 796 296 796 c 0
 379 796 581 794 657 800 c 1
 645 739 l 1
 556 672 196 74 177 56 c 1
 136 115 l 1
 167 85 251 76 307 73 c 0
 384 68 500 75 547 82 c 1
 567 120 574 166 578 204 c 1
 650 212 l 1
 650 212 659 139 659 80 c 0
 659 56 652 0 652 0 c 1
 439 0 225 0 12 0 c 1
EndSplineSet
Layer: 2
SplineSet
12 0 m 1
 13 14 17 46 19 71 c 1
 93 128 347 542 447 702 c 0
 458 720 463 733 413 733 c 0
 340 733 221 731 163 727 c 1
 140 687 137 637 132 596 c 1
 60 588 l 1
 60 588 51 661 51 720 c 0
 51 744 54 801 54 801 c 1
 101 803 210 796 296 796 c 0
 379 796 581 794 657 800 c 1
 645 739 l 1
 556 672 196 74 177 56 c 1
 136 115 l 1
 167 85 251 76 307 73 c 0
 384 68 500 75 547 82 c 1
 567 120 574 166 578 204 c 1
 650 212 l 1
 650 212 659 139 659 80 c 0
 659 56 652 0 652 0 c 1
 439 0 225 0 12 0 c 1
EndSplineSet
EndChar

StartChar: uni0059
Encoding: 345 89 90
Width: 724
VWidth: 79
Flags: HMW
LayerCount: 3
Back
SplineSet
-16 802 m 1
 98 797 182 799 296 802 c 1
 310 748 l 1
 234 742 211 725 236 670 c 1
 262 622 290 553 326 488 c 1
 337 453 364 385 364 385 c 1
 408 457 474 559 535 665 c 5
 563 724 514 742 446 739 c 1
 437 802 l 1
 534 796 630 798 727 802 c 1
 738 744 l 1
 678 742 649 710 620 662 c 0
 524 505 443 402 406 322 c 1
 377 319 338 310 304 300 c 1
 250 402 218 483 111 668 c 1
 82 733 39 745 -8 744 c 1
 -16 802 l 1
195 69 m 1
 268 54 289 93 296 145 c 0
 303 196 304 249 290 373 c 1
 421 385 l 1
 399 243 412 169 423 122 c 0
 434 73 455 62 507 69 c 1
 528 0 l 1
 203 -1 l 1
 195 69 l 1
EndSplineSet
Fore
SplineSet
-16 802 m 1
 98 797 182 799 296 802 c 1
 310 748 l 1
 234 742 209.208232026 724.108864733 236 670 c 0
 260.208232026 621.108864733 290 553 326 488 c 1
 337 453 364 385 364 385 c 1
 408 457 476.981561694 557.437726737 535 665 c 4
 565.981561694 722.437726737 514 742 446 739 c 1
 437 802 l 1
 534 796 630 798 727 802 c 1
 738 744 l 1
 678 742 649 710 620 662 c 0
 524 505 443 402 406 322 c 1
 377 319 338 310 304 300 c 1
 250 402 213.022346863 480.458921208 111 668 c 0
 77.0223468626 730.458921208 39 745 -8 744 c 1
 -16 802 l 1
195 69 m 1
 268 54 289 93 296 145 c 0
 303 196 304 249 290 373 c 1
 421 385 l 1
 399 243 412 169 423 122 c 0
 434 73 455 62 507 69 c 1
 528 0 l 1
 203 -1 l 1
 195 69 l 1
EndSplineSet
Layer: 2
SplineSet
-16 802 m 1
 98 797 182 799 296 802 c 1
 310 748 l 1
 234 742 211 725 236 670 c 1
 262 622 290 553 326 488 c 1
 337 453 364 385 364 385 c 1
 408 457 474 559 535 665 c 5
 563 724 514 742 446 739 c 1
 437 802 l 1
 534 796 630 798 727 802 c 1
 738 744 l 1
 678 742 649 710 620 662 c 0
 524 505 443 402 406 322 c 1
 377 319 338 310 304 300 c 1
 250 402 218 483 111 668 c 1
 82 733 39 745 -8 744 c 1
 -16 802 l 1
195 69 m 1
 268 54 289 93 296 145 c 0
 303 196 304 249 290 373 c 1
 421 385 l 1
 399 243 412 169 423 122 c 0
 434 73 455 62 507 69 c 1
 528 0 l 1
 203 -1 l 1
 195 69 l 1
EndSplineSet
Colour: ff0000
EndChar

StartChar: uni0058
Encoding: 346 88 91
Width: 806
VWidth: 79
Flags: HMW
LayerCount: 3
Back
SplineSet
2 801 m 1
 128 790 247 792 346 800 c 1
 365 736 l 1
 263 735 256.194540883 699.609481624 286 650 c 0
 344.831955102 552.077576323 409 443 418 430 c 1
 411 434 l 1
 479 340 605 56 769 72 c 5
 785 1 l 1
 419 1 l 1
 407 62 l 1
 455 60 524 62 469 152 c 0
 433 210 373 315 329 373 c 1
 337 373 l 1
 294 449 226.399869022 532.103765557 159 632 c 0
 103 715 75 745 12 734 c 5
 2 801 l 1
-6 66 m 5
 91 56 125.249591338 104.639736588 162 147 c 0
 205.176757812 196.767578125 288 330 341 414 c 1
 379 442 l 1
 430 507 495 601 522 653 c 0
 555.903320312 718.295898438 539 730 467 731 c 1
 459 801 l 1
 557 793 674 793 761 801 c 1
 772 739 l 5
 683 749 651.447017002 695.25244891 598 623 c 0
 544 550 464 437 428 385 c 1
 409 372 l 1
 355 313 313 234 270 163 c 1
 245 116 218 61 310 61 c 5
 319 1 l 5
 2 1 l 5
 -6 66 l 5
EndSplineSet
Fore
SplineSet
-6 66 m 5
 91 56 125.249591338 104.639736588 162 147 c 0
 205.176757812 196.767578125 288 330 341 414 c 1
 379 442 l 1
 430 507 495 601 522 653 c 0
 555.903320312 718.295898438 539 730 467 731 c 1
 459 801 l 1
 557 793 674 793 761 801 c 1
 772 739 l 5
 683 749 651.447017002 695.25244891 598 623 c 0
 544 550 464 437 428 385 c 1
 409 372 l 1
 355 313 311.429489675 234.892349731 270 163 c 0
 243.429489675 116.892349731 218 61 310 61 c 5
 319 1 l 5
 2 1 l 5
 -6 66 l 5
2 801 m 1
 128 790 247 792 346 800 c 1
 365 736 l 1
 263 735 256.194540883 699.609481624 286 650 c 0
 344.831955102 552.077576323 409 443 418 430 c 1
 411 434 l 1
 479 340 605 56 769 72 c 5
 785 1 l 1
 419 1 l 1
 407 62 l 1
 455 60 524 62 469 152 c 0
 433 210 373 315 329 373 c 1
 337 373 l 1
 294 449 226.399869022 532.103765557 159 632 c 0
 103 715 75 745 12 734 c 5
 2 801 l 1
EndSplineSet
Layer: 2
SplineSet
-6 66 m 5
 91 56 125.249591338 104.639736588 162 147 c 0
 205.176757812 196.767578125 288 330 341 414 c 1
 379 442 l 1
 430 507 495 601 522 653 c 0
 555.903320312 718.295898438 539 730 467 731 c 1
 459 801 l 1
 557 793 674 793 761 801 c 1
 772 739 l 5
 683 749 651.447017002 695.25244891 598 623 c 0
 544 550 464 437 428 385 c 1
 409 372 l 1
 355 313 313 234 270 163 c 1
 245 116 218 61 310 61 c 5
 319 1 l 5
 2 1 l 5
 -6 66 l 5
2 801 m 1
 128 790 247 792 346 800 c 1
 365 736 l 1
 263 735 256.194540883 699.609481624 286 650 c 0
 344.831955102 552.077576323 409 443 418 430 c 1
 411 434 l 1
 479 340 605 56 769 72 c 5
 785 1 l 1
 419 1 l 1
 407 62 l 1
 455 60 524 62 469 152 c 0
 433 210 373 315 329 373 c 1
 337 373 l 1
 294 449 226.399869022 532.103765557 159 632 c 0
 103 715 75 745 12 734 c 5
 2 801 l 1
EndSplineSet
Colour: ff0000
EndChar

StartChar: uni004E
Encoding: 347 78 92
Width: 926
VWidth: 79
Flags: HMW
LayerCount: 3
Back
SplineSet
13 69 m 5
 86 54 133 79 138 162 c 4
 146 273 149 479 145 643 c 4
 144 734 98 739 28 729 c 5
 25 745 21 791 19 800 c 5
 118 791 179 790 293 794 c 5
 370 677 656 266 744 140 c 4
 749 132 683 104 688 96 c 5
 706 177 704 518 695 643 c 4
 688 734 646 739 576 729 c 5
 573 745 569 791 567 800 c 5
 633 794 653 791 725 792 c 4
 766 792 836 793 897 801 c 5
 897 801 902 755 905 736 c 5
 854 743 807 720 802 665 c 4
 787 486 790 215 798 0 c 5
 770 -4 753 -5 703 -16 c 5
 701 -17 l 5
 521 255 391 446 242 650 c 5
 230 468 234 186 240 139 c 4
 251 69 307 62 359 69 c 5
 370 0 l 5
 21 -1 l 5
 13 69 l 5
EndSplineSet
Fore
SplineSet
13 69 m 5
 86 54 133 79 138 162 c 4
 146 273 149 479 145 643 c 4
 144 734 98 739 28 729 c 5
 25 745 21 791 19 800 c 5
 118 791 179 790 293 794 c 5
 370 677 656 266 744 140 c 4
 749 132 683 104 688 96 c 5
 706 177 704 518 695 643 c 4
 688 734 646 739 576 729 c 5
 573 745 569 791 567 800 c 5
 633 794 653 791 725 792 c 4
 766 792 836 793 897 801 c 5
 897 801 902 755 905 736 c 5
 854 743 807 720 802 665 c 4
 787 486 790 215 798 0 c 5
 770 -4 753 -5 703 -16 c 5
 701 -17 l 5
 521 255 391 446 242 650 c 5
 230 468 234 186 240 139 c 4
 251 69 307 62 359 69 c 5
 370 0 l 5
 21 -1 l 5
 13 69 l 5
EndSplineSet
Layer: 2
SplineSet
13 69 m 5
 86 54 133 79 138 162 c 4
 146 273 149 479 145 643 c 4
 144 734 98 739 28 729 c 5
 25 745 21 791 19 800 c 5
 118 791 179 790 293 794 c 5
 370 677 656 266 744 140 c 4
 749 132 683 104 688 96 c 5
 706 177 704 518 695 643 c 4
 688 734 646 739 576 729 c 5
 573 745 569 791 567 800 c 5
 633 794 653 791 725 792 c 4
 766 792 836 793 897 801 c 5
 897 801 902 755 905 736 c 5
 854 743 807 720 802 665 c 4
 787 486 790 215 798 0 c 5
 770 -4 753 -5 703 -16 c 5
 701 -17 l 5
 521 255 391 446 242 650 c 5
 230 468 234 186 240 139 c 4
 251 69 307 62 359 69 c 5
 370 0 l 5
 21 -1 l 5
 13 69 l 5
EndSplineSet
EndChar

StartChar: uni004D
Encoding: 356 77 101
Width: 1153
VWidth: 79
Flags: HMW
LayerCount: 3
Back
SplineSet
29 800 m 1
 128 791 198 790 312 794 c 1
 345 711 499 404 559 250 c 1
 574 189 592 104 608 66 c 1
 616 16 l 1
 547 -5 l 1
 509 89 290 578 242 650 c 1
 241 641 271 682 270 673 c 0
 260 491 264 183 270 139 c 0
 281 69 337 62 389 69 c 1
 400 0 l 1
 41 -1 l 1
 33 69 l 1
 106 54 163 79 168 162 c 0
 176 273 179 479 175 643 c 0
 174 734 88 739 38 729 c 1
 35 745 31 791 29 800 c 1
541 50 m 1
 650 268 782 677 829 794 c 1
 943 790 1018 791 1117 800 c 1
 1121 771 1124 745 1128 729 c 1
 1058 739 1001 734 1000 643 c 0
 996 479 999 273 1007 162 c 0
 1012 79 1053 54 1126 69 c 1
 1138 -1 l 1
 749 0 l 5
 740 69 l 5
 792 62 859 69 870 139 c 0
 876 186 880 518 868 700 c 1
 861 690 908 738 901 728 c 1
 807 555 728 265 617 16 c 1
 541 50 l 1
EndSplineSet
Fore
SplineSet
29 800 m 1
 128 791 198 790 312 794 c 1
 345 711 504.65515102 405.788567077 559 250 c 0
 579.65515102 190.788567077 592 104 608 66 c 1
 616 16 l 1
 547 -5 l 1
 509 89 290 578 242 650 c 1
 241 641 271 682 270 673 c 0
 260 491 264 183 270 139 c 0
 281 69 337 62 389 69 c 1
 400 0 l 1
 41 -1 l 1
 33 69 l 1
 106 54 163 79 168 162 c 0
 176 273 179 479 175 643 c 0
 174 734 88 739 38 729 c 1
 35 745 31 791 29 800 c 1
541 50 m 1
 650 268 782 677 829 794 c 1
 943 790 1018 791 1117 800 c 1
 1121 771 1124 745 1128 729 c 1
 1058 739 1001 734 1000 643 c 0
 996 479 999 273 1007 162 c 0
 1012 79 1053 54 1126 69 c 1
 1138 -1 l 1
 759 0 l 1
 750 69 l 1
 802 62 869 69 880 139 c 0
 886 186 890 518 878 700 c 1
 871 690 917.043122919 738.601984348 911 728 c 0
 812.733263764 555.601984348 731.908450704 265 617 16 c 1
 541 50 l 1
EndSplineSet
Layer: 2
SplineSet
29 800 m 1
 128 791 198 790 312 794 c 1
 345 711 499 404 559 250 c 1
 574 189 592 104 608 66 c 1
 616 16 l 1
 547 -5 l 1
 509 89 290 578 242 650 c 1
 241 641 271 682 270 673 c 0
 260 491 264 183 270 139 c 0
 281 69 337 62 389 69 c 1
 400 0 l 1
 41 -1 l 1
 33 69 l 1
 106 54 163 79 168 162 c 0
 176 273 179 479 175 643 c 0
 174 734 88 739 38 729 c 1
 35 745 31 791 29 800 c 1
541 50 m 1
 650 268 782 677 829 794 c 1
 943 790 1018 791 1117 800 c 1
 1121 771 1124 745 1128 729 c 1
 1058 739 1001 734 1000 643 c 0
 996 479 999 273 1007 162 c 0
 1012 79 1053 54 1126 69 c 1
 1138 -1 l 1
 749 0 l 5
 740 69 l 5
 792 62 859 69 870 139 c 0
 876 186 880 518 868 700 c 1
 861 690 908 738 901 728 c 1
 807 555 728 265 617 16 c 1
 541 50 l 1
EndSplineSet
EndChar

StartChar: uni0060
Encoding: 357 96 102
Width: 496
VWidth: 0
Flags: HMW
LayerCount: 3
Back
SplineSet
73 920 m 13
 83 866 l 21
 191 881 368 958 431 1004 c 13
 371 1098 l 21
 308 1032 165 942 73 920 c 13
EndSplineSet
Fore
SplineSet
73 920 m 13
 83 866 l 21
 191 881 368 958 431 1004 c 13
 371 1098 l 21
 308 1032 165 942 73 920 c 13
EndSplineSet
Layer: 2
SplineSet
73 920 m 13
 83 866 l 21
 191 881 368 958 431 1004 c 13
 371 1098 l 21
 308 1032 165 942 73 920 c 13
EndSplineSet
EndChar

StartChar: uni003F
Encoding: 359 63 104
Width: 542
VWidth: 153
Flags: HMW
LayerCount: 3
Back
SplineSet
80 732 m 1
 192 732 l 1
 182 697 175 627 172 592 c 1
 87 580 l 1
 79 612 75 697 80 732 c 1
80 732 m 1
 133 765 220 801 307 801 c 0
 426 801 524 734 496 580 c 0
 461 393 298 345 213 318 c 1
 208 310 261 378 261 364 c 0
 261 299 276 219 280 198 c 1
 167 196 l 1
 168 233 167 340 168 364 c 1
 220 377 362 400 383 532 c 0
 400 636 356 722 232 732 c 0
 178 736 135 710 105 693 c 1
 80 732 l 1
EndSplineSet
Refer: 11 46 N 1 0 0 1 117 2 2
Fore
SplineSet
80 732 m 1
 192 732 l 1
 182 697 175 627 172 592 c 1
 87 580 l 1
 79 612 75 697 80 732 c 1
80 732 m 1
 133 765 220 801 307 801 c 0
 426 801 524 734 496 580 c 0
 461 393 298 345 213 318 c 1
 208 310 261 378 261 364 c 0
 261 299 276 219 280 198 c 1
 167 196 l 1
 168 233 167 340 168 364 c 1
 220 377 362 400 383 532 c 0
 400 636 356 722 232 732 c 0
 178 736 135 710 105 693 c 1
 80 732 l 1
EndSplineSet
Refer: 11 46 N 1 0 0 1 67 2 2
Layer: 2
SplineSet
80 732 m 1
 192 732 l 1
 182 697 175 627 172 592 c 1
 87 580 l 1
 79 612 75 697 80 732 c 1
80 732 m 1
 133 765 220 801 307 801 c 0
 426 801 524 734 496 580 c 0
 461 393 298 345 213 318 c 1
 208 310 261 378 261 364 c 0
 261 299 276 219 280 198 c 1
 167 196 l 1
 168 233 167 340 168 364 c 1
 220 377 362 400 383 532 c 0
 400 636 356 722 232 732 c 0
 178 736 135 710 105 693 c 1
 80 732 l 1
EndSplineSet
Refer: 11 46 N 1 0 0 1 117 2 2
EndChar

StartChar: uni0027
Encoding: 360 39 105
Width: 192
VWidth: 79
Flags: HMW
LayerCount: 3
Back
SplineSet
22 746 m 4
 20 792 54 822 92 822 c 4
 138 822 162 795 162 756 c 4
 162 717 139 688 102 679 c 5
 83 688 24 698 22 746 c 4
41 596 m 5
 47 607 72 659 58 730 c 13
 114 757 l 29
 124 725 163 787 162 756 c 4
 160 703 94 595 69 575 c 5
 41 596 l 5
EndSplineSet
Fore
SplineSet
24 746 m 0
 22.0571428571 792 55.0857142857 822 92 822 c 0
 138 822 162 795 162 756 c 0
 162 717 139 688 102 679 c 1
 83.475 688 25.95 698 24 746 c 0
19 596 m 5
 32.7647058824 607 58.1176470588 659 58 730 c 13
 114 757 l 25
 124 725 163 787 162 756 c 0
 160 703 94 595 69 575 c 1
 19 596 l 5
EndSplineSet
Layer: 2
SplineSet
22 746 m 4
 20 792 54 822 92 822 c 4
 138 822 162 795 162 756 c 4
 162 717 139 688 102 679 c 5
 83 688 24 698 22 746 c 4
41 596 m 5
 47 607 72 659 58 730 c 13
 114 757 l 29
 124 725 163 787 162 756 c 4
 160 703 94 595 69 575 c 5
 41 596 l 5
EndSplineSet
EndChar

StartChar: uni0021
Encoding: 404 33 149
Width: 330
VWidth: 153
Flags: HMW
LayerCount: 3
Back
SplineSet
89 752 m 1
 116 776 173 793 207 791 c 5
 207 791 220 759 221 697 c 0
 222 531 197 414 175 211 c 1
 102 206 l 1
 115 399 117 580 89 752 c 1
EndSplineSet
Refer: 11 46 N 1 0 0 1 39 -10 2
Fore
SplineSet
89 752 m 1
 116 776 183 793 217 791 c 5
 217 791 230 759 231 697 c 4
 232 531 207 414 185 211 c 5
 102 206 l 1
 115 399 117 580 89 752 c 1
EndSplineSet
Refer: 11 46 N 1 0 0 1 -11 -10 2
Layer: 2
SplineSet
89 752 m 1
 116 776 173 793 207 791 c 5
 207 791 220 759 221 697 c 0
 222 531 197 414 175 211 c 1
 102 206 l 1
 115 399 117 580 89 752 c 1
EndSplineSet
Refer: 11 46 N 1 0 0 1 39 -10 2
EndChar

StartChar: uni0029
Encoding: 405 41 150
Width: 371
VWidth: 153
Flags: HMW
LayerCount: 3
Back
SplineSet
52 -95 m 1
 133 37 189.716796875 241.00390625 192 402 c 0
 194 543 163 696 69 814 c 5
 131 865 l 5
 184 817 292 683 307 489 c 0
 325 262 237 54 117 -133 c 1
 52 -95 l 1
EndSplineSet
Fore
SplineSet
52 -95 m 1
 133 37 189.716796875 241.00390625 192 402 c 0
 194 543 163 696 69 814 c 5
 131 865 l 5
 184 817 292 683 307 489 c 0
 325 262 237 54 117 -133 c 1
 52 -95 l 1
EndSplineSet
Layer: 2
SplineSet
52 -95 m 1
 133 37 189.716796875 241.00390625 192 402 c 0
 194 543 163 696 69 814 c 5
 131 865 l 5
 184 817 292 683 307 489 c 0
 325 262 237 54 117 -133 c 1
 52 -95 l 1
EndSplineSet
EndChar

StartChar: uni0028
Encoding: 406 40 151
Width: 371
VWidth: 153
Flags: HMW
LayerCount: 3
Back
SplineSet
81 235 m 0
 63 462 145 696 265 883 c 1
 336 849 l 1
 255 717 199 483 201 322 c 0
 202 191 215 18 319 -110 c 1
 257 -164 l 1
 199 -118 96 41 81 235 c 0
EndSplineSet
Fore
SplineSet
81 235 m 0
 63 462 145 696 265 883 c 1
 336 849 l 1
 255 717 199 483 201 322 c 0
 202 191 215 18 319 -110 c 1
 257 -164 l 1
 199 -118 96 41 81 235 c 0
EndSplineSet
Layer: 2
SplineSet
81 235 m 0
 63 462 145 696 265 883 c 1
 336 849 l 1
 255 717 199 483 201 322 c 0
 202 191 215 18 319 -110 c 1
 257 -164 l 1
 199 -118 96 41 81 235 c 0
EndSplineSet
EndChar

StartChar: uni002D
Encoding: 407 45 152
Width: 520
VWidth: 153
Flags: HW
LayerCount: 3
Back
SplineSet
39 328 m 1
 53 433 l 1
 246 423 308 423 480 433 c 1
 478 406 472 362 470 328 c 1
 39 328 l 1
EndSplineSet
Fore
SplineSet
39 328 m 1
 53 433 l 1
 246 423 308 423 480 433 c 1
 478 406 472 362 470 328 c 1
 39 328 l 1
EndSplineSet
Layer: 2
SplineSet
39 328 m 1
 53 433 l 1
 246 423 308 423 480 433 c 1
 478 406 472 362 470 328 c 1
 39 328 l 1
EndSplineSet
EndChar

StartChar: uni005F
Encoding: 408 95 153
Width: 669
VWidth: 153
Flags: HW
LayerCount: 3
Back
SplineSet
39 1 m 5
 53 96 l 5
 246 86 457 86 629 96 c 5
 627 69 621 35 619 1 c 5
 39 1 l 5
EndSplineSet
Fore
SplineSet
39 1 m 5
 53 96 l 5
 246 86 457 86 629 96 c 5
 627 69 621 35 619 1 c 5
 39 1 l 5
EndSplineSet
Layer: 2
SplineSet
39 1 m 5
 53 96 l 5
 246 86 457 86 629 96 c 5
 627 69 621 35 619 1 c 5
 39 1 l 5
EndSplineSet
EndChar

StartChar: uni2014
Encoding: 409 8212 154
Width: 1000
VWidth: 153
Flags: HW
LayerCount: 3
Back
SplineSet
39 328 m 1
 53 423 l 1
 246 413 457 413 629 423 c 1
 627 396 621 362 619 328 c 1
 39 328 l 1
EndSplineSet
Fore
SplineSet
39 328 m 1
 39 433 l 1
 960 433 l 1
 960 328 l 1
 39 328 l 1
EndSplineSet
Layer: 2
SplineSet
39 328 m 1
 53 423 l 1
 246 413 457 413 629 423 c 1
 627 396 621 362 619 328 c 1
 39 328 l 1
EndSplineSet
EndChar

StartChar: uni03B1
Encoding: 411 945 156
Width: 787
VWidth: 0
Flags: HW
LayerCount: 3
Back
SplineSet
683 630 m 1
 647.421875 620.705078125 592.216796875 611.419921875 555 602 c 1
 563.26171875 505.76171875 548.275390625 324.690429688 500.315429688 244 c 1
 497.67578125 236.3828125 484.90234375 209.03515625 482 201.955078125 c 1
 424.5078125 86.119140625 312.16796875 74.751953125 251 88 c 4
 153.332152894 109.153362505 102.594726562 197.711914062 109 302 c 0
 116.368164062 421.962890625 194.583984375 489.5546875 241 498 c 0
 387.350585938 524.62890625 431.4609375 418.724609375 473.1015625 186 c 1
 491.853515625 77.7158203125 509.224609375 -12.33984375 601 -27.33203125 c 0
 672.63671875 -39.0341796875 738.517578125 -4.3466796875 759 17 c 1
 746 61 l 0
 603.391601562 48.431640625 541.1015625 123.904296875 513.37890625 243 c 0
 483.69921875 370.5 511.438476562 625.198242188 281 612 c 0
 126.201171875 603.133789062 48 429 44 266 c 0
 39.3623046875 77.0146484375 110.83984375 -16.080078125 249 -18 c 0
 444.990234375 -20.7236328125 589.078125 213.200195312 647 396 c 0
 690.337890625 532.772460938 683 630 683 630 c 1
EndSplineSet
Fore
SplineSet
683 630 m 1
 647.421875 620.705078125 592.216796875 611.419921875 555 602 c 1
 563.26171875 505.76171875 548.275390625 324.690429688 500.315429688 244 c 1
 497.67578125 236.3828125 485.373945224 208.821790976 482 201.955078125 c 0
 424.979413974 85.9057753507 332.16797763 44.7519941262 271 58 c 0
 173.33203125 79.1533203125 152.865047997 197.695662792 159 302 c 0
 166.368164062 427.270983131 215.404993866 524.356062034 281 538 c 4
 421.924737266 567.312724954 433.776689404 404.661292369 463.1015625 186 c 4
 477.467791267 78.8780309283 502.269999764 -7.20408544016 601 -23.33203125 c 0
 672.63671875 -35.0341796875 738.517578125 -0.3466796875 759 21 c 1
 746 65 l 1
 603.391601562 52.7078683036 540.524540207 126.385957836 513.37890625 243 c 0
 483.69921875 370.5 511.43846044 625.198523679 281 612 c 0
 126.201171875 603.133789062 48.0000154929 428.99999962 44 266 c 0
 39.3623046875 77.0146484375 110.839844572 -16.0800189667 249 -18 c 0
 444.990234375 -20.7236328125 589.077855533 213.200280695 647 396 c 0
 690.337890625 532.772460938 683 630 683 630 c 1
EndSplineSet
Layer: 2
EndChar

StartChar: uni03F5
Encoding: 412 1013 157
Width: 493
VWidth: 0
Flags: HW
LayerCount: 3
Back
SplineSet
464 584 m 5
 397 611.323127737 331.916015625 620.152563781 264 611 c 4
 174.324778694 598.915101099 60.8271850583 558.778256272 45 436 c 0
 37.6368441578 378.880845101 62 297 118 270 c 1
 114.30859375 267.762695312 121.666992188 304.075195312 118.106445312 301 c 1
 79.837890625 276.583984375 40.5539622963 231.637132263 32 163 c 0
 21.4224972706 78.1259464668 81.5641299313 -13.7860818633 210 -26 c 0
 317.424804688 -36.2158203125 411 -1 474 59 c 0
 460 134 l 0
 374 96 325.413085938 85.8876953125 258 89 c 0
 203.275390625 91.5263671875 112.403320312 111.170898438 110 174 c 0
 108.4296875 215.053710938 138 230 163 238 c 1
 240 209 316 239 341 304 c 1
 336.673536464 334.339047477 306.029296875 349.950195312 261 349.38671875 c 0
 221.028320312 348.885742188 168.448054291 335.426997743 132 311.396484375 c 1
 128.059570312 314.419921875 181.826171875 288.536132812 177 292 c 1
 155.443359375 307.474609375 112.391601562 348.999023438 127 420 c 0
 136.525390625 466.296875 191.349609375 509.25 270 519.033203125 c 0
 318.556640625 525.073242188 363.009765625 523.750976562 437 506 c 5
 464 584 l 5
EndSplineSet
Fore
SplineSet
458 586 m 1
 381.386138614 609.303089633 306.783145111 616.095947709 246 612 c 0
 159.989844498 606.204098871 60.0770466158 565.504819249 45 442 c 0
 37.63671875 384.880859375 62 297 118 270 c 1
 114.30859375 267.762695312 122.034560547 303.581663017 118.106445312 301 c 0
 80.2054589844 276.09045208 40.5539622963 231.637132263 32 163 c 0
 22.6109807233 78.1259464668 55.9951265682 -8.7860818633 190 -26 c 4
 305.068206856 -40.7813631119 406.227272727 -1 474 59 c 1
 450 104 l 1
 364 57.6666666667 315.413085938 50.8876953125 248 54 c 0
 204.36821685 57.1278831845 131.916160789 80.2115885423 130 158 c 0
 129.033653846 204.835923746 146.615384615 229.873239437 162 239 c 1
 239 210 316 239 341 304 c 1
 336.673536464 334.339047477 306.029296875 349.950195312 261 349.38671875 c 0
 224.126900133 348.885742188 175.622623726 335.426997743 142 311.396484375 c 1
 138.059570312 314.419921875 211.825924373 288.535788001 207 292 c 0
 185.443111873 307.474264564 136.510821197 348.274682951 147 420 c 0
 154.854100025 483.547275183 191.73958077 528.63692834 264 541.033203125 c 0
 312.556640625 548.073242188 371.009765625 546.750976562 441 526 c 1
 458 586 l 1
EndSplineSet
Layer: 2
EndChar

StartChar: uni03B7
Encoding: 413 951 158
Width: 735
VWidth: 0
Flags: HW
LayerCount: 3
Back
SplineSet
243.55859375 239 m 1
 240.711914062 360.379882812 275.732421875 610.516601562 99 611.33203125 c 0
 37.587890625 611.615234375 -8.517578125 568.346679688 -29 547 c 1
 -16 503 l 0
 126.608398438 515.568359375 150.241210938 479.146484375 166.62109375 341 c 0
 184.770507812 187.92578125 153.0859375 13.5498046875 154 -25 c 1
 173.052734375 -24.07421875 227.631835938 3.203125 259 5 c 1
 262.491210938 55.0947265625 311.366210938 485.428710938 470 488 c 4
 565.1328125 489.541992188 592.096679688 387.249023438 583.618164062 230 c 0
 570.073242188 -21.220703125 437.299804688 -350.401367188 450.926757812 -334 c 1
 588 -306 l 1
 605.28125 -283.107421875 710.677734375 348.811523438 651 512 c 0
 623.8203125 586.323242188 557.977539062 622.83984375 471 602 c 0
 341.299804688 570.923828125 271.637695312 376.430664062 243.55859375 239 c 1
EndSplineSet
Fore
SplineSet
253.55859375 319 m 1
 251.5 411.040039062 276.830078125 600.713867188 149 601.33203125 c 0
 82.7900390625 601.615234375 33.0830078125 558.346679688 11 537 c 1
 24 493 l 1
 143.181640625 505.568359375 162.931640625 469.146484375 176.62109375 331 c 1
 194.770507812 190.472407876 163.0859375 30.3900830925 164 -5 c 1
 181.23828125 -4.69140625 230.619140625 4.4013671875 259 5 c 1
 261.829101562 55.7170213024 286.697265625 491.396769458 430 494 c 4
 525.139648438 495.26171875 552.096679688 393.249023438 543.618164062 236 c 4
 531.09375 -17.8932637965 408.327148438 -350.575849817 420.926757812 -334 c 1
 558 -306 l 1
 580.767578125 -283.499074836 679.623046875 337.604778548 641 498 c 4
 619.721679688 590.577148438 547.89453125 623.983398438 461 608 c 4
 351.20703125 584.817103795 279.168945312 428.414999714 253.55859375 319 c 1
EndSplineSet
Layer: 2
EndChar

StartChar: uni03B9
Encoding: 414 953 159
Width: 419
VWidth: 0
Flags: HW
LayerCount: 3
Back
SplineSet
120.44140625 343 m 5
 123.288085938 221.620117188 88.267578125 -28.5166015625 265 -29.33203125 c 4
 326.412109375 -29.615234375 372.517578125 13.6533203125 393 35 c 5
 380 79 l 4
 237.391601562 66.431640625 213.758789062 102.853515625 197.37890625 241 c 4
 179.229492188 394.07421875 210.9140625 568.450195312 210 607 c 5
 190.947265625 606.07421875 126.368164062 578.796875 95 577 c 5
 120.44140625 343 l 5
EndSplineSet
Fore
SplineSet
120.44140625 343 m 1
 123.288085938 221.620117188 88.267578125 -28.5166015625 265 -29.33203125 c 0
 326.412109375 -29.615234375 372.517578125 13.6533203125 393 35 c 1
 380 79 l 1
 237.391601562 66.431640625 213.758789062 102.853515625 197.37890625 241 c 0
 179.229492188 394.07421875 210.9140625 568.450195312 210 607 c 1
 190.947265625 606.07421875 126.368164062 578.796875 95 577 c 1
 120.44140625 343 l 1
EndSplineSet
Layer: 2
EndChar

StartChar: uni03C1
Encoding: 415 961 160
Width: 761
VWidth: 0
Flags: HW
LayerCount: 3
Back
SplineSet
69.6845703125 244 m 1
 72.32421875 236.3828125 85.09765625 209.03515625 88 201.955078125 c 1
 145.4921875 86.119140625 277.83203125 74.751953125 339 88 c 0
 436.66796875 109.153320312 487.405273438 197.711914062 481 302 c 0
 473.631835938 421.962890625 395.416015625 489.5546875 349 498 c 0
 202.649414062 524.62890625 137.240234375 418.953125 96.8984375 186 c 0
 69.447265625 27.4833984375 134 -322 152 -394 c 1
 14 -374 l 0
 14 -262 22.9677734375 122.151367188 41.62109375 243 c 0
 61.30078125 370.5 78.5615234375 625.198242188 309 612 c 0
 463.798828125 603.133789062 542 429 546 266 c 0
 550.637695312 77.0146484375 479.16015625 -16.080078125 341 -18 c 0
 234.12109375 -19.4853515625 122.677734375 49.404296875 52.224609375 142 c 0
 69.6845703125 244 l 1
EndSplineSet
Fore
Refer: 13 112 N 1 0 0 1 0 0 3
Layer: 2
EndChar

StartChar: tml_A
Encoding: 3 2949 163
Width: 1194
VWidth: 0
Flags: HWO
LayerCount: 3
Back
Fore
SplineSet
1057 642 m 1
 1066.28320312 504.888671875 1036.68652344 81.4521484375 994 -119 c 1
 1118 -119 l 1
 1111.86328125 -12.5654296875 1134.03125 393.655273438 1184 652 c 1
 1057 642 l 1
380 -70 m 0
 232.620117188 -82.240234375 136.02148364 -8.3305172066 138 88 c 4
 139.447265625 158.46484375 185.501953125 213.66015625 276 216 c 4
 524.45703125 214.145507812 749.9296875 225.768554688 990 233 c 5
 1082 233 l 4
 1104 244 1103 292 1078 294 c 0
 829.544411749 288.221963064 581.266601562 274 324 274 c 1
 169.125976562 278.454101562 48.1328125 219.490234375 50 72 c 0
 51.25 -26.7509765625 124.964216477 -138.654631072 378 -128 c 0
 682.991477652 -115.157659564 824.33203125 84.4599609375 876 266.802734375 c 1
 878.098632812 278.88671875 879.564778349 291.154362166 882 303 c 0
 940.475916456 587.444140037 777.073242188 701.21484375 546 669.84765625 c 0
 391.609375 648.890625 307.453125 537.713867188 296 444 c 0
 283.619140625 342.6953125 357.826171875 309.577148438 417 310 c 0
 502.364257812 310.609375 561.66796875 357.301757812 575 438 c 0
 590.780273438 533.51953125 522.016601562 557.688476562 475 558 c 0
 422.159179688 558.349609375 361.192382812 522.809570312 331 446 c 1
 351 422 l 1
 372.279296875 473.454101562 408.265625 495.965820312 439 500 c 0
 467.315429688 503.716796875 498.424804688 491.924804688 498 451 c 0
 497.486328125 401.497070312 468.103515625 381.83203125 436 378 c 0
 402.396484375 373.989257812 346.986328125 387.892578125 348 458 c 0
 348.987304688 526.317382812 430.939705466 592.979572552 513 605 c 0
 718.945383824 635.167470864 820.776367188 477.80078125 765 286 c 0
 716.877929688 120.521484375 601.901367188 -51.5703125 380 -70 c 0
EndSplineSet
Layer: 2
EndChar

StartChar: tml_Ka
Encoding: 15 2965 175
Width: 942
VWidth: 0
Flags: HW
AnchorPoint: "tm_Virama" 514 695 basechar 0
LayerCount: 3
Back
Fore
SplineSet
642.518554688 27.2958984375 m 1
 739.8828125 61.333984375 776.766601562 113.477539062 777 192 c 0
 777.280273438 286.163085938 704.498046875 331.47265625 632 333 c 0
 570 333 l 0
 541 337 l 1
 326 337 l 0
 205 337 99 278 99 175 c 0
 99 81.865234375 194.6796875 65.6181640625 278 66 c 4
 411.904296875 66.61328125 458.57421875 130.428710938 480 226 c 4
 500.787109375 352 l 1
 496.934570312 390 l 1
 517 549 l 1
 316 549 l 24
 286 351 l 0
 211 351 l 0
 241 628 l 17
 343.333007812 620.305664062 554.666992188 620.356445312 768 639 c 9
 756 549 l 24
 649 549 l 1
 576.104492188 443.515625 613 291 581 163 c 0
 545.209761436 19.8390457439 423.615291344 -42.3367997132 256 -30 c 4
 95.9375304698 -18.2191021334 41.0693359375 60.6591796875 41.533203125 166 c 0
 42.1962890625 316.583984375 166.6640625 400.888671875 333 405 c 0
 417.043945312 407.077148438 492.07968668 407.21283413 668 405 c 0
 827 403 917.5703125 350.428710938 898 200 c 0
 879.294921875 56.21875 764.58984375 -8.8564453125 662.473632812 -28.26953125 c 1
 642.518554688 27.2958984375 l 1
EndSplineSet
Layer: 2
EndChar

StartChar: tml_Pa
Encoding: 25 2986 185
Width: 828
VWidth: 0
Flags: HW
AnchorPoint: "tm_Virama" 400 709 basechar 0
LayerCount: 3
Back
Fore
SplineSet
663 640 m 1
 788 650 l 1
 761.3359375 501.756835938 729.337890625 252.861328125 748 0 c 1
 608 0 l 1
 622.079101562 42.0146484375 661.236328125 270.780273438 663 640 c 1
76 79 m 1
 162 72.3330078125 542.32421875 70.75390625 711 93 c 1
 731 0 l 1
 76 0 l 1
 76 79 l 1
116 640 m 1
 246 650 l 1
 206.3359375 461.756835938 172.337890625 222.861328125 191 0 c 1
 56 0 l 1
 91.8154296875 161.279296875 109.811523438 405.404296875 116 640 c 1
EndSplineSet
Layer: 2
EndChar

StartChar: tml_Ya
Encoding: 27 2991 187
Width: 1108
VWidth: 0
Flags: HW
AnchorPoint: "tm_Virama" 530 695 basechar 0
LayerCount: 3
Back
Fore
SplineSet
906 626 m 5
 1031 636 l 5
 1004.3359375 487.756835938 972.337890625 252.861328125 991 0 c 5
 851 0 l 5
 865.079101562 42.0146484375 904.236328125 256.780273438 906 626 c 5
460 75 m 1
 546 68.3330078125 785.32421875 68.75390625 954 91 c 5
 974 0 l 5
 440 0 l 1
 460 75 l 1
485 626 m 1
 609 636 l 1
 569.3359375 447.756835938 535.337890625 222.861328125 554 0 c 1
 440 0 l 1
 475.815429688 161.279296875 478.811523438 391.404296875 485 626 c 1
116 626 m 1
 246 646 l 1
 210.454101562 427.833984375 188.815429688 190.459960938 209.036132812 126 c 0
 222.384765625 83.4462890625 266.38671875 60.3330078125 308 64 c 0
 385.506835938 70.830078125 460.997070312 175.993164062 477 364 c 1
 520 332 l 1
 520 332 491.05859375 273.305664062 479 210 c 0
 463 126 403.001953125 -21.9990234375 243 -25 c 0
 115.36328125 -27.3935546875 75.3999619672 66.8300520892 86 160 c 0
 96.3406529437 250.890060313 126.314453125 399.706054688 116 626 c 1
EndSplineSet
Layer: 2
EndChar

StartChar: tml_La
Encoding: 30 2994 190
Width: 1081
VWidth: 0
Flags: HW
AnchorPoint: "tm_Virama" 510 695 basechar 0
LayerCount: 3
Back
SplineSet
730.140625 -20 m 4
 579.752929688 -20 497.684570312 73.541015625 527 291 c 4
 547.579101562 443.653320312 476.771484375 521.421875 355 523 c 4
 207.38169691 524.913092673 108.19921875 394.180664062 104 253 c 4
 99.4619140625 112.9609375 164.703125871 42.9748560589 238 43 c 4
 300.62890625 43.021484375 328.465820312 101.497070312 329 151 c 4
 329.424804688 191.924804688 307.315429688 244.819335938 239 245 c 4
 193.002929688 245.12890625 144.279296875 208.454101562 123 117 c 5
 103 151 l 5
 103.192382812 257.809570312 191.12890625 323.932617188 274 323 c 4
 371.002929688 321.908203125 438.759765625 255.786132812 435 153 c 4
 432.03515625 76.6982421875 378.366210938 -19.7841796875 253 -20 c 4
 113.825195312 -20.271484375 44.3095703125 101.659179688 45 239 c 4
 46.1025390625 423.48828125 175.154412908 605.251406098 394 606 c 4
 555.016601562 606.55078125 691.118164062 525.106445312 657 298 c 4
 627.091796875 98.9150390625 706.880439808 62.651240053 768 62 c 4
 877.5234375 60.8330078125 926.150390625 202.674804688 928 302 c 4
 930.0703125 413.201171875 873.553710938 486.99609375 774.12109375 544.540039062 c 5
 783.66015625 591.482421875 813.733398438 624.116210938 852 625.418945312 c 4
 976.881835938 629.669921875 1004.04254097 451.215867826 1002.07128906 317 c 4
 1002.30761719 167.434570312 917 -20 730.140625 -20 c 4
EndSplineSet
Fore
SplineSet
776.140625 -20 m 0
 588.235351562 -51.87890625 487.008707519 66.4478960273 533 281 c 0
 563.579101562 423.653320312 528.769950956 546.174370717 377 548 c 4
 249.377929688 549.53515625 143.19921875 414.180664062 119 253 c 0
 98.19698313 114.439986627 163.703125 72.974609375 237 73 c 0
 299.62890625 73.021484375 344.465820312 121.497070312 345 171 c 0
 345.424804688 211.924804688 319.31554927 258.827317506 251 259 c 0
 200.002929688 259.12890625 156.279296875 208.454101562 135 117 c 1
 105 141 l 1
 105.192382812 247.809570312 203.125883921 326.367523712 286 327 c 0
 405.002929688 327.908203125 446.759765625 245.786132812 433 153 c 0
 421.798750654 77.466692401 360.366210938 -19.771484375 235 -20 c 0
 85.8251953125 -20.271484375 39.3919595996 102.547199765 55 239 c 0
 76.1025390625 423.48828125 217.283587932 654.212683357 456 646 c 4
 656.998046875 639.084960938 694.000976562 484.14453125 654 278 c 0
 621.291015625 109.434570312 720.151253185 48.9742535204 800 62 c 0
 887.215820312 76.2275390625 950.150390625 175.674804688 952 275 c 0
 954.774115009 423.955396479 871.196236479 499.038320996 776.12109375 565.540039062 c 1
 775.66015625 612.482421875 828.719726562 652.615234375 867 653.418945312 c 0
 1021.88183594 656.669921875 1054.31240204 439.695407938 1034.07128906 307 c 0
 1014.30761719 177.434570312 932.485907588 6.52462336505 776.140625 -20 c 0
EndSplineSet
Layer: 2
SplineSet
730.140625 -20 m 4
 579.752929688 -20 497.684570312 73.541015625 527 291 c 4
 547.579101562 443.653320312 476.771484375 521.421875 355 523 c 4
 207.38169691 524.913092673 108.19921875 394.180664062 104 253 c 4
 99.4619140625 112.9609375 164.703125871 42.9748560589 238 43 c 4
 300.62890625 43.021484375 328.465820312 101.497070312 329 151 c 4
 329.424804688 191.924804688 307.315429688 244.819335938 239 245 c 4
 193.002929688 245.12890625 144.279296875 208.454101562 123 117 c 5
 103 151 l 5
 103.192382812 257.809570312 191.12890625 323.932617188 274 323 c 4
 371.002929688 321.908203125 438.759765625 255.786132812 435 153 c 4
 432.03515625 76.6982421875 378.366210938 -19.7841796875 253 -20 c 4
 113.825195312 -20.271484375 44.3095703125 101.659179688 45 239 c 4
 46.1025390625 423.48828125 175.154412908 605.251406098 394 606 c 4
 555.016601562 606.55078125 691.118164062 525.106445312 657 298 c 4
 627.091796875 98.9150390625 706.880439808 62.651240053 768 62 c 4
 877.5234375 60.8330078125 926.150390625 202.674804688 928 302 c 4
 930.0703125 413.201171875 873.553710938 486.99609375 774.12109375 544.540039062 c 5
 783.66015625 591.482421875 813.733398438 624.116210938 852 625.418945312 c 4
 976.881835938 629.669921875 1004.04254097 451.215867826 1002.07128906 317 c 4
 1002.30761719 167.434570312 917 -20 730.140625 -20 c 4
EndSplineSet
EndChar

StartChar: tml_Va
Encoding: 33 2997 193
Width: 1074
VWidth: 0
Flags: HW
AnchorPoint: "tm_Virama" 510 695 basechar 0
LayerCount: 3
Back
SplineSet
508 62 m 5
 932 62 l 5
 932 0 l 5
 496 0 l 5
 476 61 l 5
 533.91015625 116.224609375 566.995117188 203.79296875 567 291 c 4
 567.004882812 393.7109375 506.771484375 516.421875 345 513 c 4
 197.405273438 509.737304688 108.19921875 364.180664062 104 253 c 4
 98.7118130433 112.987256549 164.703125871 42.9748560589 238 43 c 4
 300.62890625 43.021484375 328.465820312 101.497070312 329 151 c 4
 329.424804688 191.924804688 307.315429688 244.819335938 239 245 c 4
 193.002929688 245.12890625 144.279296875 208.454101562 123 117 c 5
 103 151 l 5
 103.192382812 257.809570312 191.12890625 323.932617188 274 323 c 4
 371.002929688 321.908203125 438.759765625 255.786132812 435 153 c 4
 432.03515625 76.6982421875 378.366210938 -19.7841796875 253 -20 c 4
 113.825195312 -20.271484375 44.3095703125 101.659179688 45 239 c 4
 46.1025390625 423.48828125 201.154864291 605.201837448 410 606 c 4
 561.016519398 606.577153641 689.573242188 514.805664062 688 336 c 4
 686.284179688 231.454101562 621.409179688 77.3662109375 521.517578125 25 c 5
 516.938476562 38.6630859375 512.397460938 51.072265625 508 62 c 5
852 592 m 5
 976 602 l 5
 970.668945312 510.4609375 968.055664062 432.109375 966.071289062 297 c 4
 966.227539062 198.109375 965.544921875 84 965 0 c 5
 846 0 l 5
 852 592 l 5
EndSplineSet
Fore
SplineSet
528 62 m 1
 663.60591938 67.9300045986 764.160274944 69.3516643004 952 82 c 1
 952 0 l 1
 516 0 l 1
 496 61 l 1
 533.91015625 116.224609375 576.995117188 253.79296875 577 341 c 0
 577.004882812 433.7109375 536.765625 573.668945312 355 547 c 4
 218.82421875 527.01953125 118.19921875 364.180664062 114 253 c 0
 108.711914062 112.987304688 154.703125 72.974609375 228 73 c 0
 290.62890625 73.021484375 338.551848126 131.496216756 339 181 c 0
 339.424804688 227.924804688 310.315429688 264.833984375 259 265 c 0
 206.002990871 265.171455869 144.279296875 208.454101562 123 117 c 1
 103 151 l 1
 103.200061218 251.673445642 196.632164443 330.662550339 284.999998089 334.040027129 c 0
 368.157787778 337.218372609 437.775558655 288.081693379 435 183 c 0
 432.455947594 86.683053382 358.36615819 -19.7554517631 233 -20 c 0
 93.8251953125 -20.271484375 40.9015505998 102.382900153 55 239 c 0
 76.1025390625 443.48828125 211.561523438 638.651367188 420 652 c 4
 608.982421875 664.102539062 701.279296875 561.797851562 699 393 c 0
 697.182617188 258.455078125 621.409179688 67.3662109375 551.517578125 25 c 1
 546.938476562 38.6630859375 532.397460938 51.072265625 528 62 c 1
912 632 m 1
 1046 652 l 1
 1007.13183594 482.860351562 986.272460938 206.15625 995 0 c 1
 866 0 l 1
 887.993245889 176.702631021 911.328508085 346.561284841 912 632 c 1
EndSplineSet
Layer: 2
EndChar

StartChar: tml_MatraAa
Encoding: 38 3006 198
Width: 1054
VWidth: 0
Flags: HW
LayerCount: 3
Back
Fore
SplineSet
508 62 m 1
 942 62 l 1
 942 0 l 1
 496 0 l 1
 476 61 l 1
 533.91015625 116.224609375 566.995117188 203.79296875 567 291 c 0
 567.004882812 393.7109375 506.771484375 516.421875 345 513 c 0
 197.405273438 509.737304688 108.19921875 394.180664062 104 253 c 0
 99.4619140625 112.9609375 164.703125871 42.9748560589 238 43 c 0
 300.62890625 43.021484375 328.465820312 101.497070312 329 151 c 0
 329.424804688 191.924804688 307.315429688 244.819335938 239 245 c 0
 193.002929688 245.12890625 144.279296875 208.454101562 123 117 c 1
 103 151 l 1
 103.192382812 257.809570312 191.12890625 323.932617188 274 323 c 0
 371.002929688 321.908203125 438.759765625 255.786132812 435 153 c 0
 432.03515625 76.6982421875 378.366210938 -19.7841796875 253 -20 c 0
 113.825195312 -20.271484375 44.3095703125 101.659179688 45 239 c 0
 46.1025390625 423.48828125 191.154667931 605.251406971 410 606 c 4
 571.016601562 606.55078125 679.573242188 515.805664062 678 337 c 4
 676.284179688 232.454101562 621.409179688 77.3662109375 521.517578125 25 c 1
 516.938476562 38.6630859375 512.397460938 51.072265625 508 62 c 1
859 592 m 1
 989 602 l 1
 983.668945312 510.4609375 978.055664062 432.109375 976.071289062 297 c 0
 976.227539062 198.109375 975.544921875 84 975 0 c 1
 858 0 l 1
 871.889648438 249.307617188 870.393554688 455.765625 859 592 c 1
EndSplineSet
Layer: 2
EndChar

StartChar: tml_Virama
Encoding: 49 3021 209
Width: 0
VWidth: 0
Flags: HW
AnchorPoint: "tm_Virama" 2 829.175 mark 0
LayerCount: 3
Back
Fore
SplineSet
-86 963 m 4
 -86 1009 -48 1047 -2 1047 c 4
 44 1047 82 1009 82 963 c 4
 82 917 44 879 -2 879 c 4
 -48 879 -86 917 -86 963 c 4
EndSplineSet
Layer: 2
EndChar

StartChar: uni0030
Encoding: 417 48 237
Width: 696
VWidth: 153
Flags: HW
LayerCount: 3
Back
Fore
SplineSet
58.0029296875 312.139648438 m 0
 58.5648032901 574.975046939 187.741393701 703.90538538 370.72265625 714.151367188 c 0
 488.930012499 721.026367188 628.44117699 619.872070312 629.262695312 360.750976562 c 4
 630.108805439 177.670568393 550.246902292 -0.93871362553 336.286132812 -5.2470703125 c 0
 164.355664744 -9.2421875 57.5883251737 118.194351649 58.0029296875 312.139648438 c 0
183.572265625 392.72265625 m 0
 184.513072302 196.672982184 270.62641968 66.2687888804 364.352539062 67.8310546875 c 0
 456.925465179 69.5350656309 505.191618806 170.322276198 504.521484375 322.618164062 c 4
 503.865642144 517.708007813 418.185083426 653.71775371 309.448242188 641.96484375 c 0
 254.548817264 634.331030206 182.557120782 567.651102083 183.572265625 392.72265625 c 0
EndSplineSet
Layer: 2
EndChar

StartChar: uni0031
Encoding: 418 49 238
Width: 445
VWidth: 79
Flags: HW
LayerCount: 3
Back
Fore
SplineSet
51 654 m 5
 154 652 301 705 301 705 c 5
 291 600 290 87 281 0 c 1
 171 0 l 1
 186 200 187 456 180 518 c 4
 175 563 129 593 57 593 c 5
 51 654 l 5
62 61 m 1
 128 57 176 79 180 137 c 1
 287 142 l 1
 285 47 347 53 375 54 c 1
 385 0 l 1
 69 0 l 1
 62 61 l 1
EndSplineSet
Layer: 2
EndChar

StartChar: uni0032
Encoding: 419 50 239
Width: 632
VWidth: 153
Flags: HW
LayerCount: 3
Back
Fore
SplineSet
93 639 m 5
 142.966796875 667 243.942382812 711 347 711 c 4
 466.615234375 711 548.943359375 663.509765625 550 543 c 4
 551.8046875 283.689453125 264.051757812 106.491210938 232 95 c 5
 486 98.0107421875 l 5
 492.348632812 121.935546875 498.118164062 148.659179688 500 177.428710938 c 5
 572 188 l 5
 578.437918861 145.4026386 574.213867188 54.625 566 0 c 5
 80 0 l 4
 65 55 l 5
 151.976744186 111.819915254 419.288085938 297.709960938 415 506 c 4
 413.432617188 582.1328125 383.506835938 652.432617188 312 652 c 4
 242.52734375 651.580078125 203.50390625 597.868164062 172 564 c 5
 228 657 l 5
 207 612 190 569 184 501 c 5
 96 492 l 5
 90 559 93 639 93 639 c 5
EndSplineSet
Layer: 2
EndChar

StartChar: uni0033
Encoding: 420 51 240
Width: 595
VWidth: 153
Flags: HW
LayerCount: 3
Back
Fore
SplineSet
53 642 m 1
 101 670 198 714 287 714 c 0
 413 714 508.950195312 664.693359375 510 546 c 0
 510.87890625 446.66796875 425.359375 328.995117188 306.583984375 300 c 1
 289.573242188 316 l 1
 422.430664062 315.596679688 520.967773438 232.822265625 520 125 c 0
 518.745117188 -14.77734375 421.309570312 -123 237 -123 c 0
 143.021484375 -123 40.0654296875 -83.888671875 13 -59 c 1
 46 56 l 1
 60.8173828125 45.4736328125 164.676923168 -43.4684255543 285 -43 c 0
 379.318359375 -42.6328125 417.387695312 13.935546875 421 63 c 4
 429.005781234 171.739243249 309.14453125 244.01171875 202 248 c 1
 195 313 l 1
 277.858398438 326.877929688 394.013671875 417.668945312 392 530 c 0
 390.567382812 609.918945312 329.4921875 655.184570312 265 655 c 0
 216.669921875 654.862304688 192.7421875 637.853515625 167.594726562 617.3046875 c 1
 155.396484375 585.486328125 146.11328125 550.618164062 142 504 c 1
 56 495 l 1
 50 562 53 642 53 642 c 1
EndSplineSet
Layer: 2
EndChar

StartChar: uni0034
Encoding: 421 52 241
Width: 712
VWidth: 79
Flags: HW
LayerCount: 3
Back
Fore
SplineSet
387 693 m 1
 460.322265625 690.31640625 537 687 537 687 c 1
 517 552 518 -32 509 -119 c 1
 389 -119 l 1
 407.556640625 128.41796875 415.928710938 421.28515625 403 593 c 1
 146 221 l 1
 246.852539062 217.340820312 539.942382812 215.776367188 653 221 c 9
 666 129 l 17
 42 129 l 1
 32 179 l 1
 387 693 l 1
300 -58 m 1
 366 -62 394 -40 398 18 c 1
 515 23 l 1
 513 -72 565 -66 593 -65 c 5
 603 -119 l 5
 307 -119 l 1
 300 -58 l 1
EndSplineSet
Layer: 2
EndChar

StartChar: uni0035
Encoding: 422 53 242
Width: 595
VWidth: 153
Flags: HW
LayerCount: 3
Back
Fore
SplineSet
520 125 m 0
 511.568359375 -14.5283203125 411.309570312 -123 227 -123 c 0
 133.021484375 -123 30.0654296875 -83.888671875 3 -59 c 1
 46 56 l 1
 60.8173828125 44.4209960937 151.676757812 -54.5768554687 272 -54 c 4
 356.318359375 -53.6076626712 398.356445312 6.80289490582 401 102 c 0
 405.419489158 250.948376205 287.14453125 344.01171875 70 298 c 1
 82.306640625 413.541015625 89 560.098632812 96 687 c 1
 256.16796875 679.185546875 359.015625 681.573242188 498 687 c 1
 501.3125 610.168945312 494.80859375 544.78125 488 493 c 1
 408 503 l 1
 408.948242188 562.8828125 400 595 400 595 c 1
 181 595 l 1
 164 377.900390625 l 1
 384.856445312 404.807257556 531.533203125 308.584584293 520 125 c 0
EndSplineSet
Layer: 2
EndChar

StartChar: uni0036
Encoding: 423 54 243
Width: 645
VWidth: 153
Flags: HW
LayerCount: 3
Back
Fore
SplineSet
184.689453125 257.728515625 m 0
 188.732421875 368.954101562 242.383789062 417.328125 309.522460938 420.196289062 c 0
 379.672851562 423.193359375 463.173828125 358.51953125 459.129882812 231.5546875 c 0
 455.895507812 126.42578125 423.537109375 46.587890625 344.592773438 46.1484375 c 0
 252.40234375 45.6357421875 179.928710938 126.74609375 184.689453125 257.728515625 c 0
298.201171875 -23.9892578125 m 0
 478.551757812 -26.4150390625 570.4296875 110.25390625 574.555664062 252.581054688 c 0
 579.408203125 419.979492188 456.6875 487.23046875 352.149414062 487.91015625 c 0
 286.526367188 488.336914062 205.216796875 468.615234375 150.780273438 382.663085938 c 1
 173.747070312 370.348632812 l 1
 173.160272626 528.278493757 237.792277141 726.506130194 398.999996995 720.331146717 c 0
 462.213026711 717.909802291 521.980492819 682.72104666 555.092773438 648.16015625 c 1
 580.676757812 768.241210938 l 1
 542.224609375 785.747070312 485.55260959 792.919914167 431 790.263671875 c 0
 252.159179688 781.555664062 42.431640625 629.411132812 50.05078125 273 c 0
 52.4169921875 162.325195312 99.99609375 -21.3232421875 298.201171875 -23.9892578125 c 0
EndSplineSet
Layer: 2
EndChar

